<svg xmlns="http://www.w3.org/2000/svg" width="47" height="45.178" viewBox="0 0 47 45.178">
    <defs>
        <style>
            .cls-1{fill:#555}
        </style>
    </defs>
    <g id="business-affiliate-network" transform="translate(0 -.911)">
        <g id="Layer_1_110_">
            <g id="Group_43" data-name="Group 43">
                <path id="Path_21" d="M17.567 15.938l-2.859-2.7a4.19 4.19 0 0 0 .539-2.029 4.269 4.269 0 1 0-2 3.587l2.855 2.7a9.711 9.711 0 0 1 1.465-1.558z" class="cls-1" data-name="Path 21"/>
                <path id="Path_22" d="M29.66 15.6l3.8-6.393a4.193 4.193 0 1 0-1.843-1.076l-3.787 6.375a9.487 9.487 0 0 1 1.83 1.094z" class="cls-1" data-name="Path 22"/>
                <path id="Path_23" d="M42.762 20.952a4.236 4.236 0 0 0-3.968 2.775l-5.278-.521c0 .04.006.078.006.117a9.719 9.719 0 0 1-.213 2.009l5.276.521a4.234 4.234 0 1 0 4.177-4.9z" class="cls-1" data-name="Path 23"/>
                <path id="Path_24" d="M28.2 37.624l-1.18-5.156a9.662 9.662 0 0 1-2.082.481l1.182 5.157a4.228 4.228 0 1 0 2.08-.482z" class="cls-1" data-name="Path 24"/>
                <path id="Path_25" d="M14.357 25.37l-6.57 2.2a4.233 4.233 0 1 0 .694 2.313c0-.1-.021-.188-.029-.284l6.591-2.207a9.682 9.682 0 0 1-.686-2.022z" class="cls-1" data-name="Path 25"/>
                <circle id="Ellipse_5" cx="7.271" cy="7.271" r="7.271" class="cls-1" data-name="Ellipse 5" transform="translate(16.559 16.052)"/>
            </g>
        </g>
    </g>
</svg>
