<svg xmlns="http://www.w3.org/2000/svg" width="33.387" height="33.387" viewBox="0 0 33.387 33.387">
    <defs>
        <style>
            .cls-1{fill:#5d9f4b}
        </style>
    </defs>
    <path id="check-mark" d="M24.073 11.4a1.3 1.3 0 0 1 0 1.844l-8.75 8.746a1.3 1.3 0 0 1-1.844 0l-4.165-4.165a1.3 1.3 0 0 1 1.844-1.844l3.242 3.243 7.828-7.824a1.3 1.3 0 0 1 1.845 0zm9.314 5.3A16.693 16.693 0 1 1 16.693 0a16.684 16.684 0 0 1 16.694 16.693zm-2.608 0a14.085 14.085 0 1 0-14.086 14.078 14.077 14.077 0 0 0 14.085-14.085zm0 0" class="cls-1"/>
</svg>
