<svg xmlns="http://www.w3.org/2000/svg" width="37" height="42.423" viewBox="0 0 37 42.423">
    <defs>
        <style>
            .cls-1{fill:#555}
        </style>
    </defs>
    <path id="play-button" d="M45.654 14.776a1.331 1.331 0 1 0-1.409 2.259 4.923 4.923 0 0 1 0 8.355L22.415 39a4.923 4.923 0 0 1-7.528-4.177V7.6a4.923 4.923 0 0 1 7.528-4.177l12.708 7.924a1.331 1.331 0 1 0 1.409-2.259L23.824 1.164A7.585 7.585 0 0 0 12.226 7.6v27.223a7.49 7.49 0 0 0 3.9 6.632 7.491 7.491 0 0 0 7.694-.2l21.834-13.607a7.585 7.585 0 0 0 0-12.872z" class="cls-1" transform="translate(-12.226)"/>
</svg>
