<svg xmlns="http://www.w3.org/2000/svg" id="audio" width="37.857" height="37.816" viewBox="0 0 37.857 37.816">
    <defs>
        <style>
            .cls-1{fill:#d9e7ec}.cls-2{fill:#c5d3dd}.cls-3{fill:#8d9ca8}.cls-4{fill:#7a8c98}.cls-5{fill:#596c76}.cls-6{fill:#465a61}.cls-7{fill:#ea4444}.cls-8{fill:#d93131}.cls-9{fill:#f7c22c}.cls-10{fill:#eeb900}.cls-11{fill:#0396fd}.cls-12{fill:#0077f0}
        </style>
    </defs>
    <path id="Path_139" d="M42.315 38.069H9.377a1.884 1.884 0 0 1-1.885-1.884V9.376a1.884 1.884 0 0 1 1.885-1.884h32.938A1.885 1.885 0 0 1 44.2 9.376v26.809a1.885 1.885 0 0 1-1.885 1.884zm0 0" class="cls-1" data-name="Path 139" transform="translate(-6.938 -6.938)"/>
    <path id="Path_140" d="M452.073 9.377v26.808a1.884 1.884 0 0 1-1.885 1.884h-2.3a1.884 1.884 0 0 0 1.885-1.884V9.377a1.884 1.884 0 0 0-1.885-1.885h2.3a1.884 1.884 0 0 1 1.885 1.885zm0 0" class="cls-2" data-name="Path 140" transform="translate(-414.77 -6.938)"/>
    <path id="Path_141" d="M44.2 379.582H7.492v1.18a1.884 1.884 0 0 0 1.885 1.884h32.938a1.885 1.885 0 0 0 1.885-1.884zm0 0" class="cls-3" data-name="Path 141" transform="translate(-6.938 -351.516)"/>
    <path id="Path_142" d="M451.51 379.582v1.18a1.884 1.884 0 0 1-1.884 1.884h-2.3a1.884 1.884 0 0 0 1.884-1.884v-1.18zm0 0" class="cls-4" data-name="Path 142" transform="translate(-414.249 -351.516)"/>
    <path id="Path_143" d="M44.751 10.7H8.043V9.376a1.884 1.884 0 0 1 1.884-1.884h32.94a1.884 1.884 0 0 1 1.884 1.884zm0 0" class="cls-3" data-name="Path 143" transform="translate(-7.448 -6.938)"/>
    <path id="Path_144" d="M451.549 9.376V10.7H449.2V9.376a1.884 1.884 0 0 0-1.884-1.884h2.344a1.884 1.884 0 0 1 1.889 1.884zm0 0" class="cls-4" data-name="Path 144" transform="translate(-414.246 -6.938)"/>
    <path id="Path_145" d="M186.277 421.031h10.268v3.1h-10.268zm0 0" class="cls-5" data-name="Path 145" transform="translate(-172.504 -389.9)"/>
    <path id="Path_146" d="M301.816 421.652h1.725v3h-1.725zm0 0" class="cls-6" data-name="Path 146" transform="translate(-279.5 -390.475)"/>
    <path id="Path_147" d="M153.574 465.93h-16.923a.369.369 0 0 1-.369-.369v-1.2a1.47 1.47 0 0 1 1.47-1.47h14.722a1.47 1.47 0 0 1 1.47 1.47v1.2a.369.369 0 0 1-.37.369zm0 0" class="cls-3" data-name="Path 147" transform="translate(-126.205 -428.668)"/>
    <path id="Path_148" d="M335.787 464.364v1.2a.369.369 0 0 1-.369.369h-1.3v-1.567a1.47 1.47 0 0 0-1.47-1.47h1.673a1.47 1.47 0 0 1 1.466 1.468zm0 0" class="cls-4" data-name="Path 148" transform="translate(-308.049 -428.668)"/>
    <path id="Path_149" d="M88.589 274.771H61.141a.739.739 0 0 1-.739-.739v-4.579a.739.739 0 0 1 .739-.739h27.448a.739.739 0 0 1 .739.739v4.579a.739.739 0 0 1-.739.739zm0 0" class="cls-7" data-name="Path 149" transform="translate(-55.936 -248.846)"/>
    <path id="Path_150" d="M418.788 269.449v4.579a.738.738 0 0 1-.739.739h-1.881a.738.738 0 0 0 .739-.739v-4.579a.738.738 0 0 0-.739-.739h1.881a.738.738 0 0 1 .739.739zm0 0" class="cls-8" data-name="Path 150" transform="translate(-385.397 -248.843)"/>
    <path id="Path_151" d="M61.141 268.715a.738.738 0 0 0-.739.739v4.578a.738.738 0 0 0 .739.739h5.287v-6.055zm0 0" class="cls-9" data-name="Path 151" transform="translate(-55.936 -248.846)"/>
    <path id="Path_152" d="M115.883 268.711h1.923v6.056h-1.923zm0 0" class="cls-10" data-name="Path 152" transform="translate(-107.314 -248.843)"/>
    <path id="Path_153" d="M273.444 226.095h-1.024a.369.369 0 0 1-.369-.369V224.7a.369.369 0 0 1 .369-.369h1.024a.369.369 0 0 1 .369.369v1.024a.37.37 0 0 1-.369.371zm0 0" class="cls-5" data-name="Path 153" transform="translate(-251.935 -207.745)"/>
    <path id="Path_154" d="M282.075 224.7v1.024a.369.369 0 0 1-.369.369h-.733a.369.369 0 0 0 .369-.369V224.7a.369.369 0 0 0-.369-.369h.733a.369.369 0 0 1 .369.369zm0 0" class="cls-6" data-name="Path 154" transform="translate(-260.198 -207.745)"/>
    <path id="Path_155" d="M74.516 89.273H61.141a.739.739 0 0 1-.739-.739V81a.739.739 0 0 1 .739-.739h13.375a.738.738 0 0 1 .739.739v7.53a.739.739 0 0 1-.739.743zm0 0" class="cls-9" data-name="Path 155" transform="translate(-55.936 -74.331)"/>
    <path id="Path_156" d="M230.981 81v7.53a.738.738 0 0 1-.739.739h-1.68a.738.738 0 0 0 .739-.739V81a.738.738 0 0 0-.739-.739h1.68a.738.738 0 0 1 .739.739zm0 0" class="cls-10" data-name="Path 156" transform="translate(-211.663 -74.331)"/>
    <path id="Path_157" d="M141.253 117.365l-2.45-1.415a.454.454 0 0 0-.682.393v2.83a.454.454 0 0 0 .682.393l2.45-1.415a.454.454 0 0 0 0-.786zm0 0" class="cls-1" data-name="Path 157" transform="translate(-127.908 -107.32)"/>
    <path id="Path_158" d="M141.256 134.342l-2.45 1.415a.454.454 0 0 1-.681-.394v-.368l2.813-1.624.318.184a.454.454 0 0 1 0 .787zm0 0" class="cls-2" data-name="Path 158" transform="translate(-127.912 -123.51)"/>
    <path id="Path_159" d="M394.549 101.394h-1.1a.475.475 0 0 1-.475-.475v-1.565a.475.475 0 0 1 .475-.475h1.1a.475.475 0 0 1 .475.475v1.564a.475.475 0 0 1-.475.476zm0 0" class="cls-11" data-name="Path 159" transform="translate(-363.92 -91.568)"/>
    <path id="Path_160" d="M341.62 156.464h-1.1a.475.475 0 0 1-.475-.475v-1.564a.475.475 0 0 1 .475-.475h1.1a.475.475 0 0 1 .475.475v1.564a.475.475 0 0 1-.475.475zm0 0" class="cls-11" data-name="Path 160" transform="translate(-314.904 -142.566)"/>
    <path id="Path_161" d="M403.045 99.347v1.564a.476.476 0 0 1-.476.476h-.933a.476.476 0 0 0 .476-.476v-1.564a.476.476 0 0 0-.476-.476h.933a.477.477 0 0 1 .476.476zm0 0" class="cls-12" data-name="Path 161" transform="translate(-371.94 -91.561)"/>
    <path id="Path_162" d="M350.115 154.424v1.564a.475.475 0 0 1-.475.475h-.933a.476.476 0 0 0 .476-.475v-1.564a.476.476 0 0 0-.476-.475h.933a.475.475 0 0 1 .475.475zm0 0" class="cls-12" data-name="Path 162" transform="translate(-322.924 -142.566)"/>
    <path id="Path_163" d="M54.2 82.889h8.367a.554.554 0 0 0 0-1.108H54.2a.185.185 0 0 1-.185-.185v-7.53a.185.185 0 0 1 .185-.185h13.378a.185.185 0 0 1 .185.185V81.6a.185.185 0 0 1-.185.185h-2.495a.554.554 0 0 0 0 1.108h2.495A1.294 1.294 0 0 0 68.87 81.6v-7.53a1.294 1.294 0 0 0-1.293-1.293H54.2a1.294 1.294 0 0 0-1.293 1.293v7.53a1.294 1.294 0 0 0 1.293 1.289zm0 0" data-name="Path 163" transform="translate(-48.998 -67.393)"/>
    <path id="Path_164" d="M132.141 108.52a1.008 1.008 0 0 0-1.513.873v2.829a1.006 1.006 0 0 0 1.513.873l2.45-1.415a1.009 1.009 0 0 0 0-1.747zm-.4 3.53v-2.485l2.152 1.242zm0 0" data-name="Path 164" transform="translate(-120.97 -100.369)"/>
    <path id="Path_165" d="M288.952 93.752h6.625v.228a1.031 1.031 0 0 0 1.03 1.029h1.1a1.03 1.03 0 0 0 1.029-1.029v-.228h1.732a.554.554 0 0 0 0-1.108h-1.732v-.228a1.03 1.03 0 0 0-1.029-1.029h-1.1a1.03 1.03 0 0 0-1.03 1.029v.228h-6.625a.554.554 0 0 0 0 1.108zm7.732-1.257h.941V93.9h-.941zm0 0" data-name="Path 165" transform="translate(-267.074 -84.63)"/>
    <path id="Path_166" d="M288.952 148.819h2.711v.228a1.031 1.031 0 0 0 1.029 1.029h1.1a1.031 1.031 0 0 0 1.029-1.029v-.228h5.646a.554.554 0 0 0 0-1.108h-5.647v-.228a1.031 1.031 0 0 0-1.029-1.029h-1.1a1.031 1.031 0 0 0-1.029 1.029v.228h-2.711a.554.554 0 0 0 0 1.108zm3.819-1.258h.941v1.407h-.941zm0 0" data-name="Path 166" transform="translate(-267.074 -135.624)"/>
    <path id="Path_167" d="M35.419 0H2.438A2.441 2.441 0 0 0 0 2.438v26.809a2.441 2.441 0 0 0 2.439 2.438h10.78v1.987h-1.673A2.026 2.026 0 0 0 9.523 35.7v1.2a.925.925 0 0 0 .923.923h16.923a.925.925 0 0 0 .923-.923v-1.2a2.026 2.026 0 0 0-2.024-2.024H24.6v-1.991h10.777a2.441 2.441 0 0 0 2.438-2.438l.042-26.808A2.441 2.441 0 0 0 35.419 0zm-9.15 34.78a.917.917 0 0 1 .916.916v1.013H10.631V35.7a.917.917 0 0 1 .916-.916zm-11.942-1.108v-1.987h9.161v1.987zm22.38-4.426a1.332 1.332 0 0 1-1.331 1.331H2.439a1.332 1.332 0 0 1-1.331-1.331v-.626h35.6zm0-1.734H1.108V4.315h35.6zm0-24.3H1.149v-.774a1.332 1.332 0 0 1 1.331-1.33h32.9a1.332 1.332 0 0 1 1.331 1.33zm0 0" data-name="Path 167"/>
    <path id="Path_168" d="M54.2 227.285h27.451a1.294 1.294 0 0 0 1.292-1.292v-1.182a.554.554 0 1 0-1.108 0v1.182a.185.185 0 0 1-.185.185h-11.1v-4.948h11.1a.185.185 0 0 1 .185.185v.825a.554.554 0 1 0 1.108 0v-.825a1.294 1.294 0 0 0-1.292-1.293h-11.1v-.413a.923.923 0 0 0 .882-.921v-1.024a.924.924 0 0 0-.923-.923h-1.027a.924.924 0 0 0-.923.923v1.024a.924.924 0 0 0 .882.921v.413H54.2a1.294 1.294 0 0 0-1.293 1.293v4.578a1.294 1.294 0 0 0 1.293 1.292zm15.465-9.338h.655v.655h-.655zm-9.621 5.753v-2.474h9.4v4.948h-9.4zm-6.026-2.289a.185.185 0 0 1 .185-.185h4.733v1.92h-4.918zm0 2.843h4.918v1.92H54.2a.185.185 0 0 1-.185-.185zm0 0" data-name="Path 168" transform="translate(-48.998 -200.807)"/>
    <path id="Path_169" d="M79.476 282.8h2.179a.554.554 0 1 0 0-1.108h-2.179a.554.554 0 1 0 0 1.108zm0 0" data-name="Path 169" transform="translate(-73.086 -260.867)"/>
    <path id="Path_170" d="M79.476 323.752h2.179a.554.554 0 1 0 0-1.108h-2.179a.554.554 0 1 0 0 1.108zm0 0" data-name="Path 170" transform="translate(-73.086 -298.788)"/>
</svg>
