<svg xmlns="http://www.w3.org/2000/svg" width="40.566" height="40" viewBox="0 0 40.566 40">
    <defs>
        <style>
            .cls-1{fill:#00c3ff}.cls-2{fill:#91e8ed}.cls-3{fill:#ffea00}.cls-4{fill:#ffdecf}.cls-5{fill:#50575e}.cls-6{fill:#9ccc65}.cls-7{fill:#fff}
        </style>
    </defs>
    <g id="authentication">
        <path id="Path_61" d="M23.212 46.976l6.744-4.494a19.015 19.015 0 0 0 8.468-15.827v-10.1l-15.212-7.61L8 16.551v10.1a19.015 19.015 0 0 0 8.468 15.827zm0 0" class="cls-1" data-name="Path 61" transform="translate(-7.366 -8.237)"/>
        <path id="Path_62" d="M47.339 73.311A16.456 16.456 0 0 1 40 59.594v-8.537l12.677-6.338 12.677 6.338v8.537a16.459 16.459 0 0 1-7.34 13.718l-5.337 3.556zm0 0" class="cls-2" data-name="Path 62" transform="translate(-36.831 -41.176)"/>
        <path id="Path_63" d="M97.1 260.131l-5.055-1.268h-5.073l-5.055 1.268A2.535 2.535 0 0 0 80 262.59v3.9a16.5 16.5 0 0 0 4.169 4l5.338 3.557 5.337-3.556a16.485 16.485 0 0 0 4.171-4v-3.9a2.535 2.535 0 0 0-1.915-2.46zm0 0" class="cls-3" data-name="Path 63" transform="translate(-73.662 -238.354)"/>
        <path id="Path_64" d="M168 232.945v2.535a2.535 2.535 0 1 0 5.071 0v-2.535zm0 0" class="cls-4" data-name="Path 64" transform="translate(-154.689 -214.489)"/>
        <path id="Path_65" d="M159.606 144.945v6.338l-2.535 1.9h-2.535l-2.535-1.9v-6.338zm0 0" class="cls-4" data-name="Path 65" transform="translate(-139.957 -133.461)"/>
        <path id="Path_66" d="M143.606 115.275h-.634c-.444-.634-6.972-1.427-6.972 3.169h3.654a6 6 0 0 0 2.685-.634h.634l1.9 2.535v-3.8a1.268 1.268 0 0 0-1.267-1.27zm0 0" class="cls-5" data-name="Path 66" transform="translate(-125.225 -105.693)"/>
        <path id="Path_67" d="M268.283 251.087a10.141 10.141 0 1 1-10.141-10.141 10.142 10.142 0 0 1 10.141 10.141zm0 0" class="cls-6" data-name="Path 67" transform="translate(-228.351 -221.855)"/>
        <path id="Path_68" d="M295.525 295.406l-6.275 6.275-2.241-2.241-2.689 2.689 2.241 2.241 2.241 2.241.448.448 8.964-8.964zm0 0" class="cls-7" data-name="Path 68" transform="translate(-261.794 -272.001)"/>
        <path id="Path_69" d="M31.688 18.634V7.922L15.846 0 0 7.923v10.5a19.621 19.621 0 0 0 8.75 16.348l7.1 4.728 5.466-3.641a10.766 10.766 0 1 0 10.372-17.224zM15.846 37.978l-6.392-4.26a18.354 18.354 0 0 1-8.186-15.3V8.706l14.578-7.289 14.578 7.289v9.782c-.21-.013-.419-.032-.634-.032s-.424.019-.634.032v-9l-13.31-6.655L2.535 9.489v8.929a17.094 17.094 0 0 0 7.622 14.243l5.689 3.79 4.147-2.763a10.741 10.741 0 0 0 .6 1.126zm3.672-5.5l-3.672 2.447-4.985-3.322a16.729 16.729 0 0 1-.72-.513v-5.662H8.874v4.6a15.834 15.834 0 0 1-1.9-2.111v-3.681a1.9 1.9 0 0 1 1.436-1.844l4.3-1.078a3.166 3.166 0 0 0 2.5 2.783v2.6h1.27V24.1a3.164 3.164 0 0 0 2.5-2.783l2.822.709a10.72 10.72 0 0 0-2.286 10.458zm-6.842-19.1h1.752a6.676 6.676 0 0 0 2.83-.634h.172l1.585 2.113v2.641L16.9 19.09h-2.111l-2.113-1.585zm-1.215-1.268a2.48 2.48 0 0 1 1.358-1.832 6.4 6.4 0 0 1 4.451-.28l.146.21h.965a.634.634 0 0 1 .634.634v1.9l-.951-1.268h-1.1l-.134.067a5.4 5.4 0 0 1-2.4.567zm6.286 7.923v.951a1.9 1.9 0 0 1-3.8 0v-.951l.423.317h2.958zm1.268-.025v-.918l1.268-.951V10.85a1.9 1.9 0 0 0-1.9-1.9h-.423a7.261 7.261 0 0 0-4.817-.164 3.944 3.944 0 0 0-3 3.967v.634h1.268v4.754l1.268.951v.923L8.1 21.163a3.164 3.164 0 0 0-2.4 3.073v1.711a15.829 15.829 0 0 1-1.9-7.529v-8.146l12.046-6.021 12.043 6.021V18.635a10.725 10.725 0 0 0-5.015 2.349zM29.79 38.739a9.508 9.508 0 1 1 9.51-9.508 9.508 9.508 0 0 1-9.51 9.508zm0 0" data-name="Path 69"/>
        <path id="Path_70" d="M416 136.945h7.606v1.268H416zm0 0" data-name="Path 70" transform="translate(-383.04 -126.095)"/>
        <path id="Path_71" d="M416 168.945h5.071v1.268H416zm0 0" data-name="Path 71" transform="translate(-383.04 -155.56)"/>
        <path id="Path_72" d="M416 200.945h2.535v1.268H416zm0 0" data-name="Path 72" transform="translate(-383.04 -185.024)"/>
        <path id="Path_73" d="M278.834 290.372l-2.24-2.241-3.586 3.585 5.826 5.826 9.86-9.86-3.586-3.585zm0 5.378l-4.034-4.034 1.793-1.793 2.24 2.24 6.275-6.275 1.793 1.793zm0 0" data-name="Path 73" transform="translate(-251.378 -261.589)"/>
    </g>
</svg>
