<svg xmlns="http://www.w3.org/2000/svg" width="45.379" height="47.352" viewBox="0 0 45.379 47.352">
    <defs>
        <style>
            .cls-1{fill:#64b5f6}.cls-2{fill:#42a5f5}.cls-3{fill:#2196f3}.cls-4{fill:#1976d2}.cls-5{fill:#455a64}
        </style>
    </defs>
    <g id="bar-chart" transform="translate(-10.666)">
        <path id="Path_450" d="M19.921 277.391a.987.987 0 0 0-1.075.213l-3.247 3.25-3.248-3.25a.987.987 0 0 0-1.685.7v19.73a.987.987 0 0 0 .987.987h7.892a.987.987 0 0 0 .987-.987V278.3a.986.986 0 0 0-.611-.909z" class="cls-1" data-name="Path 450" transform="translate(0 -251.667)"/>
        <path id="Path_451" d="M144.3 192.281a.987.987 0 0 0-1.395 0l-3.946 3.946a.987.987 0 0 0-.29.7V220.6a.987.987 0 0 0 .987.987h7.892a.987.987 0 0 0 .987-.987v-23.675a.986.986 0 0 0-.288-.7z" class="cls-2" data-name="Path 451" transform="translate(-116.162 -174.236)"/>
        <path id="Path_452" d="M272.3 149.614a.987.987 0 0 0-1.395 0l-3.946 3.946a.987.987 0 0 0-.29.7v27.62a.987.987 0 0 0 .987.987h7.892a.987.987 0 0 0 .987-.987v-27.622a.986.986 0 0 0-.288-.7z" class="cls-3" data-name="Path 452" transform="translate(-232.324 -135.515)"/>
        <path id="Path_453" d="M404.243 108.928l-1.973-1.973a.987.987 0 0 0-.7-.288h-1.97a.986.986 0 0 0-.7.288l-3.946 3.946a.987.987 0 0 0-.288.7v31.568a.987.987 0 0 0 .987.987h7.892a.987.987 0 0 0 .987-.987v-33.543a.987.987 0 0 0-.289-.698z" class="cls-4" data-name="Path 453" transform="translate(-348.486 -96.802)"/>
        <path id="Path_454" d="M55.187 0h-5.919a.986.986 0 0 0-.7 1.685l2.263 2.261-7.482 7.484L40.1 8.18a.987.987 0 0 0-1.395 0l-7.2 7.2-3.248-3.25a.987.987 0 0 0-1.395 0L15.727 23.267l-3.248-3.25a.986.986 0 0 0-1.395 1.395l3.946 3.946a.987.987 0 0 0 1.395 0l11.14-11.139 3.248 3.248a.987.987 0 0 0 1.395 0l7.2-7.193 3.248 3.248a.987.987 0 0 0 1.395 0l8.182-8.18L54.489 7.6a.987.987 0 0 0 .7.29.974.974 0 0 0 .377-.075.987.987 0 0 0 .61-.912V.987A.987.987 0 0 0 55.187 0z" class="cls-5" data-name="Path 454" transform="translate(-.129)"/>
    </g>
</svg>
