<svg xmlns="http://www.w3.org/2000/svg" width="61" height="59.661" viewBox="0 0 61 59.661">
    <defs>
        <style>
            .cls-1{fill:#3a556a}.cls-2{fill:#e1e6e9}.cls-3{fill:#fcd462}.cls-4{fill:#27a2db}.cls-5{fill:#44c4a1}.cls-6{fill:#1c75a1}
        </style>
    </defs>
    <g id="browser" transform="translate(0 -5.139)">
        <path id="Path_562" d="M50.145 13.5H0V6.766a1.627 1.627 0 0 1 1.627-1.627h46.891a1.627 1.627 0 0 1 1.627 1.627z" class="cls-1" data-name="Path 562"/>
        <path id="Path_563" d="M48.518 109.415H1.627A1.627 1.627 0 0 1 0 107.788V69.3h50.145v38.489a1.627 1.627 0 0 1-1.627 1.626z" class="cls-2" data-name="Path 563" transform="translate(0 -55.802)"/>
        <circle id="Ellipse_36" cx="2.09" cy="2.09" r="2.09" class="cls-3" data-name="Ellipse 36" transform="translate(3.343 7.228)"/>
        <circle id="Ellipse_37" cx="2.09" cy="2.09" r="2.09" class="cls-4" data-name="Ellipse 37" transform="translate(10.029 7.228)"/>
        <circle id="Ellipse_38" cx="2.09" cy="2.09" r="2.09" class="cls-5" data-name="Ellipse 38" transform="translate(16.715 7.228)"/>
        <path id="Path_564" d="M219.056 202.48l3.7-.911V196.9l-3.7-.911a14.941 14.941 0 0 0-2.01-4.84l1.977-3.268-3.3-3.3-3.269 1.978a14.938 14.938 0 0 0-4.839-2.01l-.911-3.7h-4.664l-.911 3.7a14.941 14.941 0 0 0-4.84 2.01l-3.269-1.978-3.3 3.3 1.978 3.268a14.94 14.94 0 0 0-2.01 4.839l-3.7.911v4.665l3.7.911a14.94 14.94 0 0 0 2.01 4.839l-1.977 3.268 3.3 3.3 3.268-1.977a14.939 14.939 0 0 0 4.84 2.01l.911 3.7h4.665l.911-3.7a14.938 14.938 0 0 0 4.84-2.01l3.268 1.977 3.3-3.3-1.977-3.268a14.942 14.942 0 0 0 2.009-4.834z" class="cls-4" data-name="Path 564" transform="translate(-161.759 -152.823)"/>
        <circle id="Ellipse_39" cx="11.701" cy="11.701" r="11.701" class="cls-2" data-name="Ellipse 39" transform="translate(30.913 34.713)"/>
        <circle id="Ellipse_40" cx="6.686" cy="6.686" r="6.686" class="cls-6" data-name="Ellipse 40" transform="translate(35.928 39.728)"/>
        <g id="Group_84" data-name="Group 84" transform="translate(6.629 20.348)">
            <path id="Path_565" d="M53.282 128.494l-.855 1.942h-1.538l3.761-8.536h1.539l3.761 8.535h-1.539l-.855-1.942zm3.688-1.33l-1.551-3.517-1.551 3.517z" class="cls-1" data-name="Path 565" transform="translate(-50.889 -121.901)"/>
            <path id="Path_566" d="M135.3 122.646a2.823 2.823 0 0 1 .891 2.3 2.722 2.722 0 0 1-.91 2.272 4.463 4.463 0 0 1-2.79.72h-1.514v2.5h-1.441V121.9h2.93a4.391 4.391 0 0 1 2.834.746zm-1.02 3.523a1.883 1.883 0 0 0 .433-1.342 1.393 1.393 0 0 0-.55-1.252 3.164 3.164 0 0 0-1.722-.366h-1.465v3.418h1.673a2.228 2.228 0 0 0 1.633-.458z" class="cls-1" data-name="Path 566" transform="translate(-119.293 -121.902)"/>
            <path id="Path_567" d="M193.656 121.9h1.444v8.535h-1.441z" class="cls-1" data-name="Path 567" transform="translate(-175.059 -121.902)"/>
        </g>
        <path id="Path_568" d="M208.019 27.984h-19.263a1.627 1.627 0 0 1-1.627-1.627 1.627 1.627 0 0 1 1.627-1.627h19.263a1.627 1.627 0 0 1 1.627 1.627 1.627 1.627 0 0 1-1.627 1.627z" class="cls-2" data-name="Path 568" transform="translate(-162.754 -17.04)"/>
    </g>
</svg>
