<svg xmlns="http://www.w3.org/2000/svg" id="calendar_4_" width="39.262" height="37.308" data-name="calendar (4)" viewBox="0 0 39.262 37.308">
    <defs>
        <style>
            .cls-1{fill:#d0f4ef}.cls-2{fill:#abe0da}.cls-3{fill:#f72b2b}.cls-4{fill:#d61b1f}.cls-5{fill:#ffbd47}
        </style>
    </defs>
    <path id="Path_171" d="M44.52 68.788H8.5a1 1 0 0 1-1-1V38.17a3.162 3.162 0 0 1 3.162-3.162h31.693a3.162 3.162 0 0 1 3.161 3.162v29.621a1 1 0 0 1-.996.997zm0 0" class="cls-1" data-name="Path 171" transform="translate(-6.878 -32.103)"/>
    <path id="Path_172" d="M397.293 38.173v29.621a1 1 0 0 1-1 1h-3.023a1 1 0 0 0 1-1V38.173a3.161 3.161 0 0 0-3.161-3.162h3.023a3.161 3.161 0 0 1 3.161 3.162zm0 0" class="cls-2" data-name="Path 172" transform="translate(-358.654 -32.106)"/>
    <path id="Path_173" d="M45.513 38.173v4.835H7.5v-4.835a3.162 3.162 0 0 1 3.163-3.162h31.689a3.161 3.161 0 0 1 3.161 3.162zm0 0" class="cls-3" data-name="Path 173" transform="translate(-6.874 -32.106)"/>
    <path id="Path_174" d="M397.289 38.173v4.835h-3.022v-4.835a3.162 3.162 0 0 0-3.162-3.162h3.023a3.161 3.161 0 0 1 3.161 3.162zm0 0" class="cls-4" data-name="Path 174" transform="translate(-358.65 -32.106)"/>
    <path id="Path_175" d="M142.766 263.173a1.824 1.824 0 0 1-1.293-.535l-3.2-3.2a1.829 1.829 0 0 1 2.586-2.586l1.907 1.907 7.47-7.47a1.829 1.829 0 1 1 2.586 2.586l-8.763 8.763a1.824 1.824 0 0 1-1.293.535zm0 0" class="cls-3" data-name="Path 175" transform="translate(-126.307 -229.945)"/>
    <g id="Group_49" data-name="Group 49" transform="translate(5.366 .622)">
        <path id="Path_176" d="M66.71 12.3h-1.156a.889.889 0 0 1-.889-.889V8.389a.89.89 0 0 1 .889-.889h1.156a.889.889 0 0 1 .889.889v3.024a.889.889 0 0 1-.889.887zm0 0" class="cls-5" data-name="Path 176" transform="translate(-64.664 -7.5)"/>
        <path id="Path_177" d="M166.823 12.3h-1.156a.889.889 0 0 1-.889-.889V8.389a.889.889 0 0 1 .889-.889h1.156a.89.89 0 0 1 .889.889v3.024a.889.889 0 0 1-.889.887zm0 0" class="cls-5" data-name="Path 177" transform="translate(-156.47 -7.5)"/>
        <path id="Path_178" d="M266.932 12.3h-1.156a.889.889 0 0 1-.889-.889V8.389a.889.889 0 0 1 .889-.889h1.156a.889.889 0 0 1 .889.889v3.024a.889.889 0 0 1-.889.887zm0 0" class="cls-5" data-name="Path 178" transform="translate(-248.272 -7.5)"/>
        <path id="Path_179" d="M367.042 12.3h-1.156a.889.889 0 0 1-.889-.889V8.389a.889.889 0 0 1 .889-.889h1.156a.889.889 0 0 1 .889.889v3.024a.889.889 0 0 1-.889.887zm0 0" class="cls-5" data-name="Path 179" transform="translate(-340.074 -7.5)"/>
    </g>
    <path id="Path_182" d="M.622 30.275a.622.622 0 0 0 .622-.622V11.526h36.773v6.841a.622.622 0 0 0 1.245 0v-12.3a3.788 3.788 0 0 0-3.784-3.784h-1.632v-.771A1.513 1.513 0 0 0 32.334 0h-1.156a1.513 1.513 0 0 0-1.512 1.512v.771h-4.128v-.771A1.513 1.513 0 0 0 24.026 0H22.87a1.513 1.513 0 0 0-1.512 1.512v.771h-4.127v-.771A1.513 1.513 0 0 0 15.719 0h-1.156a1.513 1.513 0 0 0-1.512 1.512v.771H8.923v-.771A1.513 1.513 0 0 0 7.411 0H6.255a1.513 1.513 0 0 0-1.511 1.512v.771h-.96A3.788 3.788 0 0 0 0 6.067v23.585a.622.622 0 0 0 .622.623zM30.911 1.512a.268.268 0 0 1 .267-.267h1.156a.267.267 0 0 1 .267.267v3.024a.267.267 0 0 1-.267.267h-1.156a.267.267 0 0 1-.267-.267zm-8.307 0a.267.267 0 0 1 .267-.267h1.156a.268.268 0 0 1 .267.267v3.024a.268.268 0 0 1-.267.267H22.87a.267.267 0 0 1-.267-.267zm-8.308 0a.268.268 0 0 1 .267-.267h1.156a.268.268 0 0 1 .267.267v3.024a.268.268 0 0 1-.267.267h-1.156a.267.267 0 0 1-.267-.267zm-8.307 0a.268.268 0 0 1 .267-.267h1.156a.267.267 0 0 1 .267.267v3.024a.267.267 0 0 1-.267.267H6.255a.267.267 0 0 1-.267-.267zm-2.2 2.016h.959v1.008a1.513 1.513 0 0 0 1.507 1.511h1.157a1.513 1.513 0 0 0 1.511-1.511V3.527h4.128v1.009a1.513 1.513 0 0 0 1.512 1.512h1.156a1.513 1.513 0 0 0 1.512-1.512V3.527h4.128v1.009a1.513 1.513 0 0 0 1.512 1.512h1.156a1.513 1.513 0 0 0 1.512-1.512V3.527h4.128v1.009a1.513 1.513 0 0 0 1.512 1.512h1.156a1.513 1.513 0 0 0 1.512-1.512V3.527h1.632a2.542 2.542 0 0 1 2.539 2.539v4.214H1.245V6.067a2.542 2.542 0 0 1 2.539-2.54zm0 0" data-name="Path 182"/>
    <path id="Path_183" d="M7.046 388.208H1.619a.375.375 0 0 1-.374-.374v-3.2a.622.622 0 1 0-1.245 0v3.2a1.621 1.621 0 0 0 1.619 1.619h5.427a.622.622 0 0 0 0-1.245zm0 0" data-name="Path 183" transform="translate(0 -352.145)"/>
    <path id="Path_184" d="M53.876 160.762h-2.164a.622.622 0 0 0 0 1.245h2.163a.622.622 0 0 0 0-1.245zm0 0" data-name="Path 184" transform="translate(-46.85 -147.421)"/>
    <path id="Path_185" d="M131.829 162.006h2.163a.622.622 0 0 0 0-1.245h-2.163a.622.622 0 1 0 0 1.245zm0 0" data-name="Path 185" transform="translate(-120.319 -147.421)"/>
    <path id="Path_186" d="M211.947 162.006h2.163a.622.622 0 1 0 0-1.245h-2.163a.622.622 0 1 0 0 1.245zm0 0" data-name="Path 186" transform="translate(-193.788 -147.421)"/>
    <path id="Path_187" d="M292.06 162.006h2.163a.622.622 0 1 0 0-1.245h-2.163a.622.622 0 1 0 0 1.245zm0 0" data-name="Path 187" transform="translate(-267.253 -147.421)"/>
    <path id="Path_188" d="M374.34 160.762h-2.163a.622.622 0 0 0 0 1.245h2.163a.622.622 0 0 0 0-1.245zm0 0" data-name="Path 188" transform="translate(-340.722 -147.421)"/>
    <path id="Path_189" d="M53.876 198.477h-2.164a.622.622 0 0 0 0 1.245h2.163a.622.622 0 1 0 0-1.245zm0 0" data-name="Path 189" transform="translate(-46.85 -182.006)"/>
    <path id="Path_190" d="M131.829 199.721h2.163a.622.622 0 0 0 0-1.245h-2.163a.622.622 0 1 0 0 1.245zm0 0" data-name="Path 190" transform="translate(-120.319 -182.006)"/>
    <path id="Path_191" d="M211.947 199.721h2.163a.622.622 0 1 0 0-1.245h-2.163a.622.622 0 1 0 0 1.245zm0 0" data-name="Path 191" transform="translate(-193.788 -182.006)"/>
    <path id="Path_192" d="M292.06 199.721h2.163a.622.622 0 1 0 0-1.245h-2.163a.622.622 0 1 0 0 1.245zm0 0" data-name="Path 192" transform="translate(-267.253 -182.006)"/>
    <path id="Path_193" d="M374.34 198.477h-2.163a.622.622 0 1 0 0 1.245h2.163a.622.622 0 0 0 0-1.245zm0 0" data-name="Path 193" transform="translate(-340.722 -182.006)"/>
    <path id="Path_194" d="M130.97 253.012l3.2 3.2a2.451 2.451 0 0 0 3.466 0l8.763-8.763a2.451 2.451 0 0 0-3.466-3.466l-7.03 7.03-1.467-1.467a2.451 2.451 0 1 0-3.466 3.466zm.88-2.586a1.207 1.207 0 0 1 1.706 0l1.907 1.907a.622.622 0 0 0 .88 0l7.47-7.47a1.206 1.206 0 1 1 1.706 1.706l-8.763 8.763a1.206 1.206 0 0 1-1.706 0l-3.2-3.2a1.207 1.207 0 0 1 0-1.706zm0 0" data-name="Path 194" transform="translate(-119.445 -223.079)"/>
</svg>
