<svg xmlns="http://www.w3.org/2000/svg" id="call-answer" width="26.212" height="26.153" viewBox="0 0 26.212 26.153">
    <defs>
        <style>
            .cls-1{fill:#bfbfbf}
        </style>
    </defs>
    <g id="Group_24" data-name="Group 24">
        <g id="Group_23" data-name="Group 23">
            <path id="Path_35" d="M25.624 21.079l-4.048-4.048a2.111 2.111 0 0 0-2.976.056l-2.039 2.039-.4-.224a20.3 20.3 0 0 1-4.905-3.548A20.408 20.408 0 0 1 7.7 10.44c-.076-.137-.148-.268-.219-.393L8.847 8.68l.673-.674a2.109 2.109 0 0 0 .054-2.976L5.526.981a2.108 2.108 0 0 0-2.976.056L1.41 2.184l.031.031A6.6 6.6 0 0 0 .5 3.874a6.875 6.875 0 0 0-.418 1.682c-.535 4.431 1.49 8.481 6.986 13.977 7.6 7.6 13.718 7.022 13.982 6.994a6.84 6.84 0 0 0 1.687-.424 6.575 6.575 0 0 0 1.652-.936l.025.022 1.156-1.132a2.113 2.113 0 0 0 .054-2.978z" class="cls-1" data-name="Path 35" transform="translate(0 -.394)"/>
        </g>
    </g>
</svg>
