<svg xmlns="http://www.w3.org/2000/svg" width="46.357" height="37.167" viewBox="0 0 46.357 37.167">
    <defs>
        <style>
            .cls-1{fill:#9b8ccc}.cls-2{fill:#ffba00}.cls-3{fill:#1e0478}
        </style>
    </defs>
    <g id="chat" transform="translate(0 -50.753)">
        <path id="Path_240" d="M56.1 75.333V86.1H43.949a2.613 2.613 0 0 0-2.61 2.61v5.7h-5.683a1.082 1.082 0 0 0-.7.316l-6.172 6.172s0-5.468-.005-5.5a1.1 1.1 0 0 0-1.089-1h-3.11a.423.423 0 0 1-.423-.423V75.333a.424.424 0 0 1 .423-.423h31.1a.423.423 0 0 1 .42.423zm-4.927 5.714a1.093 1.093 0 0 0-1.094-1.094h-19.9a1.094 1.094 0 1 0 0 2.187h19.9a1.094 1.094 0 0 0 1.095-1.093zm-12.35 7.23a1.094 1.094 0 0 0-1.094-1.094h-7.552a1.094 1.094 0 0 0 0 2.187h7.553a1.094 1.094 0 0 0 1.094-1.093z" class="cls-1" data-name="Path 240" transform="translate(-21.97 -21.97)"/>
        <path id="Path_241" d="M260.69 223.075V235.8a.424.424 0 0 1-.423.423h-1.845a1.094 1.094 0 0 0-1.089 1.009v3.286l-3.971-3.971-.012-.012-.045-.04a1.085 1.085 0 0 0-.72-.272H238.5a.424.424 0 0 1-.423-.423v-12.725a.424.424 0 0 1 .423-.423h21.768a.423.423 0 0 1 .422.423zm-5.132 6.364a1.094 1.094 0 1 0-1.094 1.094 1.094 1.094 0 0 0 1.094-1.094zm-5.081 0a1.094 1.094 0 1 0-1.094 1.094 1.094 1.094 0 0 0 1.094-1.094zm-5.082 0a1.094 1.094 0 1 0-1.094 1.094 1.094 1.094 0 0 0 1.099-1.094z" class="cls-2" data-name="Path 241" transform="translate(-216.52 -156.335)"/>
        <g id="Group_52" data-name="Group 52" transform="translate(0 50.753)">
            <path id="Path_242" d="M408.1 285.531a1.094 1.094 0 1 1-1.1 1.094 1.094 1.094 0 0 1 1.1-1.094z" class="cls-3" data-name="Path 242" transform="translate(-370.153 -264.274)"/>
            <path id="Path_243" d="M19.369 74.631h-5.157L6.494 82.35a1.1 1.1 0 0 1-.774.32 1.08 1.08 0 0 1-.418-.084 1.091 1.091 0 0 1-.675-1.009v-6.946H2.61A2.612 2.612 0 0 1 0 72.02V53.363a2.613 2.613 0 0 1 2.61-2.61h31.1a2.614 2.614 0 0 1 2.61 2.61V64.13h7.429a2.612 2.612 0 0 1 2.61 2.61v12.728a2.613 2.613 0 0 1-2.61 2.61H43v4.748a1.093 1.093 0 0 1-1.867.773l-5.522-5.522H21.979a2.614 2.614 0 0 1-2.61-2.61zm14.762-10.5V53.363a.424.424 0 0 0-.423-.423H2.61a.424.424 0 0 0-.423.423V72.02a.423.423 0 0 0 .423.423h3.11a1.1 1.1 0 0 1 1.089 1l.005 5.5 6.172-6.172a1.083 1.083 0 0 1 .7-.316h5.683v-5.7a2.613 2.613 0 0 1 2.61-2.61zM44.17 79.468V66.74a.423.423 0 0 0-.423-.423H21.979a.424.424 0 0 0-.423.423v12.727a.424.424 0 0 0 .423.423h14.082a1.084 1.084 0 0 1 .72.272l.045.04.012.012 3.971 3.971v-3.286a1.094 1.094 0 0 1 1.091-1.008h1.845a.424.424 0 0 0 .425-.423z" class="cls-3" data-name="Path 243" transform="translate(0 -50.753)"/>
            <path id="Path_244" d="M351.982 285.531a1.094 1.094 0 1 1-1.094 1.094 1.094 1.094 0 0 1 1.094-1.094z" class="cls-3" data-name="Path 244" transform="translate(-319.118 -264.274)"/>
            <path id="Path_245" d="M99.567 130.615a1.094 1.094 0 1 1 0 2.187h-19.9a1.094 1.094 0 0 1 0-2.187z" class="cls-3" data-name="Path 245" transform="translate(-71.456 -123.384)"/>
            <path id="Path_246" d="M295.854 285.531a1.094 1.094 0 1 1-1.094 1.094 1.094 1.094 0 0 1 1.094-1.094z" class="cls-3" data-name="Path 246" transform="translate(-268.072 -264.274)"/>
            <path id="Path_247" d="M87.217 210.465a1.094 1.094 0 1 1 0 2.187h-7.553a1.094 1.094 0 1 1 0-2.187z" class="cls-3" data-name="Path 247" transform="translate(-71.456 -196.004)"/>
        </g>
    </g>
</svg>
