<svg xmlns="http://www.w3.org/2000/svg" width="49.895" height="57.571" viewBox="0 0 49.895 57.571">
    <defs>
        <style>
            .cls-1{fill:#4891d3}.cls-2{fill:#57b7eb}.cls-3{fill:#f9e109}.cls-4{fill:#fcbc04}.cls-5{fill:#a1d51c}.cls-6{fill:#c4f236}.cls-7{fill:#39519d}
        </style>
    </defs>
    <g id="chat_1_" data-name="chat (1)" transform="translate(-.5)">
        <path id="Path_569" d="M12.338 8h28.785a3.838 3.838 0 0 1 3.838 3.838v47.976a3.838 3.838 0 0 1-3.838 3.838H12.338A3.838 3.838 0 0 1 8.5 59.814V11.838A3.838 3.838 0 0 1 12.338 8zm0 0" class="cls-1" data-name="Path 569" transform="translate(-7.04 -7.04)"/>
        <path id="Path_570" d="M72.5 8h24.947a3.838 3.838 0 0 1 3.838 3.838v42.219H87.852A15.352 15.352 0 0 1 72.5 38.7zm0 0" class="cls-2" data-name="Path 570" transform="translate(-63.364 -7.04)"/>
        <path id="Path_571" d="M60.338 144h19.19a3.838 3.838 0 0 1 3.838 3.838v7.676a3.838 3.838 0 0 1-3.838 3.838H68.014l-7.676 7.676v-7.676a3.838 3.838 0 0 1-3.838-3.838v-7.676A3.838 3.838 0 0 1 60.338 144zm0 0" class="cls-3" data-name="Path 571" transform="translate(-49.283 -126.729)"/>
        <path id="Path_572" d="M73.771 149.757a3.838 3.838 0 0 0-3.838 3.838h-2.878a6.716 6.716 0 0 1-6.717-6.717V144a3.838 3.838 0 0 0-3.838 3.838v7.676a3.838 3.838 0 0 0 3.838 3.838v7.676l7.676-7.676h11.514a3.838 3.838 0 0 0 3.838-3.838v-5.757zm0 0" class="cls-4" data-name="Path 572" transform="translate(-49.283 -126.729)"/>
        <path id="Path_573" d="M207.528 192h-19.19a3.838 3.838 0 0 0-3.838 3.838v7.676a3.838 3.838 0 0 0 3.838 3.838h11.514l7.676 7.676v-7.676a3.838 3.838 0 0 0 3.838-3.838v-7.676a3.838 3.838 0 0 0-3.838-3.838zm0 0" class="cls-5" data-name="Path 573" transform="translate(-161.931 -168.972)"/>
        <path id="Path_574" d="M232.5 192h17.271a3.838 3.838 0 0 1 3.838 3.838v6.717h-13.433a7.676 7.676 0 0 1-7.676-7.676zm0 0" class="cls-6" data-name="Path 574" transform="translate(-204.174 -168.972)"/>
        <g id="Group_85" data-name="Group 85" transform="translate(.5)">
            <path id="Path_575" d="M200.488 184H181.3a4.8 4.8 0 0 0-4.8 4.8v7.676a4.8 4.8 0 0 0 4.8 4.8h3.838a.96.96 0 1 0 0-1.919H181.3a2.879 2.879 0 0 1-2.879-2.879V188.8a2.879 2.879 0 0 1 2.879-2.879h19.19a2.879 2.879 0 0 1 2.879 2.879v7.676a2.879 2.879 0 0 1-2.879 2.879.96.96 0 0 0-.959.96v5.364l-6.035-6.045a.96.96 0 0 0-.681-.278h-3.838a.96.96 0 0 0 0 1.919h3.445l7.388 7.4a.96.96 0 0 0 .681.278.8.8 0 0 0 .365-.077.959.959 0 0 0 .6-.883v-6.813a4.8 4.8 0 0 0 3.838-4.7v-7.68a4.8 4.8 0 0 0-4.806-4.8zm0 0" class="cls-7" data-name="Path 575" transform="translate(-155.391 -161.931)"/>
            <path id="Path_576" d="M245.3 225.919a.96.96 0 0 0 0-1.919h-3.84a.96.96 0 0 0 0 1.919zm0 0" class="cls-7" data-name="Path 576" transform="translate(-211.715 -197.134)"/>
            <path id="Path_577" d="M312.176 224h-6.717a.96.96 0 0 0 0 1.919h6.717a.96.96 0 0 0 0-1.919zm0 0" class="cls-7" data-name="Path 577" transform="translate(-268.039 -197.134)"/>
            <path id="Path_578" d="M216.5 264.959a.96.96 0 0 0 .96.96h5.757a.96.96 0 1 0 0-1.919h-5.757a.96.96 0 0 0-.96.959zm0 0" class="cls-7" data-name="Path 578" transform="translate(-190.593 -232.336)"/>
            <path id="Path_579" d="M298.419 264.959a.96.96 0 1 1-.96-.959.96.96 0 0 1 .96.959zm0 0" class="cls-7" data-name="Path 579" transform="translate(-260.998 -232.336)"/>
            <path id="Path_580" d="M330.419 264.959a.96.96 0 1 1-.96-.959.96.96 0 0 1 .96.959zm0 0" class="cls-7" data-name="Path 580" transform="translate(-289.16 -232.336)"/>
            <path id="Path_581" d="M362.419 264.959a.96.96 0 1 1-.96-.959.96.96 0 0 1 .96.959zm0 0" class="cls-7" data-name="Path 581" transform="translate(-317.322 -232.336)"/>
            <path id="Path_582" d="M126.257 176h-4.8a.96.96 0 1 0 0 1.919h4.8a.96.96 0 1 0 0-1.919zm0 0" class="cls-7" data-name="Path 582" transform="translate(-106.107 -154.891)"/>
            <path id="Path_583" d="M97.46 216a.96.96 0 1 0 0 1.919h1.919a.96.96 0 1 0 0-1.919zm0 0" class="cls-7" data-name="Path 583" transform="translate(-84.986 -190.093)"/>
            <path id="Path_584" d="M146.419 216.959a.96.96 0 1 1-.96-.96.96.96 0 0 1 .96.96zm0 0" class="cls-7" data-name="Path 584" transform="translate(-127.229 -190.093)"/>
            <path id="Path_585" d="M74.963 139.358a.959.959 0 0 0 1.66-.96 4.8 4.8 0 0 0-4.136-2.4H53.3a4.8 4.8 0 0 0-4.8 4.8v7.676a4.8 4.8 0 0 0 3.838 4.7v6.813a.959.959 0 0 0 .6.883.8.8 0 0 0 .364.077.96.96 0 0 0 .681-.278l7.676-7.676a.963.963 0 0 0-1.362-1.362l-6.035 6.045v-5.364a.96.96 0 0 0-.96-.96 2.879 2.879 0 0 1-2.879-2.879V140.8a2.879 2.879 0 0 1 2.879-2.879h19.19a2.878 2.878 0 0 1 2.471 1.437zm0 0" class="cls-7" data-name="Path 585" transform="translate(-42.743 -119.688)"/>
            <path id="Path_586" d="M113.46 432a.96.96 0 1 0 0 1.919h9.6a.96.96 0 1 0 0-1.919zm0 0" class="cls-7" data-name="Path 586" transform="translate(-99.067 -380.186)"/>
            <path id="Path_587" d="M42.419 32.96a.96.96 0 1 1-.96-.96.96.96 0 0 1 .96.96zm0 0" class="cls-7" data-name="Path 587" transform="translate(-35.702 -28.162)"/>
            <path id="Path_588" d="M74.419 32.96a.96.96 0 1 1-.96-.96.96.96 0 0 1 .96.96zm0 0" class="cls-7" data-name="Path 588" transform="translate(-63.864 -28.162)"/>
            <path id="Path_589" d="M216.176 33.919a.96.96 0 1 0 0-1.919h-6.716a.96.96 0 0 0 0 1.919zm0 0" class="cls-7" data-name="Path 589" transform="translate(-183.553 -28.162)"/>
            <path id="Path_590" d="M57.46 400a.959.959 0 1 0 0 1.919h23.028a.959.959 0 1 0 0-1.919zm0 0" class="cls-7" data-name="Path 590" transform="translate(-49.783 -352.024)"/>
            <path id="Path_591" d="M56.5 64.96a.96.96 0 0 0 .96.96h23.028a.96.96 0 0 0 0-1.919H57.46a.96.96 0 0 0-.96.959zm0 0" class="cls-7" data-name="Path 591" transform="translate(-49.783 -56.324)"/>
            <path id="Path_592" d="M37.921 43.178a.96.96 0 0 0-.96.96v8.636a2.879 2.879 0 0 1-2.879 2.879H5.3a2.879 2.879 0 0 1-2.879-2.879V4.8A2.879 2.879 0 0 1 5.3 1.919h28.783A2.879 2.879 0 0 1 36.961 4.8v14.39a.96.96 0 0 0 1.919 0V4.8a4.8 4.8 0 0 0-4.8-4.8H5.3A4.8 4.8 0 0 0 .5 4.8v47.973a4.8 4.8 0 0 0 4.8 4.8h28.783a4.8 4.8 0 0 0 4.8-4.8v-8.635a.96.96 0 0 0-.962-.96zm0 0" class="cls-7" data-name="Path 592" transform="translate(-.5)"/>
        </g>
    </g>
</svg>
