<svg xmlns="http://www.w3.org/2000/svg" width="42.594" height="52.18" viewBox="0 0 42.594 52.18">
    <defs>
        <style>
            .cls-1{fill:#f1f4fb}.cls-2{fill:#d5dced}.cls-3{fill:#b4e66e}.cls-4{fill:#dae169}.cls-5{fill:#ffdc64}.cls-6{fill:#f0c087}.cls-7{fill:#e6af78}
        </style>
    </defs>
    <g id="choices" transform="translate(-47.031)">
        <path id="Path_222" d="M86.421 48.105h-29.63a1.743 1.743 0 0 1-1.743-1.743V9.76a1.743 1.743 0 0 1 1.743-1.743h29.63a1.743 1.743 0 0 1 1.743 1.743v36.6a1.743 1.743 0 0 1-1.743 1.745z" class="cls-1" data-name="Path 222" transform="translate(-7.2 -7.2)"/>
        <path id="Path_223" d="M237.929 184.6v-8.532c-.017 0-.035.006-.053.011a4.688 4.688 0 0 0-2.512-1.042h-.049v-8.3a4.8 4.8 0 0 0-4.793-4.793q-.24 0-.485.024a4.844 4.844 0 0 0-4.308 4.893v9.686l-1.875 1.875a6.929 6.929 0 0 0-1.854 6.521l.328 1.4h13.861a1.743 1.743 0 0 0 1.74-1.743z" class="cls-2" data-name="Path 223" transform="translate(-156.965 -145.433)"/>
        <circle id="Ellipse_9" cx="2.614" cy="2.614" r="2.614" class="cls-3" data-name="Ellipse 9" transform="translate(53.077 8.66)"/>
        <circle id="Ellipse_10" cx="2.614" cy="2.614" r="2.614" class="cls-4" data-name="Ellipse 10" transform="translate(53.077 18.247)"/>
        <circle id="Ellipse_11" cx="2.614" cy="2.614" r="2.614" class="cls-5" data-name="Ellipse 11" transform="translate(53.077 27.833)"/>
        <path id="Path_224" d="M266.88 202.418a2.179 2.179 0 0 0-2.4 2.167v-.747a2.264 2.264 0 0 0-1.954-2.292 2.179 2.179 0 0 0-2.4 2.167v-.747a2.264 2.264 0 0 0-1.954-2.292 2.179 2.179 0 0 0-2.4 2.167V189.77a2.179 2.179 0 0 0-2.4-2.167 2.264 2.264 0 0 0-1.954 2.292v10.769l-2.641 2.641a4.358 4.358 0 0 0-1.16 4.079l1.823 7.749a6.1 6.1 0 0 0 5.938 4.7h7.37a6.1 6.1 0 0 0 6.1-6.1v-9.023a2.264 2.264 0 0 0-1.968-2.292z" class="cls-6" data-name="Path 224" transform="translate(-180.026 -168.473)"/>
        <g id="Group_51" data-name="Group 51" transform="translate(67.461 19.173)">
            <path id="Path_225" d="M329.556 320.65a.872.872 0 0 0 .871-.871V316.4a2.171 2.171 0 0 0-1.743 2.123v1.253a.872.872 0 0 0 .872.874z" class="cls-7" data-name="Path 225" transform="translate(-320.41 -303.33)"/>
            <path id="Path_226" d="M372.313 329.2a.872.872 0 0 0 .871-.871v-3.376a2.171 2.171 0 0 0-1.743 2.123v1.253a.871.871 0 0 0 .872.871z" class="cls-7" data-name="Path 226" transform="translate(-358.809 -311.009)"/>
            <path id="Path_227" d="M415.068 337.752a.872.872 0 0 0 .871-.871v-3.376a2.171 2.171 0 0 0-1.743 2.123v1.253a.871.871 0 0 0 .872.871z" class="cls-7" data-name="Path 227" transform="translate(-397.207 -318.689)"/>
            <path id="Path_228" d="M251.606 215.614l-2.021-8.587a2.812 2.812 0 0 1 .749-2.632l1.076-1.076v2.181a.871.871 0 1 0 1.743 0v-17.373a2.279 2.279 0 0 0-1.743 2.248v10.769l-2.641 2.641a4.358 4.358 0 0 0-1.16 4.079l1.823 7.749a6.1 6.1 0 0 0 5.938 4.7h2.174a6.1 6.1 0 0 1-5.938-4.699z" class="cls-7" data-name="Path 228" transform="translate(-247.493 -188.127)"/>
        </g>
        <path id="Path_229" d="M104.384 79.575a.817.817 0 0 0-.817.817 1.8 1.8 0 1 1-1.8-1.8.817.817 0 0 0 0-1.634 3.431 3.431 0 1 0 3.431 3.431.817.817 0 0 0-.814-.814z" data-name="Path 229" transform="translate(-46.078 -69.117)"/>
        <path id="Path_230" d="M104.384 173.637a.817.817 0 0 0-.817.817 1.8 1.8 0 1 1-1.8-1.8.817.817 0 0 0 0-1.634 3.431 3.431 0 1 0 3.431 3.431.817.817 0 0 0-.814-.814z" data-name="Path 230" transform="translate(-46.078 -153.592)"/>
        <path id="Path_231" d="M190.766 213.779h-6.1a.817.817 0 0 0 0 1.634h6.1a.817.817 0 0 0 0-1.634z" data-name="Path 231" transform="translate(-122.874 -191.992)"/>
        <path id="Path_232" d="M190.766 179.574h-6.1a.817.817 0 0 0 0 1.634h6.1a.817.817 0 0 0 0-1.634z" data-name="Path 232" transform="translate(-122.874 -161.273)"/>
        <path id="Path_233" d="M189.841 308.658a.817.817 0 0 0-.817-.817h-4.357a.817.817 0 0 0 0 1.634h4.357a.817.817 0 0 0 .817-.817z" data-name="Path 233" transform="translate(-122.874 -276.468)"/>
        <path id="Path_234" d="M190.766 273.637h-6.1a.817.817 0 0 0 0 1.634h6.1a.817.817 0 0 0 0-1.634z" data-name="Path 234" transform="translate(-122.874 -245.749)"/>
        <path id="Path_235" d="M199.427 120.533a.817.817 0 0 0-.817-.817h-13.944a.817.817 0 0 0 0 1.634h13.944a.817.817 0 0 0 .817-.817z" data-name="Path 235" transform="translate(-122.874 -107.515)"/>
        <path id="Path_236" d="M184.666 87.145h10.458a.817.817 0 1 0 0-1.634h-10.458a.817.817 0 0 0 0 1.634z" data-name="Path 236" transform="translate(-122.874 -76.796)"/>
        <path id="Path_237" d="M101.769 266.719a.817.817 0 1 0 0-1.634 3.431 3.431 0 1 0 3.431 3.431.817.817 0 1 0-1.634 0 1.8 1.8 0 1 1-1.8-1.8z" data-name="Path 237" transform="translate(-46.078 -238.069)"/>
        <path id="Path_238" d="M64.406 40.088H49.591a.927.927 0 0 1-.926-.926V2.56a.927.927 0 0 1 .926-.926h29.63a.927.927 0 0 1 .926.926v27.016a.817.817 0 0 0 1.634 0V2.56A2.563 2.563 0 0 0 79.221 0h-29.63a2.563 2.563 0 0 0-2.56 2.56v36.6a2.563 2.563 0 0 0 2.56 2.56h14.815a.817.817 0 1 0 0-1.634z" data-name="Path 238"/>
        <path id="Path_239" d="M259.745 194.408a3.015 3.015 0 0 0-2.119.6 2.976 2.976 0 0 0-2.238-1.467 3.015 3.015 0 0 0-2.119.6 2.976 2.976 0 0 0-2.238-1.467 3.018 3.018 0 0 0-1.668.313v-10.4a3 3 0 0 0-3.3-2.98 3.091 3.091 0 0 0-2.69 3.1v10.431l-2.4 2.4a5.142 5.142 0 0 0-1.378 4.844l1.823 7.749a6.891 6.891 0 0 0 6.733 5.333h7.369a6.925 6.925 0 0 0 6.917-6.917v-9.026a3.091 3.091 0 0 0-2.692-3.113zm1.056 12.131a5.289 5.289 0 0 1-5.283 5.283h-7.369a5.263 5.263 0 0 1-5.143-4.073L241.182 200a3.518 3.518 0 0 1 .943-3.314l1.246-1.246v2.821a.817.817 0 1 0 1.634 0V182.7a1.445 1.445 0 0 1 1.218-1.479 1.362 1.362 0 0 1 1.5 1.355v14.38a.817.817 0 0 0 1.634 0v-1.307a1.362 1.362 0 0 1 1.5-1.355 1.445 1.445 0 0 1 1.218 1.479v2.054a.817.817 0 0 0 1.634 0v-1.307a1.362 1.362 0 0 1 1.5-1.355 1.445 1.445 0 0 1 1.218 1.479v2.056a.817.817 0 0 0 1.634 0v-1.307a1.362 1.362 0 0 1 1.5-1.354 1.445 1.445 0 0 1 1.218 1.479v9.027z" data-name="Path 239" transform="translate(-172.81 -161.276)"/>
    </g>
</svg>
