<svg xmlns="http://www.w3.org/2000/svg" width="42.631" height="28" viewBox="0 0 42.631 28">
    <defs>
        <style>
            .cls-1{fill:#555}
        </style>
    </defs>
    <g id="console" transform="translate(0 -55.109)">
        <g id="Group_5" data-name="Group 5" transform="translate(0 55.109)">
            <g id="Group_4" data-name="Group 4">
                <path id="Path_17" d="M42.608 74.473a39.794 39.794 0 0 0-1.168-7.7 29.55 29.55 0 0 0-2.389-6.473c-3.717-6.531-7.752-5.522-12.584-4.248a34.588 34.588 0 0 1-4.886.948h-.531a34.588 34.588 0 0 1-4.885-.956c-4.832-1.221-8.867-2.283-12.584 4.3a27.069 27.069 0 0 0-2.389 6.478 39.793 39.793 0 0 0-1.168 7.7 14.468 14.468 0 0 0 .743 6.058 4.024 4.024 0 0 0 2.549 2.389 5.192 5.192 0 0 0 3.4-.372 24.957 24.957 0 0 0 6.8-4.832c1.646-1.593 4.726-2.389 7.805-2.389s6.159.8 7.805 2.389a24.957 24.957 0 0 0 6.8 4.832 5.555 5.555 0 0 0 3.4.372 3.968 3.968 0 0 0 2.549-2.443 14.2 14.2 0 0 0 .733-6.053zm-2.549 5.31a2.106 2.106 0 0 1-1.274 1.327 3.667 3.667 0 0 1-2.177-.265 21.654 21.654 0 0 1-6.159-4.407c-2.018-2.018-5.575-3.027-9.133-3.027S14.2 74.42 12.13 76.332a22.063 22.063 0 0 1-6.16 4.407A3.294 3.294 0 0 1 3.793 81a2.106 2.106 0 0 1-1.274-1.327 12.556 12.556 0 0 1-.531-5.1A36.626 36.626 0 0 1 3.1 67.252a25.337 25.337 0 0 1 2.23-6c2.92-5.257 6.319-4.407 10.354-3.345a31.148 31.148 0 0 0 5.2 1.009h.8a30.763 30.763 0 0 0 5.257-1.009C30.98 56.9 34.378 56 37.3 61.252a24.484 24.484 0 0 1 2.23 6 40.19 40.19 0 0 1 1.115 7.328 12.287 12.287 0 0 1-.586 5.203z" class="cls-1" data-name="Path 17" transform="translate(0 -55.109)"/>
            </g>
        </g>
        <g id="Group_7" data-name="Group 7" transform="translate(5.492 60.402)">
            <g id="Group_6" data-name="Group 6">
                <path id="Path_18" d="M52.311 98.7a3.226 3.226 0 0 0-1.912-.9 3.021 3.021 0 0 0-.85-1.858l-.053-.053a3.007 3.007 0 0 0-2.177-.9 3.135 3.135 0 0 0-2.177.9 3.086 3.086 0 0 0-.9 1.912 3.163 3.163 0 0 0-1.912.85l-.053.053a3.007 3.007 0 0 0-.9 2.177 3.135 3.135 0 0 0 .9 2.177 2.96 2.96 0 0 0 1.965.9 2.833 2.833 0 0 0 .9 1.912 3.007 3.007 0 0 0 2.177.9 3.135 3.135 0 0 0 2.177-.9 3.226 3.226 0 0 0 .9-1.912 2.833 2.833 0 0 0 1.912-.9 3.007 3.007 0 0 0 .9-2.177 3.135 3.135 0 0 0-.897-2.181zm-1.327 2.973a1.081 1.081 0 0 1-.8.319h-.743A1.008 1.008 0 0 0 48.435 103v.69a1.115 1.115 0 1 1-2.23 0v-.743a1.008 1.008 0 0 0-1.009-1.009h-.743a1.089 1.089 0 0 1-.8-1.858l.053-.053a1.269 1.269 0 0 1 .743-.265h.751a1.008 1.008 0 0 0 1-1.011v-.743a1.126 1.126 0 0 1 1.912-.8l.053.053a1.269 1.269 0 0 1 .265.743v.743a1.008 1.008 0 0 0 1.009 1.009h.743a1.126 1.126 0 0 1 .8 1.912z" class="cls-1" data-name="Path 18" transform="translate(-41.373 -94.981)"/>
            </g>
        </g>
        <g id="Group_9" data-name="Group 9" transform="translate(28.696 60.668)">
            <g id="Group_8" data-name="Group 8">
                <circle id="Ellipse_1" cx="1.858" cy="1.858" r="1.858" class="cls-1" data-name="Ellipse 1"/>
            </g>
        </g>
        <g id="Group_11" data-name="Group 11" transform="translate(28.696 68.208)">
            <g id="Group_10" data-name="Group 10">
                <circle id="Ellipse_2" cx="1.858" cy="1.858" r="1.858" class="cls-1" data-name="Ellipse 2"/>
            </g>
        </g>
        <g id="Group_13" data-name="Group 13" transform="translate(24.926 64.438)">
            <g id="Group_12" data-name="Group 12">
                <circle id="Ellipse_3" cx="1.858" cy="1.858" r="1.858" class="cls-1" data-name="Ellipse 3"/>
            </g>
        </g>
        <g id="Group_15" data-name="Group 15" transform="translate(32.466 64.438)">
            <g id="Group_14" data-name="Group 14">
                <circle id="Ellipse_4" cx="1.858" cy="1.858" r="1.858" class="cls-1" data-name="Ellipse 4"/>
            </g>
        </g>
    </g>
</svg>
