<svg xmlns="http://www.w3.org/2000/svg" width="43.989" height="43.989" viewBox="0 0 43.989 43.989">
    <defs>
        <style>
            .cls-1{fill:#2196f3}.cls-2{fill:#1976d2}
        </style>
    </defs>
    <g id="dashboard">
        <path id="Path_74" d="M16.954 0H3.207A3.211 3.211 0 0 0 0 3.207v8.248a3.211 3.211 0 0 0 3.207 3.208h13.747a3.211 3.211 0 0 0 3.208-3.208V3.207A3.211 3.211 0 0 0 16.954 0zm0 0" class="cls-1" data-name="Path 74"/>
        <path id="Path_75" d="M16.954 213.332H3.207A3.211 3.211 0 0 0 0 216.54v19.245a3.211 3.211 0 0 0 3.207 3.207h13.747a3.211 3.211 0 0 0 3.208-3.207V216.54a3.211 3.211 0 0 0-3.208-3.208zm0 0" class="cls-2" data-name="Path 75" transform="translate(0 -195.003)"/>
        <path id="Path_76" d="M294.286 341.332H280.54a3.211 3.211 0 0 0-3.208 3.208v8.248A3.211 3.211 0 0 0 280.54 356h13.747a3.211 3.211 0 0 0 3.207-3.207v-8.253a3.211 3.211 0 0 0-3.208-3.208zm0 0" class="cls-1" data-name="Path 76" transform="translate(-253.505 -312.006)"/>
        <path id="Path_77" d="M294.286 0H280.54a3.211 3.211 0 0 0-3.208 3.207v19.246a3.211 3.211 0 0 0 3.208 3.208h13.747a3.211 3.211 0 0 0 3.207-3.208V3.207A3.211 3.211 0 0 0 294.286 0zm0 0" class="cls-2" data-name="Path 77" transform="translate(-253.505)"/>
    </g>
</svg>
