<svg xmlns="http://www.w3.org/2000/svg" width="40.825" height="40.825" viewBox="0 0 40.825 40.825">
    <defs>
        <style>
            .cls-1{fill:#475993}
        </style>
    </defs>
    <path id="facebook" d="M35.326 0H5.5A5.5 5.5 0 0 0 0 5.5v29.824a5.5 5.5 0 0 0 5.5 5.5h14.711l.025-14.589h-3.79a.894.894 0 0 1-.894-.891l-.018-4.7a.894.894 0 0 1 .894-.9h3.783V15.2c0-5.273 3.22-8.144 7.924-8.144H32a.894.894 0 0 1 .894.894v3.965a.894.894 0 0 1-.894.894h-2.372c-2.558 0-3.053 1.216-3.053 3v3.934H32.2a.894.894 0 0 1 .888 1l-.557 4.7a.894.894 0 0 1-.888.789H26.6l-.025 14.589h8.752a5.5 5.5 0 0 0 5.5-5.5V5.5A5.5 5.5 0 0 0 35.326 0z" class="cls-1" transform="translate(-.002)"/>
</svg>
