<svg xmlns="http://www.w3.org/2000/svg" width="169.071" height="74.568" viewBox="0 0 169.071 74.568">
    <defs>
        <style>
            .cls-1{fill:#fff}
        </style>
    </defs>
    <g id="fluid-angle_white">
        <g id="Layer_1" data-name="Layer 1">
            <rect id="Rectangle_2" width="10.068" height="8.419" class="cls-1" data-name="Rectangle 2" rx="4.21" transform="rotate(-45 124.66 -148.615)"/>
            <path id="Path_1" d="M-1153.1-996.01h-19.323a4.512 4.512 0 0 1-4.508-4.512v-60.55a4.508 4.508 0 0 1 4.508-4.508h31.564a4.5 4.5 0 0 1 3.188 1.321l20.477 20.477a5.156 5.156 0 0 1 0 7.286l-3.873 3.869a4.5 4.5 0 0 1-3.2 1.332 4.5 4.5 0 0 1-3.2-1.332 4.507 4.507 0 0 1-1.328-3.2 4.507 4.507 0 0 1 1.328-3.2l1.137-1.138-15.1-15.1a4.491 4.491 0 0 0-3.187-1.321h-18.807a4.508 4.508 0 0 0-4.508 4.508v42.557a4.5 4.5 0 0 0 1.319 3.189 4.5 4.5 0 0 0 3.189 1.319h1.278a4.508 4.508 0 0 0 3.215-1.305 4.507 4.507 0 0 0 1.335-3.2v-22.582a4.508 4.508 0 0 1 4.491-4.491 4.512 4.512 0 0 1 4.529 4.491v31.559a4.514 4.514 0 0 1-1.321 3.208 4.514 4.514 0 0 1-3.203 1.323z" class="cls-1" data-name="Path 1" transform="translate(1284.757 1067.463)"/>
            <path id="Rectangle_3" d="M0 0h3.835v28.918H0z" class="cls-1" data-name="Rectangle 3" transform="translate(39.651 1.044)"/>
            <path id="Path_2" d="M-1368.857-1040.038h3.873v-18.36h4.444v-3.178h-4.444v-1.606a3.823 3.823 0 0 1 .852-2.8 4.528 4.528 0 0 1 3.115-.826h.162V-1070h-.162c-2.68 0-4.687.545-5.94 1.623s-1.909 2.829-1.909 5.185v1.615h-2.744v3.178h2.744z" class="cls-1" data-name="Path 2" transform="translate(1396.489 1070)"/>
            <path id="Path_3" d="M-1311.68-1028.364a7.552 7.552 0 0 0 6.757-3.341v2.983h3.835v-21.538h-3.835v12.182a6.736 6.736 0 0 1-1.521 4.738 5.424 5.424 0 0 1-4.155 1.632 5.422 5.422 0 0 1-4.154-1.632 6.735 6.735 0 0 1-1.521-4.738v-12.182h-3.8v12.782a9.124 9.124 0 0 0 2.4 6.741 8.2 8.2 0 0 0 5.994 2.373z" class="cls-1" data-name="Path 3" transform="translate(1366.908 1058.671)"/>
            <path id="Rectangle_4" d="M0 0h3.835v21.534H0z" class="cls-1" data-name="Rectangle 4" transform="translate(69.365 8.424)"/>
            <path id="Path_4" d="M-1266.043-1064.348a2.473 2.473 0 0 0 1.815-.741 2.491 2.491 0 0 0 .741-1.815 2.483 2.483 0 0 0-.741-1.811 2.441 2.441 0 0 0-1.811-.745 2.556 2.556 0 0 0-1.755.724 2.474 2.474 0 0 0-.767 1.832 2.492 2.492 0 0 0 .724 1.811 2.4 2.4 0 0 0 1.794.746z" class="cls-1" data-name="Path 4" transform="translate(1337.347 1069.691)"/>
            <path id="Path_5" d="M-1242.826-1038.287a8.812 8.812 0 0 0 4.819-1.317 8.654 8.654 0 0 0 2.829-2.893v3.864h3.873v-28.918h-3.852v11.176a8.628 8.628 0 0 0-2.829-2.842 8.874 8.874 0 0 0-4.819-1.278 9.825 9.825 0 0 0-7.363 3.042 11.041 11.041 0 0 0-2.923 7.955 11.406 11.406 0 0 0 2.944 8.07 9.646 9.646 0 0 0 7.321 3.141zm-6.391-11.249a7.511 7.511 0 0 1 2.058-5.569 6.818 6.818 0 0 1 4.951-2.041 6.68 6.68 0 0 1 4.947 2.13 7.787 7.787 0 0 1 2.063 5.646 7.752 7.752 0 0 1-2.062 5.645 6.662 6.662 0 0 1-4.93 2.13 6.608 6.608 0 0 1-4.947-2.194 8.189 8.189 0 0 1-2.058-5.748z" class="cls-1" data-name="Path 5" transform="translate(1328.467 1068.594)"/>
            <path id="Path_6" d="M-1412.071-966.76a8.62 8.62 0 0 0-2.825-2.846 8.922 8.922 0 0 0-4.819-1.278 9.829 9.829 0 0 0-7.363 3.047 11.04 11.04 0 0 0-2.923 7.955 11.423 11.423 0 0 0 2.94 8.07 9.677 9.677 0 0 0 7.346 3.161 8.78 8.78 0 0 0 4.819-1.321 8.585 8.585 0 0 0 2.825-2.889V-949h3.877v-21.534h-3.877zm-2.057 1.346a7.77 7.77 0 0 1 2.057 5.646 7.777 7.777 0 0 1-2.057 5.646 6.665 6.665 0 0 1-4.93 2.13 6.608 6.608 0 0 1-4.947-2.194 8.01 8.01 0 0 1-2.079-5.726 7.494 7.494 0 0 1 2.058-5.565 6.818 6.818 0 0 1 4.947-2.041 6.691 6.691 0 0 1 4.951 2.122z" class="cls-1" data-name="Path 6" transform="translate(1430 1013.117)"/>
            <path id="Path_7" d="M-1359.908-970.933a7.6 7.6 0 0 0-6.758 3.383v-3.034h-3.835v21.534h3.835v-12.139a6.735 6.735 0 0 1 1.521-4.759 5.468 5.468 0 0 1 4.176-1.611 5.416 5.416 0 0 1 4.154 1.611 6.783 6.783 0 0 1 1.5 4.759v12.139h3.8v-12.718a9.163 9.163 0 0 0-2.408-6.779 8.2 8.2 0 0 0-5.985-2.386z" class="cls-1" data-name="Path 7" transform="translate(1395.852 1013.145)"/>
            <path id="Path_8" d="M-1303.411-966.76a8.665 8.665 0 0 0-2.825-2.846 8.922 8.922 0 0 0-4.819-1.278 9.83 9.83 0 0 0-7.363 3.047 11.042 11.042 0 0 0-2.923 7.955 11.421 11.421 0 0 0 2.94 8.07 9.676 9.676 0 0 0 7.345 3.161 8.791 8.791 0 0 0 4.819-1.321 8.634 8.634 0 0 0 2.825-2.889v4.261a6.622 6.622 0 0 1-1.785 4.93 6.178 6.178 0 0 1-4.469 1.751 8.215 8.215 0 0 1-4.512-1.172 5.113 5.113 0 0 1-2.288-2.923l-.034-.119h-3.741v.179a7.462 7.462 0 0 0 3.293 5.369 12.32 12.32 0 0 0 7.243 2.036 9.959 9.959 0 0 0 7.243-2.808 9.807 9.807 0 0 0 2.872-7.243v-21.917h-3.877zm-2.058 1.346a7.787 7.787 0 0 1 2.058 5.646 7.776 7.776 0 0 1-2.058 5.646 6.665 6.665 0 0 1-4.93 2.13 6.6 6.6 0 0 1-4.947-2.194 8.014 8.014 0 0 1-2.083-5.726 7.511 7.511 0 0 1 2.058-5.565 6.817 6.817 0 0 1 4.951-2.041 6.691 6.691 0 0 1 4.951 2.122z" class="cls-1" data-name="Path 8" transform="translate(1367.638 1013.117)"/>
            <path id="Rectangle_5" d="M0 0h3.835v28.918H0z" class="cls-1" data-name="Rectangle 5" transform="translate(71.649 35.181)"/>
            <path id="Path_9" d="M-1229.682-968.041a10.139 10.139 0 0 0-7.533-2.889 10.193 10.193 0 0 0-7.631 3.046 11.125 11.125 0 0 0-2.944 8.053 11.293 11.293 0 0 0 2.906 8.07 9.961 9.961 0 0 0 7.537 3.063 10.3 10.3 0 0 0 6.259-1.845 9.961 9.961 0 0 0 3.511-4.687l.077-.217h-4.116l-.042.1a5.58 5.58 0 0 1-2.13 2.48 6.394 6.394 0 0 1-3.562.942 6.225 6.225 0 0 1-4.585-1.79 7.108 7.108 0 0 1-1.934-4.734H-1227v-.132a13.227 13.227 0 0 0 .158-2.13 10 10 0 0 0-2.84-7.33zm-7.609.332a6.359 6.359 0 0 1 4.585 1.79 6.424 6.424 0 0 1 1.879 4.614h-12.995a6.982 6.982 0 0 1 1.985-4.653 6.3 6.3 0 0 1 4.545-1.751z" class="cls-1" data-name="Path 9" transform="translate(1325.426 1013.141)"/>
        </g>
    </g>
</svg>
