<svg xmlns="http://www.w3.org/2000/svg" id="folder" width="43.989" height="43.989" viewBox="0 0 43.989 43.989">
    <defs>
        <style>
            .cls-1{fill:#9bc9ff}.cls-2{fill:#1e81ce}
        </style>
    </defs>
    <path id="Path_78" d="M47.59 10.933H18.264L13.865 8h-4.4A1.466 1.466 0 0 0 8 9.466V47.59a2.933 2.933 0 1 0 5.865 0V19.73A2.933 2.933 0 0 1 16.8 16.8h33.723v-2.935a2.933 2.933 0 0 0-2.933-2.932zm0 0" class="cls-1" data-name="Path 78" transform="translate(-7.267 -7.267)"/>
    <path id="Path_79" d="M75.924 104H45.865a2.933 2.933 0 0 0-2.933 2.933v27.86A2.933 2.933 0 0 1 40 137.725h35.191a4.4 4.4 0 0 0 4.4-4.4V104zm-11.73 20.528v7.332h-5.865v-7.332H53.2a5.865 5.865 0 0 1 0-11.73c.125 0 .249.007.374.015a6.6 6.6 0 0 1 12.691.851 5.865 5.865 0 1 1 3.065 10.865zm0 0" class="cls-1" data-name="Path 79" transform="translate(-36.334 -94.469)"/>
    <g id="Group_44" data-name="Group 44">
        <path id="Path_80" d="M40.323 2.933H11.217L6.818 0H2.2A2.2 2.2 0 0 0 0 2.2v38.123a3.67 3.67 0 0 0 3.666 3.666h35.191a5.138 5.138 0 0 0 5.132-5.132V6.6a3.67 3.67 0 0 0-3.666-3.667zm2.2 35.924a3.67 3.67 0 0 1-3.666 3.666H6.6a3.651 3.651 0 0 0 .733-2.2V12.464a2.2 2.2 0 0 1 2.2-2.2h32.99zm0-30.059H9.531a3.67 3.67 0 0 0-3.666 3.666v27.86a2.2 2.2 0 0 1-4.4 0V2.2a.733.733 0 0 1 .735-.734h4.179l4.4 2.933h29.544a2.2 2.2 0 0 1 2.2 2.2zm0 0" class="cls-2" data-name="Path 80"/>
        <path id="Path_81" d="M432 64h1.466v1.466H432zm0 0" class="cls-2" data-name="Path 81" transform="translate(-392.41 -58.135)"/>
        <path id="Path_82" d="M32 424h1.466v1.466H32zm0 0" class="cls-2" data-name="Path 82" transform="translate(-29.067 -385.143)"/>
        <path id="Path_83" d="M32 67.666v27.86h1.466v-27.86a2.2 2.2 0 0 1 2.2-2.2h31.525V64H35.666A3.67 3.67 0 0 0 32 67.666zm0 0" class="cls-2" data-name="Path 83" transform="translate(-29.067 -58.135)"/>
        <path id="Path_84" d="M118 161.565h4.4v6.6a.733.733 0 0 0 .733.733H129a.733.733 0 0 0 .733-.733v-6.6h4.4a6.6 6.6 0 1 0-2.6-12.663 7.332 7.332 0 0 0-13.65-.534 6.6 6.6 0 1 0 .12 13.2zm10.264-3.666v9.531h-4.4v-9.53a.733.733 0 0 0-.733-.733h-1.738l4.67-4.151 4.67 4.151H129a.733.733 0 0 0-.736.733zM118 149.834c.11 0 .22.006.33.013a.727.727 0 0 0 .733-.489 5.865 5.865 0 0 1 11.281.756.733.733 0 0 0 1.1.476 5.132 5.132 0 1 1 2.686 9.507h-4.4v-1.466h2.933a.733.733 0 0 0 .488-1.282l-6.6-5.865a.733.733 0 0 0-.975 0l-6.6 5.865a.733.733 0 0 0 .488 1.282h2.936v1.469H118a5.132 5.132 0 1 1 0-10.264zm0 0" class="cls-2" data-name="Path 84" transform="translate(-101.137 -130.772)"/>
        <path id="Path_85" d="M395.666 394.933a.733.733 0 0 1-.733.733H392v1.466h2.933a2.2 2.2 0 0 0 2.2-2.2V392h-1.466zm0 0" class="cls-2" data-name="Path 85" transform="translate(-356.076 -356.076)"/>
    </g>
</svg>
