<svg xmlns="http://www.w3.org/2000/svg" id="geolocalization" width="43.385" height="43.385" viewBox="0 0 43.385 43.385">
    <defs>
        <style>
            .cls-1{fill:#d8d7da}.cls-2{fill:#fff}.cls-3{fill:#004fac}.cls-4{fill:#006df0}.cls-5{fill:#cd2a00}.cls-6{fill:#ff3501}
        </style>
    </defs>
    <path id="Path_200" d="M247.5 150.52v6.464h4.866a53.119 53.119 0 0 0-.423-5.354 9.428 9.428 0 0 1-.77-1.42 21.864 21.864 0 0 1-3.673.31z" class="cls-1" data-name="Path 200" transform="translate(-225.807 -137.044)"/>
    <path id="Path_201" d="M250.488 44.5c-1.122-3.292-2.388-4.5-2.988-4.5v6.464a18.347 18.347 0 0 0 2.891-.23c0-.111-.007-.222-.007-.333a9.435 9.435 0 0 1 .104-1.401z" class="cls-1" data-name="Path 201" transform="translate(-225.807 -36.494)"/>
    <path id="Path_202" d="M250.537 383.072c.158-.474.307-.97.445-1.485a18.157 18.157 0 0 0-3.482-.337v6.464c.6 0 1.9-1.236 3.037-4.642z" class="cls-1" data-name="Path 202" transform="translate(-225.807 -347.834)"/>
    <path id="Path_203" d="M338.154 267.5h-3.068a54.507 54.507 0 0 1-.765 7.842 21.67 21.67 0 0 1 5.48 3.019 18.135 18.135 0 0 0 5.013-10.86h-4.969l-.845 1.062z" class="cls-1" data-name="Path 203" transform="translate(-305.019 -244.054)"/>
    <path id="Path_204" d="M251.72 274.379a51.323 51.323 0 0 0 .647-6.879H247.5v6.464a21.714 21.714 0 0 1 4.22.415z" class="cls-1" data-name="Path 204" transform="translate(-225.807 -244.054)"/>
    <path id="Path_205" d="M431.344 203.739a18.089 18.089 0 0 0-.366-2.283l-1.816 2.283z" class="cls-1" data-name="Path 205" transform="translate(-391.548 -183.799)"/>
    <path id="Path_206" d="M342.9 223.654h.281l-.294-.369c.003.123.013.246.013.369z" class="cls-1" data-name="Path 206" transform="translate(-312.833 -203.715)"/>
    <path id="Path_207" d="M308.838 396.49a31.84 31.84 0 0 1-.48 1.6 20.722 20.722 0 0 1-1.128 2.764 18.124 18.124 0 0 0 5.107-2.466 18.125 18.125 0 0 0-3.499-1.898z" class="cls-1" data-name="Path 207" transform="translate(-280.302 -361.739)"/>
    <path id="Path_208" d="M208.215 383.072c1.079 3.238 2.31 4.514 2.943 4.633a.505.505 0 0 0 .094.009v-6.464h-.094a18.121 18.121 0 0 0-3.388.337c.138.513.287 1.013.445 1.485z" class="cls-2" data-name="Path 208" transform="translate(-189.559 -347.834)"/>
    <path id="Path_209" d="M192.614 274.379a21.661 21.661 0 0 1 4.126-.414h.094V267.5h-4.867a51.308 51.308 0 0 0 .647 6.879z" class="cls-2" data-name="Path 209" transform="translate(-175.142 -244.054)"/>
    <path id="Path_210" d="M50.692 114.45a54.508 54.508 0 0 1 .765-7.842 21.671 21.671 0 0 1-5.48-3.019 18.135 18.135 0 0 0-5.013 10.86z" class="cls-2" data-name="Path 210" transform="translate(-37.374 -94.511)"/>
    <path id="Path_211" d="M196.741 149.434a21.658 21.658 0 0 1-4.126-.414 51.323 51.323 0 0 0-.647 6.879h4.867v-6.464z" class="cls-2" data-name="Path 211" transform="translate(-175.142 -135.959)"/>
    <path id="Path_212" d="M133 396.49a18.125 18.125 0 0 0-3.5 1.892 18.124 18.124 0 0 0 5.107 2.466 20.726 20.726 0 0 1-1.128-2.764c-.17-.51-.33-1.043-.479-1.594z" class="cls-2" data-name="Path 212" transform="translate(-118.15 -361.739)"/>
    <path id="Path_213" d="M129.5 51.246a18.126 18.126 0 0 0 3.5 1.892c.15-.551.31-1.084.48-1.6a20.725 20.725 0 0 1 1.128-2.764 18.123 18.123 0 0 0-5.108 2.472z" class="cls-2" data-name="Path 213" transform="translate(-118.15 -44.505)"/>
    <path id="Path_214" d="M51.457 275.342a54.5 54.5 0 0 1-.765-7.842h-9.728a18.136 18.136 0 0 0 5.013 10.86 21.67 21.67 0 0 1 5.48-3.018z" class="cls-2" data-name="Path 214" transform="translate(-37.374 -244.054)"/>
    <path id="Path_215" d="M211.158 40.009c-.634.119-1.864 1.4-2.943 4.633-.158.474-.307.97-.445 1.485a18.122 18.122 0 0 0 3.388.337h.094V40a.505.505 0 0 0-.094.009z" class="cls-2" data-name="Path 215" transform="translate(-189.559 -36.494)"/>
    <path id="Path_216" d="M266.189 163.169l-1.929 2.431a18.088 18.088 0 0 1 .366 2.283h-2.181l-2.789 3.506h4.969a18.136 18.136 0 0 1-5.013 10.86 21.671 21.671 0 0 0-5.48-3.019 54.5 54.5 0 0 0 .765-7.842h3.068l-2.789-3.506h-.281c0-.124-.009-.246-.013-.369l-3.448-4.335q-.249-.315-.47-.65a53.113 53.113 0 0 1 .423 5.354h-4.96v3.506h4.961a51.336 51.336 0 0 1-.647 6.879 21.714 21.714 0 0 0-4.22-.415h-.094v3.506h.094a18.157 18.157 0 0 1 3.482.337 26.144 26.144 0 0 1-.445 1.485c-1.135 3.406-2.438 4.642-3.037 4.642a.505.505 0 0 1-.094-.009v3.514h.188a21.7 21.7 0 0 0 20.273-29.173 9.316 9.316 0 0 1-.699 1.015zm-13.3 21.115c.17-.511.33-1.044.48-1.6a18.126 18.126 0 0 1 3.5 1.892 18.124 18.124 0 0 1-5.107 2.466 20.72 20.72 0 0 0 1.123-2.758z" class="cls-3" data-name="Path 216" transform="translate(-224.829 -147.938)"/>
    <path id="Path_217" d="M21.6 39.871c-.634-.119-1.864-1.4-2.943-4.633-.158-.474-.307-.97-.445-1.485a18.122 18.122 0 0 1 3.388-.337v-3.505a21.658 21.658 0 0 0-4.126.414 51.322 51.322 0 0 1-.647-6.879H21.6V19.94h-4.775a51.337 51.337 0 0 1 .647-6.879 21.658 21.658 0 0 0 4.126.414h.094a21.864 21.864 0 0 0 3.673-.31 9.423 9.423 0 0 1-.782-3.426 18.347 18.347 0 0 1-2.891.23H21.6a18.122 18.122 0 0 1-3.388-.337c.138-.514.287-1.011.445-1.485 1.079-3.238 2.31-4.514 2.943-4.633a.505.505 0 0 1 .094-.009c.6 0 1.866 1.208 2.988 4.5a9.424 9.424 0 0 1 4.493-6.679A21.57 21.57 0 0 0 21.787 0H21.6A21.692 21.692 0 0 0 6.354 37.032 21.551 21.551 0 0 0 21.6 43.385zM15.33 7.039c-.17.511-.33 1.044-.48 1.6a18.126 18.126 0 0 1-3.5-1.892 18.123 18.123 0 0 1 5.107-2.466 20.723 20.723 0 0 0-1.127 2.758zm1.128 32.071a18.123 18.123 0 0 1-5.107-2.466 18.126 18.126 0 0 1 3.5-1.892c.15.551.31 1.084.48 1.6a20.723 20.723 0 0 0 1.127 2.758zM14.083 12.1a54.5 54.5 0 0 0-.765 7.842H3.59A18.135 18.135 0 0 1 8.6 9.079a21.671 21.671 0 0 0 5.483 3.021zm-.765 11.348a54.508 54.508 0 0 0 .765 7.842A21.671 21.671 0 0 0 8.6 34.306a18.135 18.135 0 0 1-5.01-10.86z" class="cls-4" data-name="Path 217"/>
    <path id="Path_218" d="M391.206 9.426a3.511 3.511 0 0 1-3.506 3.506v11.6l.846-1.063 2.788-3.506 1.816-2.283 1.929-2.426a9.315 9.315 0 0 0 .7-1.019A9.4 9.4 0 0 0 387.7.021v5.9a3.51 3.51 0 0 1 3.506 3.505z" class="cls-5" data-name="Path 218" transform="translate(-353.719 -.019)"/>
    <path id="Path_219" d="M391.206 70.827a3.51 3.51 0 0 0-3.506-3.506v7.012a3.511 3.511 0 0 0 3.506-3.506z" class="cls-1" data-name="Path 219" transform="translate(-353.719 -61.42)"/>
    <path id="Path_220" d="M280.5 8.023a9.435 9.435 0 0 0-.1 1.4c0 .111 0 .222.007.333a9.462 9.462 0 0 0 1.552 4.846q.221.334.47.65l3.448 4.335.294.369 2.789 3.506.846 1.063V12.93a3.506 3.506 0 0 1 0-7.012V.02a9.414 9.414 0 0 0-9.3 8z" class="cls-6" data-name="Path 220" transform="translate(-255.824 -.018)"/>
    <path id="Path_221" d="M351.206 67.321a3.506 3.506 0 0 0 0 7.012z" class="cls-2" data-name="Path 221" transform="translate(-317.225 -61.42)"/>
</svg>
