<svg xmlns="http://www.w3.org/2000/svg" width="245.273" height="43.137" viewBox="0 0 245.273 43.137">
    <defs>
        <style>
            .cls-1{fill:#fdfdfd}
        </style>
    </defs>
    <g id="heroshe-colored">
        <g id="Group_3" data-name="Group 3">
            <path id="Path_1" d="M301.449 442.042a16.04 16.04 0 0 1 16.231 16.039 7.533 7.533 0 0 1-.064 1.726H289.5a11.683 11.683 0 0 0 11.95 11.31 12.747 12.747 0 0 0 9.9-4.6h4.984a17.149 17.149 0 0 1-14.825 8.5 16.487 16.487 0 1 1-.064-32.973zm11.883 14.314c-1.023-5.878-5.687-10.416-11.822-10.416a12.192 12.192 0 0 0-12.01 10.416z" class="cls-1" data-name="Path 1" transform="translate(-243.153 -431.901)"/>
            <path id="Path_2" d="M362.756 458.17c0-10.671 5.432-15.527 13.1-15.527a4.833 4.833 0 0 1 .958.064v3.9a4.828 4.828 0 0 0-.958-.064c-5.367 0-9.01 3.706-9.01 11.63v17.147h-4.09z" class="cls-1" data-name="Path 2" transform="translate(-279.389 -432.181)"/>
            <path id="Path_3" d="M433.928 458.528a16.444 16.444 0 1 1-4.816-11.67 16.486 16.486 0 0 1 4.816 11.67zm-28.882 0a12.4 12.4 0 1 0 12.4-12.4 12.4 12.4 0 0 0-12.4 12.4z" class="cls-1" data-name="Path 3" transform="translate(-297.247 -431.9)"/>
            <path id="Path_4" d="M478.276 465.685h3.962c0 3.578 3.258 5.687 7.285 5.687 4.537 0 7.093-2.11 7.093-5.559-.128-9.138-17.7-3.259-17.7-15.4 0-5.109 4.664-8.371 10.351-8.371 5.752 0 10.353 3.131 10.353 8.69h-3.962c0-3.259-2.875-5.049-6.39-5.049s-6.262 1.789-6.262 4.984c0 8.307 17.509 2.62 17.7 15.208.063 5.878-4.664 9.138-11.247 9.138-5.88.001-11.183-3.449-11.183-9.328z" class="cls-1" data-name="Path 4" transform="translate(-333.392 -431.901)"/>
            <path id="Path_5" d="M564.51 448.8v17.338h-4.089V448.8c0-7.987-4.026-11.757-9.968-11.757s-9.968 3.77-9.968 11.439v17.658H536.4V423h4.089v15.381c2.429-3.961 5.687-5.24 9.968-5.24 8.175.001 14.053 4.921 14.053 15.659z" class="cls-1" data-name="Path 5" transform="translate(-360.562 -423)"/>
            <path id="Path_6" d="M622.047 442.042a16.04 16.04 0 0 1 16.231 16.039 7.515 7.515 0 0 1-.063 1.726H610.1a11.683 11.683 0 0 0 11.948 11.31 12.748 12.748 0 0 0 9.905-4.6h4.984a17.148 17.148 0 0 1-14.824 8.5 16.487 16.487 0 1 1-.064-32.973zm11.883 14.314c-1.023-5.878-5.687-10.416-11.822-10.416a12.192 12.192 0 0 0-12.008 10.416z" class="cls-1" data-name="Path 6" transform="translate(-393.028 -431.901)"/>
            <g id="Group_1" data-name="Group 1">
                <path id="Path_7" d="M210.288 423H206.2v43.132h4.089V423z" class="cls-1" data-name="Path 7" transform="translate(-206.2 -423)"/>
                <path id="Path_8" d="M260.916 423v43.132h4.091V423z" class="cls-1" data-name="Path 8" transform="translate(-231.781 -423)"/>
            </g>
            <circle id="Ellipse_1" cx="2.13" cy="2.13" r="2.13" class="cls-1" data-name="Ellipse 1" transform="translate(9.157 12.263)"/>
            <circle id="Ellipse_2" cx="2.13" cy="2.13" r="2.13" class="cls-1" data-name="Ellipse 2" transform="translate(19.807 12.263)"/>
            <g id="Group_2" data-name="Group 2" transform="translate(4.087 21.855)">
                <path id="Path_9" d="M213.878 464.038v5.005a21.557 21.557 0 0 0 25.049 0v-5.005a17.712 17.712 0 0 1-25.049 0z" class="cls-1" data-name="Path 9" transform="translate(-213.878 -464.038)"/>
            </g>
        </g>
    </g>
</svg>
