<svg xmlns="http://www.w3.org/2000/svg" width="218.539" height="94.078" viewBox="0 0 218.539 94.078">
    <defs>
        <style>
            .cls-1{fill:#e44f26}.cls-2{fill:#f1662a}.cls-3{fill:#ebebeb}.cls-4{fill:#fff}.cls-5{fill:#1572b6}.cls-6{fill:#33a9dc}
        </style>
    </defs>
    <g id="HTML5CSS3Logos" transform="translate(-48.313 -163.646)">
        <g id="Group_2209" data-name="Group 2209" transform="translate(48.313 163.646)">
            <path id="Path_3806" d="M55.862 248.314l-7.549-84.668h82.947L123.7 248.3l-33.968 9.417z" class="cls-1" data-name="Path 3806" transform="translate(-48.313 -163.646)"/>
            <path id="Path_3807" d="M197.038 268.421l27.447-7.61 6.458-72.341h-33.905z" class="cls-2" data-name="Path 3807" transform="translate(-155.564 -181.548)"/>
            <path id="Path_3808" d="M129.7 246.727h-13.739l-.949-10.633H129.7v-10.385h-26.037l.249 2.786 2.552 28.616H129.7z" class="cls-3" data-name="Path 3808" transform="translate(-88.228 -208.402)"/>
            <path id="Path_3809" d="M138.145 368.329l-.045.013-11.565-3.123-.74-8.282h-10.424l1.455 16.3 21.271 5.905.048-.013z" class="cls-3" data-name="Path 3809" transform="translate(-96.671 -303.036)"/>
            <path id="Path_3814" d="M196.909 301.08v10.384H209.7l-1.205 13.467-11.582 3.126v10.8l21.288-5.9.156-1.754 2.44-27.338.253-2.788h-24.141z" class="cls-4" data-name="Path 3814" transform="translate(-155.471 -262.755)"/>
            <path id="Path_3815" d="M196.909 225.709v10.384h25.083l.208-2.334.473-5.264.248-2.786z" class="cls-4" data-name="Path 3815" transform="translate(-155.471 -208.402)"/>
        </g>
        <path id="Path_3817" d="M459.62 248.338l-7.549-84.668h82.947l-7.556 84.654-33.968 9.417z" class="cls-5" data-name="Path 3817" transform="translate(-268.166 -.017)"/>
        <path id="Path_3818" d="M600.8 268.446l27.447-7.61L634.7 188.5h-33.9z" class="cls-6" data-name="Path 3818" transform="translate(-375.419 -17.92)"/>
        <g id="Group_2211" data-name="Group 2211" transform="translate(199.402 180.232)">
            <path id="Path_3819" d="M600.8 244.143h13.741l.949-10.633H600.8v-10.385h26.039l-.249 2.786-2.552 28.616H600.8z" class="cls-4" data-name="Path 3819" transform="translate(-574.821 -223.125)"/>
            <path id="Path_3820" d="M542.127 365.745l-.045.013-11.565-3.123-.74-8.282h-10.423l1.455 16.3 21.271 5.905.048-.013z" class="cls-3" data-name="Path 3820" transform="translate(-516.089 -317.759)"/>
            <path id="Path_3821" d="M613.723 334.156l-1.25 13.907-11.582 3.126v10.8l21.288-5.9.156-1.754 1.806-20.182z" class="cls-4" data-name="Path 3821" transform="translate(-574.888 -303.194)"/>
            <path id="Path_3822" d="M533.657 223.125v10.384h-25.082l-.208-2.334-.473-5.264-.248-2.786z" class="cls-3" data-name="Path 3822" transform="translate(-507.645 -223.125)"/>
            <path id="Path_3823" d="M568.864 298.5v10.384h-11.418l-.208-2.334-.474-5.264-.248-2.786z" class="cls-3" data-name="Path 3823" transform="translate(-542.888 -277.481)"/>
        </g>
    </g>
</svg>
