<svg xmlns="http://www.w3.org/2000/svg" width="45.133" height="39.051" viewBox="0 0 45.133 39.051">
    <defs>
        <style>
            .cls-1{fill:#555}
        </style>
    </defs>
    <g id="http" transform="translate(0 -.5)">
        <path id="Path_36" d="M316.069 204.582a.949.949 0 0 0-.665.26.9.9 0 0 0 0 1.32.961.961 0 0 0 .665.26.92.92 0 0 0 0-1.84zm0 0" class="cls-1" data-name="Path 36" transform="translate(-287.339 -186.092)"/>
        <path id="Path_37" d="M316.173 243.527a.921.921 0 0 0-.66.27.882.882 0 0 0-.282.66.948.948 0 0 0 .27.66.929.929 0 0 0 .672.272.926.926 0 0 0 .919-.92.923.923 0 0 0-.27-.668.882.882 0 0 0-.649-.274zm0 0" class="cls-1" data-name="Path 37" transform="translate(-287.443 -221.604)"/>
        <path id="Path_38" d="M179.468 175.194h-.507l.01-.975a.755.755 0 0 0-.25-.585.788.788 0 0 0-.572-.247.832.832 0 0 0-.835.832v.975h-.27a.754.754 0 0 0-.54.212.682.682 0 0 0-.227.525.721.721 0 0 0 .215.518.729.729 0 0 0 .552.228h.282v3.608a.865.865 0 0 0 .06.33.757.757 0 0 0 .178.265.82.82 0 0 0 1.174 0 .845.845 0 0 0 .232-.6l-.01-3.6h.5a.728.728 0 0 0 .535-.222.743.743 0 0 0-.525-1.273zm0 0" class="cls-1" data-name="Path 38" transform="translate(-160.738 -157.647)"/>
        <path id="Path_39" d="M128.869 175.194h-.51l.012-.975a.764.764 0 0 0-.25-.585.812.812 0 0 0-1.162 0 .807.807 0 0 0-.245.59v.975h-.27a.764.764 0 0 0-.542.212.691.691 0 0 0-.228.525.76.76 0 0 0 .77.745h.28v3.608a.864.864 0 0 0 .06.33.8.8 0 0 0 .18.265.82.82 0 0 0 1.175 0 .846.846 0 0 0 .232-.6l-.012-3.6h.5a.732.732 0 0 0 .535-.222.743.743 0 0 0-.525-1.273zm0 0" class="cls-1" data-name="Path 39" transform="translate(-114.597 -157.647)"/>
        <path id="Path_40" d="M60.869 166.681a2.466 2.466 0 0 0-1.277.335l-.24.163V165a.752.752 0 0 0-.248-.583.777.777 0 0 0-.585-.25.8.8 0 0 0-.595.25.791.791 0 0 0-.25.583v6.9a.793.793 0 0 0 .25.585.832.832 0 0 0 1.185 0 .8.8 0 0 0 .242-.59v-2.848a.913.913 0 0 1 .292-.683.979.979 0 0 1 .7-.28.9.9 0 0 1 .67.288.945.945 0 0 1 .282.688v2.84a.849.849 0 0 0 .845.845.754.754 0 0 0 .585-.25.81.81 0 0 0 .248-.6v-3.108a2.027 2.027 0 0 0-.508-1.46 2.147 2.147 0 0 0-1.596-.646zm0 0" class="cls-1" data-name="Path 40" transform="translate(-52.592 -149.241)"/>
        <path id="Path_41" d="M237.124 193.827a2.97 2.97 0 0 0-.442-.56 2.678 2.678 0 0 0-1.967-.82 2.875 2.875 0 0 0-1.532.423.809.809 0 0 0-1.547.417v6.7a.773.773 0 0 0 .247.6.818.818 0 0 0 .6.248.777.777 0 0 0 .582-.248.8.8 0 0 0 .25-.585v-2.325a2.916 2.916 0 0 0 1.4.347 2.745 2.745 0 0 0 2.786-2.788 2.742 2.742 0 0 0-.16-.948 2.022 2.022 0 0 0-.217-.461zm-2.436 2.6a1.224 1.224 0 1 1 1.222-1.222 1.223 1.223 0 0 1-1.222 1.219zm0 0" class="cls-1" data-name="Path 41" transform="translate(-211.218 -174.969)"/>
        <path id="Path_42" d="M41.293 10.911h-1.447A19.536 19.536 0 0 0 18.168 1a.881.881 0 0 0 .4 1.717A17.846 17.846 0 0 1 33.2 5.765h-4.036a3.533 3.533 0 0 0-3.153 5.145H7.349a17.853 17.853 0 0 1 5.337-5.631.881.881 0 1 0-.986-1.461 19.611 19.611 0 0 0-6.375 7.093H3.837A3.843 3.843 0 0 0 0 14.75V25.1a3.844 3.844 0 0 0 3.837 3.841H5.22a19.553 19.553 0 0 0 3.7 5.021 19.51 19.51 0 0 0 31.03-5.025h1.343a3.845 3.845 0 0 0 3.84-3.841V14.75a3.843 3.843 0 0 0-3.84-3.839zm-13.909-1.6a1.783 1.783 0 0 1 1.78-1.782h6.053a17.842 17.842 0 0 1 2.608 3.383h-9.438a1.8 1.8 0 0 1-1.002-1.603zM16.329 28.937a1.781 1.781 0 0 1-.393 3.518H9.919a17.684 17.684 0 0 1-2.69-3.518zM43.371 25.1a2.08 2.08 0 0 1-2.077 2.079h-9.858a.881.881 0 0 0 0 1.762h6.506a17.716 17.716 0 0 1-26.005 5.28h4a3.544 3.544 0 0 0 3.087-5.28h5.371a.881.881 0 0 0 0-1.762H3.837A2.079 2.079 0 0 1 1.762 25.1V14.75a2.078 2.078 0 0 1 2.075-2.077h37.456a2.079 2.079 0 0 1 2.077 2.077zm0 0" class="cls-1" data-name="Path 42"/>
        <path id="Path_43" d="M396.726 164.386l-2.919 7.256a.7.7 0 0 0-.057.268.889.889 0 0 0 1.707.415l2.931-7.273a.67.67 0 0 0 .057-.277.89.89 0 0 0-1.719-.389zm0 0" class="cls-1" data-name="Path 43" transform="translate(-359.041 -148.916)"/>
        <path id="Path_44" d="M355.359 162.321a.89.89 0 0 0-1.719-.39l-2.918 7.258a.659.659 0 0 0-.058.268.889.889 0 0 0 1.707.413l2.929-7.27a.668.668 0 0 0 .059-.279zm0 0" class="cls-1" data-name="Path 44" transform="translate(-319.753 -146.679)"/>
        <path id="Path_45" d="M161.008 20.5a.88.88 0 0 0 .393-.093l.015-.008a.881.881 0 1 0-.788-1.576l-.015.007a.881.881 0 0 0 .395 1.669zm0 0" class="cls-1" data-name="Path 45" transform="translate(-146.011 -16.626)"/>
        <path id="Path_46" d="M307.578 303.105h-.018a.881.881 0 1 0 0 1.762h.018a.881.881 0 0 0 0-1.762zm0 0" class="cls-1" data-name="Path 46" transform="translate(-279.646 -275.931)"/>
    </g>
</svg>
