<svg xmlns="http://www.w3.org/2000/svg" width="48.332" height="48.332" viewBox="0 0 48.332 48.332">
    <defs>
        <style>
            .cls-1{fill:#e6e9ed}.cls-2{fill:#fcd770}.cls-3{fill:#b4dd7f}.cls-4{fill:#69d6f4}.cls-5{fill:#f0d0b4}
        </style>
    </defs>
    <g id="intercom" transform="translate(-1 -1)">
        <g id="Group_81" data-name="Group 81" transform="translate(1.78 1.78)">
            <path id="Path_495" d="M44.1 30.064a1.564 1.564 0 0 0-1.559 1.559v-2.339a1.57 1.57 0 0 0-1.559-1.559 1.564 1.564 0 0 0-1.559 1.559v-1.559a1.57 1.57 0 0 0-1.559-1.559 1.564 1.564 0 0 0-1.564 1.559v-4.942a4.677 4.677 0 1 0-3.118 0v16.635a1.812 1.812 0 0 1-1.793-1.544l-1.138-7.351a1.459 1.459 0 0 0-1.442-1.239h-.4a1.464 1.464 0 0 0-1.466 1.466 1.513 1.513 0 0 0 .016.187l.3 2.245H5.118A3.117 3.117 0 0 1 2 30.064V5.118A3.117 3.117 0 0 1 5.118 2h40.537a3.117 3.117 0 0 1 3.118 3.118v24.946a3.117 3.117 0 0 1-3.118 3.118v-1.559a1.57 1.57 0 0 0-1.555-1.559z" class="cls-1" data-name="Path 495" transform="translate(-2 -2)"/>
            <circle id="Ellipse_28" cx="1.559" cy="1.559" r="1.559" class="cls-2" data-name="Ellipse 28" transform="translate(40.536 3.118)"/>
            <circle id="Ellipse_29" cx="1.559" cy="1.559" r="1.559" class="cls-2" data-name="Ellipse 29" transform="translate(34.3 3.118)"/>
            <circle id="Ellipse_30" cx="1.559" cy="1.559" r="1.559" class="cls-2" data-name="Ellipse 30" transform="translate(28.064 3.118)"/>
            <circle id="Ellipse_31" cx="1.559" cy="1.559" r="1.559" class="cls-2" data-name="Ellipse 31" transform="translate(15.591 24.946)"/>
            <circle id="Ellipse_32" cx="1.559" cy="1.559" r="1.559" class="cls-2" data-name="Ellipse 32" transform="translate(9.355 24.946)"/>
            <circle id="Ellipse_33" cx="1.559" cy="1.559" r="1.559" class="cls-2" data-name="Ellipse 33" transform="translate(3.118 24.946)"/>
            <path id="Path_496" d="M47.355 21.677a4.688 4.688 0 0 1-3.118 4.412v-2.853a1.57 1.57 0 0 0-1.559-1.559 1.564 1.564 0 0 0-1.559 1.559v2.854a4.678 4.678 0 1 1 6.236-4.412z" class="cls-3" data-name="Path 496" transform="translate(-9.936 -5.307)"/>
            <path id="Path_497" d="M26.268 6v18.709H6V6z" class="cls-4" data-name="Path 497" transform="translate(-2.882 -2.882)"/>
            <path id="Path_498" d="M24.032 22.474H10a3.092 3.092 0 0 1 2.245-2.974l3.212-.92v-1.212a3.116 3.116 0 0 1-1.557-2.69v-1.559a3.115 3.115 0 0 1 3.4-3.1 3.224 3.224 0 0 1 2.838 3.266v1.4a3.116 3.116 0 0 1-1.559 2.689v1.208l3.212.92a3.094 3.094 0 0 1 1.617 1.098 3.154 3.154 0 0 1 .624 1.874z" class="cls-2" data-name="Path 498" transform="translate(-3.764 -3.764)"/>
            <path id="Path_499" d="M49.591 36.252a1.564 1.564 0 0 1 1.559-1.559 1.57 1.57 0 0 1 1.559 1.559v9.191a3.113 3.113 0 0 1-.522 1.731l-2.074 3.1a3.113 3.113 0 0 0-.522 1.731v1.4H38.677v-1.25a3.11 3.11 0 0 0-.686-1.949L36.1 47.844a3.185 3.185 0 0 1-.655-1.536l-1.13-8.5-.3-2.245a1.513 1.513 0 0 1-.015-.184 1.464 1.464 0 0 1 1.466-1.466h.4a1.459 1.459 0 0 1 1.442 1.239l1.135 7.348a1.812 1.812 0 0 0 1.793 1.544V24.559A1.564 1.564 0 0 1 41.8 23a1.57 1.57 0 0 1 1.559 1.559v7.8a1.564 1.564 0 0 1 1.555-1.559 1.57 1.57 0 0 1 1.559 1.559v1.559a1.564 1.564 0 0 1 1.559-1.559 1.57 1.57 0 0 1 1.559 1.559z" class="cls-5" data-name="Path 499" transform="translate(-9.054 -6.63)"/>
        </g>
        <g id="Group_82" data-name="Group 82" transform="translate(1 1)">
            <path id="Path_500" d="M45.434 1H4.9A3.9 3.9 0 0 0 1 4.9v24.943a3.9 3.9 0 0 0 3.9 3.9h21.455l1.045 7.816a3.89 3.89 0 0 0 .819 1.92l1.894 2.367a2.353 2.353 0 0 1 .512 1.462v2.024H43.1v-2.174a2.327 2.327 0 0 1 .393-1.3l2.07-3.106a3.882 3.882 0 0 0 .655-2.162v-6.93a3.9 3.9 0 0 0 3.118-3.819V4.9A3.9 3.9 0 0 0 45.434 1zm-.78 39.592a2.327 2.327 0 0 1-.393 1.3L42.191 45a3.882 3.882 0 0 0-.655 2.162v.615h-9.354v-.465a3.919 3.919 0 0 0-.854-2.435l-1.894-2.367a2.337 2.337 0 0 1-.492-1.152L27.51 30.617a.9.9 0 0 1-.005-.091.684.684 0 0 1 .682-.683h.4a.678.678 0 0 1 .674.578l1.139 7.354a2.583 2.583 0 0 0 2.566 2.2h.78V19.709a.78.78 0 1 1 1.559 0v17.15h1.559V27.5a.78.78 0 1 1 1.559 0v9.355h1.559v-7.8a.78.78 0 1 1 1.559 0v7.8H43.1V31.4a.78.78 0 1 1 1.559 0zM34.521 17.37a2.341 2.341 0 0 0-2.339 2.339v1.558a3.9 3.9 0 1 1 4.677 0v-1.558a2.341 2.341 0 0 0-2.338-2.339zm13.252 12.473a2.335 2.335 0 0 1-1.559 2.2V31.4a2.341 2.341 0 0 0-2.339-2.339 2.312 2.312 0 0 0-.78.143v-.143a2.331 2.331 0 0 0-3.208-2.161 2.3 2.3 0 0 0-3.028-1.587v-2.248a5.457 5.457 0 1 0-4.677 0v15a1.037 1.037 0 0 1-.246-.53l-1.136-7.35a2.229 2.229 0 0 0-2.215-1.9h-.4a2.244 2.244 0 0 0-2.241 2.242 2.36 2.36 0 0 0 .019.3l.182 1.36H4.9a2.341 2.341 0 0 1-2.339-2.339V4.9A2.341 2.341 0 0 1 4.9 2.559h40.534A2.341 2.341 0 0 1 47.773 4.9z" data-name="Path 500" transform="translate(-1 -1)"/>
            <path id="Path_501" d="M21.777 18.522l-2.643-.755v-.207a3.9 3.9 0 0 0 1.559-3.1v-1.4a4.01 4.01 0 0 0-3.551-4.044A3.9 3.9 0 0 0 12.9 12.9v1.559a3.9 3.9 0 0 0 1.559 3.1v.207l-2.643.755A3.9 3.9 0 0 0 9 22.253v.78h15.591v-.78a3.9 3.9 0 0 0-2.814-3.731zM10.7 21.473a2.331 2.331 0 0 1 1.547-1.452l3.774-1.078v-2.249l-.387-.225a2.314 2.314 0 0 1-1.172-2.012V12.9a2.34 2.34 0 0 1 2.551-2.329 2.442 2.442 0 0 1 2.127 2.491v1.4a2.314 2.314 0 0 1-1.172 2.012l-.387.225v2.248l3.774 1.078a2.329 2.329 0 0 1 1.545 1.448H10.7z" data-name="Path 501" transform="translate(-2.764 -2.764)"/>
            <path id="Path_502" d="M5 25.268h21.827V5H5zM6.559 6.559h18.709v17.15H6.559z" data-name="Path 502" transform="translate(-1.882 -1.882)"/>
            <path id="Path_503" d="M7.339 33a2.339 2.339 0 1 0 2.339 2.339A2.341 2.341 0 0 0 7.339 33zm0 3.118a.78.78 0 1 1 .78-.78.78.78 0 0 1-.78.78z" data-name="Path 503" transform="translate(-1.882 -8.054)"/>
            <path id="Path_504" d="M15.339 33a2.339 2.339 0 1 0 2.339 2.339A2.341 2.341 0 0 0 15.339 33zm0 3.118a.78.78 0 1 1 .78-.78.78.78 0 0 1-.78.78z" data-name="Path 504" transform="translate(-3.645 -8.054)"/>
            <path id="Path_505" d="M23.339 33a2.339 2.339 0 1 0 2.339 2.339A2.341 2.341 0 0 0 23.339 33zm0 3.118a.78.78 0 1 1 .78-.78.78.78 0 0 1-.78.78z" data-name="Path 505" transform="translate(-5.409 -8.054)"/>
            <path id="Path_506" d="M55.339 5a2.339 2.339 0 1 0 2.339 2.339A2.341 2.341 0 0 0 55.339 5zm0 3.118a.78.78 0 1 1 .78-.78.78.78 0 0 1-.78.78z" data-name="Path 506" transform="translate(-12.464 -1.882)"/>
            <path id="Path_507" d="M47.339 5a2.339 2.339 0 1 0 2.339 2.339A2.341 2.341 0 0 0 47.339 5zm0 3.118a.78.78 0 1 1 .78-.78.78.78 0 0 1-.78.78z" data-name="Path 507" transform="translate(-10.7 -1.882)"/>
            <path id="Path_508" d="M39.339 5a2.339 2.339 0 1 0 2.339 2.339A2.341 2.341 0 0 0 39.339 5zm0 3.118a.78.78 0 1 1 .78-.78.78.78 0 0 1-.78.78z" data-name="Path 508" transform="translate(-8.936 -1.882)"/>
        </g>
    </g>
</svg>
