<svg xmlns="http://www.w3.org/2000/svg" id="laptop" width="107.96" height="72.33" viewBox="0 0 107.96 72.33">
    <defs>
        <style>
            .cls-1{fill:#4527a0}
        </style>
    </defs>
    <g id="Group_2" data-name="Group 2" transform="translate(16.476 10.105)">
        <g id="Group_1" data-name="Group 1">
            <path id="Path_16" d="M150.821 132.411H80.458a2.323 2.323 0 0 0-2.323 2.323v35.092a2.323 2.323 0 1 0 4.647 0v-32.768H148.5v32.769a2.323 2.323 0 1 0 4.647 0v-35.093a2.324 2.324 0 0 0-2.326-2.323z" class="cls-1" data-name="Path 16" transform="translate(-78.135 -132.411)"/>
        </g>
    </g>
    <g id="Group_4" data-name="Group 4">
        <g id="Group_3" data-name="Group 3">
            <path id="Path_17" d="M105.869 140.306h-4.279V91.512a7.031 7.031 0 0 0-7.023-7.023H13.394a7.031 7.031 0 0 0-7.023 7.023v48.794h-4.28A2.091 2.091 0 0 0 0 142.4v4.1a10.328 10.328 0 0 0 10.316 10.316h87.328A10.328 10.328 0 0 0 107.96 146.5v-4.1a2.091 2.091 0 0 0-2.091-2.094zM11.017 91.512a2.38 2.38 0 0 1 2.377-2.377h81.172a2.379 2.379 0 0 1 2.377 2.377v48.794H65.482a2.047 2.047 0 0 0-.453.037 2.091 2.091 0 0 0-1.7 2.053 3.2 3.2 0 0 1-3.2 3.2H47.827a3.2 3.2 0 0 1-3.2-3.2 2.1 2.1 0 0 0-2.14-2.091h-31.47zm92.761 54.99a6.141 6.141 0 0 1-6.134 6.134H10.316a6.141 6.141 0 0 1-6.134-6.136v-2.014h36.564a7.4 7.4 0 0 0 7.081 5.291h12.306a7.4 7.4 0 0 0 7.081-5.291h36.564v2.014z" class="cls-1" data-name="Path 17" transform="translate(0 -84.489)"/>
        </g>
    </g>
    <g id="Group_6" data-name="Group 6" transform="translate(38.845 22.93)">
        <g id="Group_5" data-name="Group 5">
            <path id="Path_18" d="M202.8 193.912a2.324 2.324 0 0 0-3.286 0L184.9 208.525a2.323 2.323 0 0 0 3.286 3.286L202.8 197.2a2.324 2.324 0 0 0 0-3.288z" class="cls-1" data-name="Path 18" transform="translate(-184.223 -193.232)"/>
        </g>
    </g>
    <g id="Group_8" data-name="Group 8" transform="translate(56.297 31.398)">
        <g id="Group_7" data-name="Group 7">
            <path id="Path_19" d="M276.776 234.072a2.323 2.323 0 0 0-3.286 0l-5.821 5.821a2.323 2.323 0 1 0 3.286 3.286l5.821-5.821a2.323 2.323 0 0 0 0-3.286z" class="cls-1" data-name="Path 19" transform="translate(-266.989 -233.392)"/>
        </g>
    </g>
</svg>
