<svg xmlns="http://www.w3.org/2000/svg" id="laptop_2_" width="38.862" height="38.862" data-name="laptop (2)" viewBox="0 0 38.862 38.862">
    <defs>
        <style>
            .cls-1{fill:#f0bc5e}
        </style>
    </defs>
    <g id="Group_72" data-name="Group 72" transform="translate(5.014 13.79)">
        <path id="Path_370" d="M358.268 323.134a3.134 3.134 0 1 1-3.134-3.134 3.134 3.134 0 0 1 3.134 3.134zm0 0" class="cls-1" data-name="Path 370" transform="translate(-329.435 -308.717)"/>
        <path id="Path_371" d="M214.268 339.134a3.134 3.134 0 1 1-3.134-3.134 3.134 3.134 0 0 1 3.134 3.134zm0 0" class="cls-1" data-name="Path 371" transform="translate(-196.717 -323.464)"/>
        <path id="Path_372" d="M70.268 339.134A3.134 3.134 0 1 1 67.134 336a3.134 3.134 0 0 1 3.134 3.134zm0 0" class="cls-1" data-name="Path 372" transform="translate(-64 -323.464)"/>
        <path id="Path_373" d="M294.268 275.134a3.134 3.134 0 1 1-3.134-3.134 3.134 3.134 0 0 1 3.134 3.134zm0 0" class="cls-1" data-name="Path 373" transform="translate(-270.449 -264.478)"/>
        <path id="Path_374" d="M142.268 291.134a3.134 3.134 0 1 1-3.134-3.134 3.134 3.134 0 0 1 3.134 3.134zm0 0" class="cls-1" data-name="Path 374" transform="translate(-130.359 -279.225)"/>
        <path id="Path_375" d="M90.029 184.775H80V176h10.029zm0 0" class="cls-1" data-name="Path 375" transform="translate(-78.746 -176)"/>
    </g>
    <path id="Path_376" d="M48 448h1.254v1.254H48zm0 0" data-name="Path 376" transform="translate(-44.239 -412.899)"/>
    <path id="Path_377" d="M80 448h1.254v1.254H80zm0 0" data-name="Path 377" transform="translate(-73.732 -412.899)"/>
    <path id="Path_378" d="M112 448h1.254v1.254H112zm0 0" data-name="Path 378" transform="translate(-103.225 -412.899)"/>
    <path id="Path_379" d="M384 448h5.014v1.254H384zm0 0" data-name="Path 379" transform="translate(-353.913 -412.899)"/>
    <path id="Path_380" d="M37.609 32.594V11.909a3.138 3.138 0 0 0-3.134-3.134h-1.88a8.775 8.775 0 0 0-17.551 0H4.388a3.138 3.138 0 0 0-3.134 3.134v20.685H0v3.134a3.138 3.138 0 0 0 3.134 3.134h32.594a3.138 3.138 0 0 0 3.134-3.134v-3.134zm-3.134-22.565a1.883 1.883 0 0 1 1.88 1.88v20.685H35.1V12.536a1.255 1.255 0 0 0-1.254-1.254h-1.622a8.714 8.714 0 0 0 .269-1.254zM16.661 6.472l6.653 2.772 2.278 6.833a7.51 7.51 0 0 1-8.931-9.605zm10.122 9.214l-2.247-6.741 5.021-5.021a7.508 7.508 0 0 1-2.774 11.762zM23.819 1.254a7.487 7.487 0 0 1 4.852 1.783l-5 5-6.524-2.72a7.523 7.523 0 0 1 6.672-4.063zM2.507 11.909a1.883 1.883 0 0 1 1.88-1.88h10.757a8.631 8.631 0 0 0 .269 1.254H5.014a1.255 1.255 0 0 0-1.254 1.254v20.057H2.507zm35.1 23.819a1.883 1.883 0 0 1-1.88 1.88H3.134a1.883 1.883 0 0 1-1.88-1.88v-1.88h12.913a4.871 4.871 0 0 0 3.277 1.252h3.976a4.871 4.871 0 0 0 3.28-1.252h7.9v-1.254h-8.414l-.186.184a3.629 3.629 0 0 1-2.584 1.07h-3.973a3.63 3.63 0 0 1-2.584-1.07l-.183-.184H5.014V12.536H15.9a8.756 8.756 0 0 0 15.833 0h2.112v21.312h3.761zm0 0" data-name="Path 380"/>
    <path id="Path_381" d="M104.446 291.761a1.87 1.87 0 0 0-1.041.316l-2.187-1.64a1.852 1.852 0 0 0 .094-.557 1.88 1.88 0 1 0-3.761 0 1.861 1.861 0 0 0 .111.613l-3.511 2.807a1.843 1.843 0 0 0-2.109.092l-2.7-1.8a1.839 1.839 0 0 0 .063-.458 1.88 1.88 0 0 0-3.761 0 1.839 1.839 0 0 0 .063.458l-2.7 1.8a1.861 1.861 0 0 0-1.121-.38 1.88 1.88 0 1 0 1.88 1.88 1.839 1.839 0 0 0-.063-.458l2.7-1.8a1.845 1.845 0 0 0 2.243 0l2.7 1.8a1.843 1.843 0 0 0-.063.458 1.88 1.88 0 1 0 3.761 0 1.861 1.861 0 0 0-.111-.613l3.51-2.809a1.856 1.856 0 0 0 2.029-.029l2.187 1.64a1.852 1.852 0 0 0-.094.557 1.88 1.88 0 1 0 1.88-1.88zm-22.566 3.761a.627.627 0 1 1 .627-.627.628.628 0 0 1-.627.627zm5.641-3.761a.627.627 0 1 1 .627-.627.628.628 0 0 1-.626.627zm5.641 3.761a.627.627 0 1 1 .627-.627.628.628 0 0 1-.626.627zm6.268-5.014a.627.627 0 1 1 .627-.627.628.628 0 0 1-.626.626zm5.014 3.761a.627.627 0 1 1 .627-.627.628.628 0 0 1-.625.626zm0 0" data-name="Path 381" transform="translate(-73.732 -265.435)"/>
    <path id="Path_382" d="M112 208h5.014v1.254H112zm0 0" data-name="Path 382" transform="translate(-103.225 -191.703)"/>
    <path id="Path_383" d="M112 240h5.014v1.254H112zm0 0" data-name="Path 383" transform="translate(-103.225 -221.196)"/>
    <path id="Path_384" d="M224 256h1.254v1.254H224zm0 0" data-name="Path 384" transform="translate(-206.449 -235.942)"/>
    <path id="Path_385" d="M256 256h12.536v1.254H256zm0 0" data-name="Path 385" transform="translate(-235.942 -235.942)"/>
</svg>
