<svg xmlns="http://www.w3.org/2000/svg" id="layout" width="37" height="37" viewBox="0 0 37 37">
    <defs>
        <style>
            .cls-1{fill:#555}
        </style>
    </defs>
    <g id="Group_2" data-name="Group 2">
        <g id="Group_1" data-name="Group 1">
            <path id="Path_10" d="M6.793 0H5.059A5.064 5.064 0 0 0 0 5.059v26.882A5.064 5.064 0 0 0 5.059 37h1.734a5.064 5.064 0 0 0 5.059-5.059V5.059A5.064 5.064 0 0 0 6.793 0zm2.168 31.941a2.17 2.17 0 0 1-2.168 2.168H5.059a2.17 2.17 0 0 1-2.168-2.168V5.059a2.17 2.17 0 0 1 2.168-2.168h1.734a2.17 2.17 0 0 1 2.168 2.168z" class="cls-1" data-name="Path 10"/>
            <path id="Path_11" d="M223.055 0h-12A5.064 5.064 0 0 0 206 5.059v1.734a5.064 5.064 0 0 0 5.059 5.059h12a5.064 5.064 0 0 0 5.059-5.059V5.059A5.064 5.064 0 0 0 223.055 0zm2.168 6.793a2.17 2.17 0 0 1-2.168 2.168h-12a2.17 2.17 0 0 1-2.168-2.168V5.059a2.17 2.17 0 0 1 2.168-2.168h12a2.17 2.17 0 0 1 2.168 2.168z" class="cls-1" data-name="Path 11" transform="translate(-191.113)"/>
            <path id="Path_12" d="M223.055 207h-12a5.064 5.064 0 0 0-5.055 5.059v11.924a5.064 5.064 0 0 0 5.059 5.059h12a5.064 5.064 0 0 0 5.059-5.059 1.445 1.445 0 0 0-2.891 0 2.17 2.17 0 0 1-2.168 2.168h-12a2.17 2.17 0 0 1-2.168-2.168v-11.924a2.17 2.17 0 0 1 2.168-2.168h12a2.17 2.17 0 0 1 2.168 2.168v4.7a1.445 1.445 0 0 0 2.891 0v-4.7a5.064 5.064 0 0 0-5.063-5.059z" class="cls-1" data-name="Path 12" transform="translate(-191.113 -192.041)"/>
        </g>
    </g>
</svg>
