<svg xmlns="http://www.w3.org/2000/svg" width="39.547" height="35.892" viewBox="0 0 39.547 35.892">
    <defs>
        <style>
            .cls-1{fill:#fff}.cls-2{fill:#556080}.cls-3{fill:#ebba16}.cls-4{fill:#dd352e}.cls-5{fill:#b02721}
        </style>
    </defs>
    <g id="map-location" transform="translate(0 -2.75)">
        <path id="Path_195" d="M36.4 24.76H5.831L3.4 44.032h35.069z" class="cls-1" data-name="Path 195" transform="translate(-1.141 -7.383)"/>
        <path id="Path_196" d="M35.258 23.754l2.069 19.272H2.261L4.69 23.754h30.568m1.791-1.994H2.931l-.22 1.74L.282 42.776 0 45.019h39.547l-.237-2.206-2.07-19.272-.191-1.781z" class="cls-2" data-name="Path 196" transform="translate(0 -6.377)"/>
        <path id="Path_197" d="M12.1 42.631a4.244 4.244 0 0 1-.511-.031 3.16 3.16 0 0 1-.434-.082.664.664 0 0 1 .332-1.287 2.157 2.157 0 0 0 .263.05 3.22 3.22 0 0 0 .807-.01.664.664 0 0 1 .166 1.318 4.818 4.818 0 0 1-.623.042zm3.09-.77a.665.665 0 0 1-.24-1.285c.393-.152.789-.321 1.179-.5a.664.664 0 0 1 .565 1.2c-.417.2-.843.377-1.265.54a.632.632 0 0 1-.238.045zM9.644 40.71a.665.665 0 0 1-.661-.6 3.9 3.9 0 0 1-.019-.393c0-.077 0-.154.006-.231a4.394 4.394 0 0 1 .15-.934.664.664 0 0 1 1.28.348 3.052 3.052 0 0 0-.1.653v.165a2.4 2.4 0 0 0 .013.259.666.666 0 0 1-.594.729zm9.09-.664a.665.665 0 0 1-.363-1.222c.356-.231.708-.478 1.05-.736a.665.665 0 1 1 .8 1.061c-.367.276-.746.542-1.126.789a.664.664 0 0 1-.361.108zm3.166-2.425a.664.664 0 0 1-.392-1.2c.139-.1.28-.2.426-.293a8.416 8.416 0 0 1 .8-.457.665.665 0 1 1 .6 1.188 7.174 7.174 0 0 0-.671.383q-.187.123-.367.254a.664.664 0 0 1-.396.125zm-10.6-.314a.664.664 0 0 1-.318-1.248 2.975 2.975 0 0 1 1.093-.346 2.421 2.421 0 0 1 .592.005.664.664 0 0 1-.174 1.317 1.078 1.078 0 0 0-.27 0 1.639 1.639 0 0 0-.607.192.664.664 0 0 1-.322.079zm14.244-1.231a.665.665 0 0 1-.138-1.314 15.86 15.86 0 0 1 1.368-.227.656.656 0 0 1 .741.577.664.664 0 0 1-.577.741c-.442.055-.864.125-1.253.208a.632.632 0 0 1-.148.015zm3.961-.41a.664.664 0 0 1-.027-1.328l1.324-.054a.654.654 0 0 1 .694.634.665.665 0 0 1-.634.694l-1.33.054zm3.973-.294a.665.665 0 0 1-.134-1.316 2.345 2.345 0 0 0 .9-.349.69.69 0 0 1 .956.1.641.641 0 0 1-.093.916 2.28 2.28 0 0 1-.112.081 3.629 3.629 0 0 1-1.377.555.662.662 0 0 1-.147.012zm2.7-2.678a.677.677 0 0 1-.2-.03.664.664 0 0 1-.438-.831 1.47 1.47 0 0 0 .064-.336v-.077a1.325 1.325 0 0 0-.086-.461.664.664 0 1 1 1.246-.462 2.648 2.648 0 0 1 .169.924c0 .056 0 .111-.005.166a2.788 2.788 0 0 1-.122.641.664.664 0 0 1-.631.465zm-3.363-2.729a.664.664 0 0 1-.18-1.3 3.933 3.933 0 0 1 1.586-.12.665.665 0 0 1-.178 1.317 2.625 2.625 0 0 0-1.047.08.629.629 0 0 1-.183.022z" class="cls-3" data-name="Path 197" transform="translate(-3.007 -8.641)"/>
        <path id="Path_198" d="M33.535 8.851c-.348-2.657-1.737-6.1-7.192-6.1s-6.843 3.444-7.192 6.1a13.032 13.032 0 0 0 .219 4.374A29.313 29.313 0 0 0 26.134 26.9a.287.287 0 0 0 .419 0 29.313 29.313 0 0 0 6.763-13.674 13 13 0 0 0 .219-4.375zM26.344 14a4.217 4.217 0 1 1 4.217-4.217A4.217 4.217 0 0 1 26.344 14z" class="cls-4" data-name="Path 198" transform="translate(-6.393)"/>
        <g id="Group_50" data-name="Group 50" transform="translate(15.07 4.897)">
            <path id="Path_199" d="M27.559 5.981a4.881 4.881 0 1 0 4.882 4.881 4.887 4.887 0 0 0-4.882-4.881zm0 8.434a3.552 3.552 0 1 1 3.553-3.553 3.557 3.557 0 0 1-3.553 3.553z" class="cls-5" data-name="Path 199" transform="translate(-22.677 -5.981)"/>
        </g>
    </g>
</svg>
