<svg xmlns="http://www.w3.org/2000/svg" width="36.688" height="32.684" viewBox="0 0 36.688 32.684">
    <defs>
        <style>
            .cls-1{fill:#1e0478}.cls-2{fill:#9b8ccc}.cls-3{fill:#fff}.cls-4{fill:#6f7ccd}
        </style>
    </defs>
    <g id="monitor">
        <path id="Path_3505" d="M36.687 30.152v22.271a2.218 2.218 0 0 1-2.215 2.215H23.419v1.612a2.682 2.682 0 0 0 2.681 2.679h2.437a.846.846 0 0 1 0 1.691H8.153a.846.846 0 0 1 0-1.691h2.436a2.682 2.682 0 0 0 2.679-2.679v-1.612H2.215A2.218 2.218 0 0 1 0 52.423V30.152a2.218 2.218 0 0 1 2.215-2.215h32.258a2.218 2.218 0 0 1 2.214 2.215zM35 52.423v-4.444H1.691v4.444a.524.524 0 0 0 .524.524h32.258a.524.524 0 0 0 .527-.524zm0-6.136V30.152a.524.524 0 0 0-.524-.524H2.215a.524.524 0 0 0-.524.524v16.135zM14.039 58.929h8.609a4.352 4.352 0 0 1-.921-2.679v-1.612H14.96v1.612a4.351 4.351 0 0 1-.921 2.679z" class="cls-1" data-name="Path 3505" transform="translate(0 -27.937)"/>
        <path id="Path_3506" d="M56.91 307.637v4.444a.524.524 0 0 1-.524.523H24.129a.524.524 0 0 1-.524-.523v-4.444zm-15.74 2.484a.913.913 0 1 0-.913.913.912.912 0 0 0 .913-.913z" class="cls-2" data-name="Path 3506" transform="translate(-21.914 -287.595)"/>
        <path id="Path_3507" d="M56.91 52.066V68.2H23.6V52.066a.524.524 0 0 1 .524-.524h32.262a.524.524 0 0 1 .524.524zm-11.66 8.272a.846.846 0 0 0-1.2-1.2l-2.381 2.382a.846.846 0 1 0 1.2 1.2zm-3.543-3.464a.846.846 0 1 0-1.2-1.2l-5.977 5.977a.846.846 0 1 0 1.2 1.2z" class="cls-3" data-name="Path 3507" transform="translate(-21.914 -49.851)"/>
        <path id="Path_3508" d="M276.122 154.384a.847.847 0 0 1 0 1.2l-2.382 2.381a.846.846 0 0 1-1.2-1.2l2.381-2.382a.847.847 0 0 1 1.201.001z" class="cls-1" data-name="Path 3508" transform="translate(-252.785 -145.094)"/>
        <path id="Path_3509" d="M204.534 404.862h-8.61a4.352 4.352 0 0 0 .921-2.679v-1.612h6.767v1.612a4.352 4.352 0 0 0 .922 2.679z" class="cls-4" data-name="Path 3509" transform="translate(-181.885 -373.87)"/>
        <g id="Group_2163" data-name="Group 2163" transform="translate(12.373 5.579)">
            <path id="Path_3510" d="M180.1 106.044a.846.846 0 0 1 0 1.2l-5.978 5.977a.846.846 0 0 1-1.2-1.2l5.977-5.977a.846.846 0 0 1 1.201 0z" class="cls-1" data-name="Path 3510" transform="translate(-172.681 -105.797)"/>
            <circle id="Ellipse_95" cx=".913" cy=".913" r=".913" class="cls-1" data-name="Ellipse 95" transform="translate(5.058 16.034)"/>
        </g>
    </g>
</svg>
