<svg xmlns="http://www.w3.org/2000/svg" width="33.501" height="43.63" viewBox="0 0 33.501 43.63">
    <defs>
        <style>
            .cls-1{fill:#fff}.cls-2{fill:#d9d7ca}.cls-3{fill:#cc4b4c}
        </style>
    </defs>
    <g id="pdf">
        <path id="Path_3497" d="M30.251 0H7.64C7.01 0 6.5.51 6.5 1.5v41.35a1.173 1.173 0 0 0 1.14.779h31.221A1.173 1.173 0 0 0 40 42.85V10.111c0-.542-.072-.717-.2-.845L30.735.2a.688.688 0 0 0-.484-.2z" class="cls-1" data-name="Path 3497" transform="translate(-6.5)"/>
        <path id="Path_3498" d="M37.5.151v9.232h9.232z" class="cls-2" data-name="Path 3498" transform="translate(-13.348 -.033)"/>
        <path id="Path_3499" d="M19.051 27.489a1.251 1.251 0 0 1-.753-.254 1.867 1.867 0 0 1-.869-1.747c.142-1.268 1.71-2.6 4.663-3.948a52.3 52.3 0 0 0 2.951-8.375c-.778-1.692-1.533-3.888-.982-5.176a1.494 1.494 0 0 1 .884-.947 3.825 3.825 0 0 1 .792-.134c.393 0 .738.506.982.817.23.293.751.914-.291 5.3a24.9 24.9 0 0 0 3.964 5.892 15.157 15.157 0 0 1 2.616-.279c1.22 0 1.959.284 2.261.87a1.577 1.577 0 0 1-.3 1.683 2.071 2.071 0 0 1-1.73.928 5.179 5.179 0 0 1-3.281-1.78 37.33 37.33 0 0 0-6.878 2.2 22.106 22.106 0 0 1-1.857 3.312c-.802 1.116-1.49 1.638-2.172 1.638zm2.074-3.994c-1.665.936-2.344 1.7-2.393 2.138-.008.072-.029.26.336.539.116-.037.794-.346 2.057-2.677zm10.625-3.461c.635.488.79.735 1.205.735a1.175 1.175 0 0 0 .943-.344 1.233 1.233 0 0 0 .179-.323c-.1-.051-.223-.153-.915-.153a11.391 11.391 0 0 0-1.412.085zm-5.82-5.128a55.544 55.544 0 0 1-2.084 5.894 38.928 38.928 0 0 1 5.061-1.574 26.669 26.669 0 0 1-2.977-4.32zm-.473-6.593a1.869 1.869 0 0 0 .075 2.506c.739-1.648-.042-2.519-.075-2.506z" class="cls-3" data-name="Path 3499" transform="translate(-8.912 -1.526)"/>
        <path id="Path_3500" d="M38.861 52.245H7.64A1.14 1.14 0 0 1 6.5 51.1V39H40v12.1a1.14 1.14 0 0 1-1.139 1.145z" class="cls-3" data-name="Path 3500" transform="translate(-6.5 -8.615)"/>
        <g id="Group_2161" data-name="Group 2161" transform="translate(7.202 33.442)">
            <path id="Path_3501" d="M17.023 50.774h-1.279v-7.85H18a3.169 3.169 0 0 1 .99.16 2.693 2.693 0 0 1 .879.479 2.5 2.5 0 0 1 .629.772 2.139 2.139 0 0 1 .24 1.017 2.783 2.783 0 0 1-.2 1.081 2.26 2.26 0 0 1-.565.815 2.545 2.545 0 0 1-.873.511 3.361 3.361 0 0 1-1.129.181h-.948v2.834zm0-6.881V47h1.172a1.392 1.392 0 0 0 .464-.08 1.168 1.168 0 0 0 .421-.261 1.276 1.276 0 0 0 .309-.506 2.4 2.4 0 0 0 .117-.8 2.175 2.175 0 0 0-.053-.442 1.276 1.276 0 0 0-.218-.479 1.291 1.291 0 0 0-.464-.383 1.722 1.722 0 0 0-.788-.154h-.958z" class="cls-1" data-name="Path 3501" transform="translate(-15.744 -42.924)"/>
            <path id="Path_3502" d="M30.422 46.631a5.767 5.767 0 0 1-.208 1.656 4.118 4.118 0 0 1-.527 1.151 2.709 2.709 0 0 1-.719.73 3.607 3.607 0 0 1-.772.4 3.191 3.191 0 0 1-.682.171 4.54 4.54 0 0 1-.458.036h-2.972v-7.85h2.365a4.493 4.493 0 0 1 1.741.314 3.615 3.615 0 0 1 1.247.836 3.431 3.431 0 0 1 .74 1.187 3.932 3.932 0 0 1 .245 1.369zm-3.792 3.206a2.116 2.116 0 0 0 1.875-.831 4.216 4.216 0 0 0 .575-2.406 4.078 4.078 0 0 0-.117-.969 2.073 2.073 0 0 0-.453-.868 2.389 2.389 0 0 0-.911-.629 3.922 3.922 0 0 0-1.491-.24h-.746v5.944z" class="cls-1" data-name="Path 3502" transform="translate(-17.586 -42.924)"/>
            <path id="Path_3503" d="M35.9 43.893v2.471h3.281v.873H35.9v3.536h-1.3v-7.85h4.91v.969z" class="cls-1" data-name="Path 3503" transform="translate(-19.909 -42.924)"/>
        </g>
    </g>
</svg>
