<svg xmlns="http://www.w3.org/2000/svg" width="30.148" height="30.135" viewBox="0 0 30.148 30.135">
    <defs>
        <style>
            .cls-1{fill:#fff}
        </style>
    </defs>
    <g id="phone-receiver" transform="rotate(11 3.43 25.56)">
        <g id="Group_28" data-name="Group 28" transform="translate(0 .188)">
            <path id="Path_40" d="M25.7 20.47a1.243 1.243 0 0 1-.381 1.089L21.7 25.153a2.038 2.038 0 0 1-.64.463 2.644 2.644 0 0 1-.776.245q-.027 0-.164.014t-.354.014a12.551 12.551 0 0 1-1.674-.177 12.715 12.715 0 0 1-2.831-.871 23.765 23.765 0 0 1-3.8-2.083 28.315 28.315 0 0 1-4.519-3.811 29.832 29.832 0 0 1-3.158-3.594 25.6 25.6 0 0 1-2.01-3.173A17.082 17.082 0 0 1 .631 9.54 14.011 14.011 0 0 1 .113 7.5 6.743 6.743 0 0 1 0 6.15q.027-.49.027-.544a2.646 2.646 0 0 1 .25-.776 2.04 2.04 0 0 1 .463-.64L4.36.569a1.2 1.2 0 0 1 .872-.381 1.016 1.016 0 0 1 .626.2 1.893 1.893 0 0 1 .463.5l2.913 5.534a1.325 1.325 0 0 1 .136.953 1.7 1.7 0 0 1-.463.871L7.573 9.58a.454.454 0 0 0-.1.177.672.672 0 0 0-.041.2 4.916 4.916 0 0 0 .49 1.307 12 12 0 0 0 1.007 1.593 17.683 17.683 0 0 0 1.933 2.164 18.033 18.033 0 0 0 2.178 1.947 12.577 12.577 0 0 0 1.593 1.021 4.233 4.233 0 0 0 .98.395l.34.068a.649.649 0 0 0 .177-.041.455.455 0 0 0 .177-.1l1.552-1.579a1.668 1.668 0 0 1 1.143-.436 1.422 1.422 0 0 1 .735.163h.027l5.254 3.1a1.37 1.37 0 0 1 .682.911z" class="cls-1" data-name="Path 40" transform="translate(0 -.188)"/>
        </g>
    </g>
</svg>
