<svg xmlns="http://www.w3.org/2000/svg" width="163.083" height="163.083" viewBox="0 0 163.083 163.083">
    <defs>
        <style>
            .cls-1{fill:#64b5f6}.cls-2{fill:#fdd835}.cls-3{fill:#7c4dff}.cls-4{fill:#651fff}.cls-5{fill:#42a5f5}.cls-6{fill:#fbc02d}.cls-7{fill:#ef5350}
        </style>
    </defs>
    <g id="profits">
        <path id="Path_3058" d="M200.771 176v107.023H160V194.3l18.3-18.3zm0 0" class="cls-1" data-name="Path 3058" transform="translate(-109.036 -119.94)"/>
        <path id="Path_3059" d="M360.771 64v142.7H320V99.674h2.854L355.266 64zm0 0" class="cls-2" data-name="Path 3059" transform="translate(-218.073 -43.615)"/>
        <path id="Path_3060" d="M40.771 288v71.349H0V293.1h28.489l5.1-5.1zm0 0" class="cls-3" data-name="Path 3060" transform="translate(0 -196.266)"/>
        <path id="Path_3061" d="M33.585 288h7.185v21.608l-3.87 3.874H0V293.1h28.488zm0 0" class="cls-4" data-name="Path 3061" transform="translate(.001 -196.266)"/>
        <path id="Path_3062" d="M178.3 176h22.47v20.385H186.7L160 223.09V194.3zm0 0" class="cls-5" data-name="Path 3062" transform="translate(-109.036 -119.94)"/>
        <path id="Path_3063" d="M360.771 64v24.259l-28.947 31.8H320V99.674h2.854L355.266 64zm0 0" class="cls-6" data-name="Path 3063" transform="translate(-218.073 -43.615)"/>
        <path id="Path_3064" d="M163.083 0v35.674h-10.192V18.3l-43.626 47.953H73.438l-40.771 40.771H0V96.831h28.489L69.26 56.06h35.522l41.688-45.867h-19.06V0zm0 0" class="cls-7" data-name="Path 3064"/>
    </g>
</svg>
