<svg xmlns="http://www.w3.org/2000/svg" width="45.403" height="42.376" viewBox="0 0 45.403 42.376">
    <defs>
        <style>
            .cls-1{fill:#555}
        </style>
    </defs>
    <g id="responsive_1_" data-name="responsive (1)" transform="translate(0 -16)">
        <g id="Group_17" data-name="Group 17" transform="translate(0 16)">
            <g id="Group_16" data-name="Group 16">
                <path id="Path_19" d="M43.132 36.431V19.784A3.788 3.788 0 0 0 39.349 16H6.054a3.788 3.788 0 0 0-3.784 3.784v11.35A2.273 2.273 0 0 0 0 33.4v22.7a2.273 2.273 0 0 0 2.27 2.27h16.648a2.273 2.273 0 0 0 2.27-2.27h6.342a2.27 2.27 0 0 0 2.19-2.867l-1.488-5.457h4.306V56.1a2.273 2.273 0 0 0 2.27 2.27h8.324a2.273 2.273 0 0 0 2.27-2.27V38.7a2.273 2.273 0 0 0-2.27-2.269zM19.674 56.106a.758.758 0 0 1-.757.757H2.27a.758.758 0 0 1-.757-.757v-1.514h18.161zm0-3.027H1.513V36.431h18.161zm0-18.161H1.513V33.4a.758.758 0 0 1 .757-.757h16.648a.758.758 0 0 1 .757.757zm8.586 18.718a.757.757 0 0 1-.73.956h-6.342v-1.513h6.92zm-7.072-2.071v-3.783h5.476l1.036 3.783zm11.351-5.3H21.188v-4.54h11.351zm0-7.567v1.513H21.188V33.4a2.273 2.273 0 0 0-2.27-2.27H3.784V19.784a2.273 2.273 0 0 1 2.27-2.27h33.3a2.273 2.273 0 0 1 2.27 2.27v16.647h-6.81a2.273 2.273 0 0 0-2.275 2.269zm11.351 17.4a.758.758 0 0 1-.757.757h-8.324a.758.758 0 0 1-.757-.757v-1.506h9.837zm0-3.027h-9.838V41.728h9.837zm0-12.864h-9.838V38.7a.758.758 0 0 1 .757-.757h8.324a.758.758 0 0 1 .757.757z" class="cls-1" data-name="Path 19" transform="translate(0 -16)"/>
            </g>
        </g>
        <g id="Group_19" data-name="Group 19" transform="translate(4.005 44.219)">
            <g id="Group_18" data-name="Group 18">
                <path id="Rectangle_81" d="M0 0h4.281v1.513H0z" class="cls-1" data-name="Rectangle 81" transform="rotate(-45 3.654 1.514)"/>
            </g>
        </g>
        <g id="Group_21" data-name="Group 21" transform="translate(7.031 40.436)">
            <g id="Group_20" data-name="Group 20">
                <path id="Rectangle_82" d="M0 0h12.842v1.513H0z" class="cls-1" data-name="Rectangle 82" transform="rotate(-45 10.962 4.54)"/>
            </g>
        </g>
        <g id="Group_23" data-name="Group 23" transform="translate(8.545 38.167)">
            <g id="Group_22" data-name="Group 22">
                <path id="Rectangle_83" d="M0 0h6.421v1.513H0z" class="cls-1" data-name="Rectangle 83" transform="rotate(-45 5.48 2.27)"/>
            </g>
        </g>
        <g id="Group_25" data-name="Group 25" transform="translate(35.785 43.464)">
            <g id="Group_24" data-name="Group 24">
                <path id="Rectangle_84" d="M0 0h5.35v1.513H0z" class="cls-1" data-name="Rectangle 84" transform="rotate(-45 4.566 1.892)"/>
            </g>
        </g>
        <g id="Group_27" data-name="Group 27" transform="translate(37.299 46.494)">
            <g id="Group_26" data-name="Group 26">
                <path id="Rectangle_85" d="M0 0h5.35v1.513H0z" class="cls-1" data-name="Rectangle 85" transform="rotate(-45 4.566 1.892)"/>
            </g>
        </g>
        <g id="Group_29" data-name="Group 29" transform="translate(19.895 24.546)">
            <g id="Group_28" data-name="Group 28">
                <path id="Rectangle_86" d="M0 0h6.421v1.513H0z" class="cls-1" data-name="Rectangle 86" transform="rotate(-45 5.48 2.27)"/>
            </g>
        </g>
        <g id="Group_31" data-name="Group 31" transform="translate(26.706 23.032)">
            <g id="Group_30" data-name="Group 30">
                <path id="Rectangle_87" d="M0 0h6.421v1.513H0z" class="cls-1" data-name="Rectangle 87" transform="rotate(-45 5.48 2.27)"/>
            </g>
        </g>
        <g id="Group_33" data-name="Group 33" transform="translate(22.165 29.087)">
            <g id="Group_32" data-name="Group 32">
                <path id="Rectangle_88" d="M0 0h4.281v1.513H0z" class="cls-1" data-name="Rectangle 88" transform="rotate(-45 3.654 1.514)"/>
            </g>
        </g>
        <g id="Group_35" data-name="Group 35" transform="translate(25.944 20.007)">
            <g id="Group_34" data-name="Group 34">
                <path id="Rectangle_89" d="M0 0h4.291v1.513H0z" class="cls-1" data-name="Rectangle 89" transform="rotate(-45 3.662 1.517)"/>
            </g>
        </g>
        <g id="Group_37" data-name="Group 37" transform="translate(5.297 19.027)">
            <g id="Group_36" data-name="Group 36">
                <path id="Rectangle_90" d="M0 0h1.513v1.513H0z" class="cls-1" data-name="Rectangle 90"/>
            </g>
        </g>
        <g id="Group_39" data-name="Group 39" transform="translate(8.324 19.027)">
            <g id="Group_38" data-name="Group 38">
                <path id="Rectangle_91" d="M0 0h1.513v1.513H0z" class="cls-1" data-name="Rectangle 91"/>
            </g>
        </g>
        <g id="Group_41" data-name="Group 41" transform="translate(11.351 19.027)">
            <g id="Group_40" data-name="Group 40">
                <path id="Rectangle_92" d="M0 0h1.513v1.513H0z" class="cls-1" data-name="Rectangle 92"/>
            </g>
        </g>
    </g>
</svg>
