<svg xmlns="http://www.w3.org/2000/svg" width="45.379" height="47.212" viewBox="0 0 45.379 47.212">
    <defs>
        <style>
            .cls-1{fill:#ff9518}.cls-2{fill:#445ea0}.cls-3{fill:#293d7c}.cls-4{fill:#1a2b63}.cls-5{fill:#c3ddf4}.cls-6{fill:#aec1ed}.cls-7{fill:#fff}.cls-8{fill:#d9eafc}.cls-9{fill:#0f9390}.cls-10{fill:#52bbef}.cls-11{fill:#85a0dd}.cls-12{fill:#91e0e8}.cls-13{fill:#5dc1d8}.cls-14{fill:#eef6ff}
        </style>
    </defs>
    <g id="responsive_2_" data-name="responsive (2)" transform="translate(-9.94)">
        <circle id="Ellipse_26" cx="22.592" cy="22.592" r="22.592" class="cls-1" data-name="Ellipse 26" transform="translate(10.135 2.029)"/>
        <path id="Rectangle_146" d="M0 0h8.7v3.742H0z" class="cls-2" data-name="Rectangle 146" transform="translate(24.009 35.824)"/>
        <path id="Path_406" d="M135.223 430.047a.462.462 0 0 1-.461.461h-15.915a.462.462 0 0 1-.461-.461v-1.495a.462.462 0 0 1 .461-.461h15.915a.462.462 0 0 1 .461.461v1.495z" class="cls-3" data-name="Path 406" transform="translate(-98.446 -388.616)"/>
        <path id="Path_407" d="M120.216 430.047v-1.495a.462.462 0 0 1 .461-.461h-1.83a.462.462 0 0 0-.461.461v1.495a.462.462 0 0 0 .461.461h1.83a.462.462 0 0 1-.461-.461z" class="cls-4" data-name="Path 407" transform="translate(-98.446 -388.616)"/>
        <path id="Path_408" d="M41.383 330.888H9.94v4.483a.925.925 0 0 0 .922.922h30.521v-5.405z" class="cls-3" data-name="Path 408" transform="translate(0 -300.376)"/>
        <path id="Path_409" d="M11.77 335.371v-4.483H9.94v4.483a.925.925 0 0 0 .922.922h1.83a.925.925 0 0 1-.922-.922z" class="cls-4" data-name="Path 409" transform="translate(0 -300.376)"/>
        <path id="Path_410" d="M45.891 105.259h-3.686v10.075a.871.871 0 0 0-.866.872v8.18H14.317v-19.127h-3.491a.888.888 0 0 0-.886.885v20.012h31.443v-9.951a.873.873 0 0 1 .872-.872h4.522v-9.189a.888.888 0 0 0-.886-.885z" class="cls-2" data-name="Path 410" transform="translate(0 -95.553)"/>
        <g id="Group_73" data-name="Group 73" transform="translate(11.711 11.477)">
            <path id="Path_411" d="M31.753 124.464h-2.145a.462.462 0 0 0-.461.461v16.434a.462.462 0 0 0 .461.461h2.145v-17.356z" class="cls-3" data-name="Path 411" transform="translate(-29.147 -124.464)"/>
            <path id="Path_412" d="M362.187 124.464h-2.34v8.306h2.8v-7.842a.462.462 0 0 0-.46-.464z" class="cls-3" data-name="Path 412" transform="translate(-329.353 -124.464)"/>
        </g>
        <path id="Path_413" d="M30.977 141.359v-16.434a.462.462 0 0 1 .461-.461h-1.83a.462.462 0 0 0-.461.461v16.434a.462.462 0 0 0 .461.461h1.83a.462.462 0 0 1-.461-.461z" class="cls-4" data-name="Path 413" transform="translate(-17.436 -112.987)"/>
        <circle id="Ellipse_27" cx="1.121" cy="1.121" r="1.121" class="cls-2" data-name="Ellipse 27" transform="translate(27.238 32.168)"/>
        <path id="Path_414" d="M67.077 6.041a.412.412 0 0 1 .411-.41h10.586V.486A.487.487 0 0 0 77.589 0h-20.2a.487.487 0 0 0-.485.486v28.347h10.17z" class="cls-5" data-name="Path 414" transform="translate(-42.636)"/>
        <path id="Path_415" d="M59.222 0h-1.83a.487.487 0 0 0-.485.486v28.347h1.83V.486A.487.487 0 0 1 59.222 0z" class="cls-6" data-name="Path 415" transform="translate(-42.636)"/>
        <path id="Path_416" d="M183.231 75.176a.873.873 0 0 1 .869-.872V60.472a.412.412 0 0 0-.411-.41h-17.081a.412.412 0 0 0-.411.41v22.884h17.034v-8.18z" class="cls-7" data-name="Path 416" transform="translate(-141.848 -54.524)"/>
        <path id="Path_417" d="M168.437 60.062h-1.83a.412.412 0 0 0-.411.41v22.884h1.83V60.472a.412.412 0 0 1 .411-.41z" class="cls-8" data-name="Path 417" transform="translate(-141.848 -54.524)"/>
        <path id="Path_418" d="M191.116 130.489a.691.691 0 0 1-.52-.236l-1.106-1.264a.692.692 0 1 1 1.041-.911l.586.67.932-1.065a.692.692 0 1 1 1.041.911l-1.452 1.659a.691.691 0 0 1-.522.236z" class="cls-9" data-name="Path 418" transform="translate(-162.837 -115.695)"/>
        <g id="Group_74" data-name="Group 74" transform="translate(31.329 11.673)">
            <path id="Path_419" d="M250 127.974h-7.407a.692.692 0 1 1 0-1.383H250a.692.692 0 1 1 0 1.383z" class="cls-10" data-name="Path 419" transform="translate(-241.9 -126.591)"/>
            <path id="Path_420" d="M250 148.536h-7.407a.692.692 0 1 1 0-1.383H250a.692.692 0 1 1 0 1.383z" class="cls-10" data-name="Path 420" transform="translate(-241.9 -145.257)"/>
        </g>
        <path id="Path_421" d="M191.116 192.176a.692.692 0 0 1-.52-.236l-1.106-1.264a.692.692 0 0 1 1.041-.911l.586.67.932-1.065a.692.692 0 1 1 1.041.911l-1.452 1.659a.691.691 0 0 1-.522.236z" class="cls-9" data-name="Path 421" transform="translate(-162.837 -171.694)"/>
        <g id="Group_75" data-name="Group 75" transform="translate(31.329 17.361)">
            <path id="Path_422" d="M250 189.659h-7.407a.692.692 0 1 1 0-1.383H250a.692.692 0 1 1 0 1.383z" class="cls-10" data-name="Path 422" transform="translate(-241.9 -188.276)"/>
            <path id="Path_423" d="M250 210.222h-7.407a.692.692 0 1 1 0-1.383H250a.692.692 0 1 1 0 1.383z" class="cls-10" data-name="Path 423" transform="translate(-241.9 -206.943)"/>
        </g>
        <path id="Path_424" d="M191.116 253.861a.692.692 0 0 1-.52-.236l-1.106-1.264a.692.692 0 1 1 1.041-.911l.586.67.932-1.064a.692.692 0 1 1 1.041.911l-1.452 1.659a.691.691 0 0 1-.522.235z" class="cls-9" data-name="Path 424" transform="translate(-162.837 -227.691)"/>
        <g id="Group_76" data-name="Group 76" transform="translate(31.329 23.049)">
            <path id="Path_425" d="M250 251.345h-7.407a.692.692 0 0 1 0-1.383H250a.692.692 0 1 1 0 1.383z" class="cls-10" data-name="Path 425" transform="translate(-241.9 -249.962)"/>
            <path id="Path_426" d="M247.275 271.907h-4.684a.692.692 0 1 1 0-1.383h4.684a.692.692 0 0 1 0 1.383z" class="cls-10" data-name="Path 426" transform="translate(-241.899 -268.628)"/>
        </g>
        <g id="Group_77" data-name="Group 77" transform="translate(16.264 5.796)">
            <path id="Path_427" d="M84.61 64.243h-5.4a.692.692 0 1 1 0-1.383h5.4a.692.692 0 1 1 0 1.383z" class="cls-2" data-name="Path 427" transform="translate(-78.522 -62.86)"/>
            <path id="Path_428" d="M84.61 85.086h-5.4a.692.692 0 1 1 0-1.383h5.4a.692.692 0 1 1 0 1.383z" class="cls-2" data-name="Path 428" transform="translate(-78.522 -81.781)"/>
            <path id="Path_429" d="M84.61 105.929h-5.4a.692.692 0 1 1 0-1.383h5.4a.692.692 0 1 1 0 1.383z" class="cls-2" data-name="Path 429" transform="translate(-78.522 -100.702)"/>
            <path id="Path_430" d="M84.61 145.421h-5.4a.692.692 0 1 1 0-1.383h5.4a.692.692 0 1 1 0 1.383z" class="cls-2" data-name="Path 430" transform="translate(-78.522 -136.552)"/>
            <path id="Path_431" d="M84.61 166.265h-5.4a.692.692 0 1 1 0-1.383h5.4a.692.692 0 1 1 0 1.383z" class="cls-2" data-name="Path 431" transform="translate(-78.522 -155.474)"/>
            <path id="Path_432" d="M84.61 187.109h-5.4a.692.692 0 1 1 0-1.383h5.4a.692.692 0 1 1 0 1.383z" class="cls-2" data-name="Path 432" transform="translate(-78.522 -174.396)"/>
            <path id="Path_433" d="M84.61 226.6h-5.4a.692.692 0 1 1 0-1.383h5.4a.692.692 0 1 1 0 1.383z" class="cls-2" data-name="Path 433" transform="translate(-78.522 -210.247)"/>
            <path id="Path_434" d="M84.61 247.443h-5.4a.692.692 0 0 1 0-1.383h5.4a.692.692 0 1 1 0 1.383z" class="cls-2" data-name="Path 434" transform="translate(-78.522 -229.167)"/>
            <path id="Path_435" d="M84.61 268.286h-5.4a.692.692 0 0 1 0-1.383h5.4a.692.692 0 1 1 0 1.383z" class="cls-2" data-name="Path 435" transform="translate(-78.522 -248.088)"/>
            <path id="Path_436" d="M223.492 83.882h-7.456a.692.692 0 1 1 0-1.383h7.456a.692.692 0 1 1 0 1.383z" class="cls-2" data-name="Path 436" transform="translate(-202.728 -80.688)"/>
        </g>
        <path id="Path_437" d="M361.448 234.751a.967.967 0 0 1-.964.964h-9.593a.967.967 0 0 1-.964-.964v-20.275a.967.967 0 0 1 .964-.964h9.593a.967.967 0 0 1 .964.964v20.275z" class="cls-6" data-name="Path 437" transform="translate(-308.636 -193.824)"/>
        <path id="Path_438" d="M351.757 234.751v-20.275a.967.967 0 0 1 .964-.964h-1.83a.967.967 0 0 0-.964.964v20.275a.967.967 0 0 0 .964.964h1.83a.967.967 0 0 1-.964-.964z" class="cls-11" data-name="Path 438" transform="translate(-308.636 -193.824)"/>
        <path id="Path_439" d="M391.485 413.15v1.087a.462.462 0 0 0 .461.461h2.934a.462.462 0 0 0 .461-.461v-1.087z" class="cls-2" data-name="Path 439" transform="translate(-346.362 -375.053)"/>
        <path id="Rectangle_147" d="M0 0h11.521v15.377H0z" class="cls-12" data-name="Rectangle 147" transform="translate(41.291 22.812)"/>
        <path id="Rectangle_148" d="M0 0h1.83v15.377H0z" class="cls-13" data-name="Rectangle 148" transform="translate(41.291 22.812)"/>
        <path id="Path_440" d="M391.092 224.112h-3.278a.692.692 0 0 1 0-1.383h3.278a.692.692 0 1 1 0 1.383z" class="cls-2" data-name="Path 440" transform="translate(-342.402 -202.191)"/>
        <g id="Group_78" data-name="Group 78" transform="translate(42.768 24.219)">
            <path id="Path_441" d="M374.532 266.33a.462.462 0 0 1-.461.461h-7.659a.462.462 0 0 1-.461-.461v-3.224a.462.462 0 0 1 .461-.461h7.659a.462.462 0 0 1 .461.461v3.224z" class="cls-14" data-name="Path 441" transform="translate(-365.951 -262.645)"/>
            <path id="Path_442" d="M372.46 318.719h-5.642a.692.692 0 1 1 0-1.383h5.642a.692.692 0 1 1 0 1.383z" class="cls-14" data-name="Path 442" transform="translate(-366.11 -312.293)"/>
            <path id="Path_443" d="M372.46 340.834h-5.642a.692.692 0 1 1 0-1.383h5.642a.692.692 0 1 1 0 1.383z" class="cls-14" data-name="Path 443" transform="translate(-366.11 -332.369)"/>
            <path id="Path_444" d="M372.46 362.948h-5.642a.692.692 0 1 1 0-1.383h5.642a.692.692 0 1 1 0 1.383z" class="cls-14" data-name="Path 444" transform="translate(-366.11 -352.444)"/>
        </g>
        <g id="Group_79" data-name="Group 79" transform="translate(42.768 24.219)">
            <path id="Path_445" d="M367.782 266.33v-3.224a.462.462 0 0 1 .461-.461h-1.83a.462.462 0 0 0-.461.461v3.224a.462.462 0 0 0 .461.461h1.83a.462.462 0 0 1-.461-.461z" class="cls-8" data-name="Path 445" transform="translate(-365.952 -262.645)"/>
            <path id="Path_446" d="M367.956 318.028a.692.692 0 0 1 .692-.692h-1.83a.692.692 0 1 0 0 1.383h1.83a.692.692 0 0 1-.692-.691z" class="cls-8" data-name="Path 446" transform="translate(-366.11 -312.293)"/>
            <path id="Path_447" d="M367.956 340.143a.691.691 0 0 1 .692-.692h-1.83a.692.692 0 1 0 0 1.383h1.83a.692.692 0 0 1-.692-.691z" class="cls-8" data-name="Path 447" transform="translate(-366.11 -332.369)"/>
            <path id="Path_448" d="M367.956 362.257a.692.692 0 0 1 .692-.692h-1.83a.692.692 0 0 0 0 1.383h1.83a.692.692 0 0 1-.692-.691z" class="cls-8" data-name="Path 448" transform="translate(-366.11 -352.444)"/>
        </g>
        <path id="Path_449" d="M95.672 23.752a.462.462 0 0 1-.461.461h-16.69a.462.462 0 0 1-.461-.461v-1.291a.462.462 0 0 1 .461-.461h16.69a.462.462 0 0 1 .461.461z" class="cls-7" data-name="Path 449" transform="translate(-61.839 -19.971)"/>
    </g>
</svg>
