<svg xmlns="http://www.w3.org/2000/svg" width="38.978" height="45.771" viewBox="0 0 38.978 45.771">
    <defs>
        <style>
            .cls-1{fill:#ff816c}.cls-2{fill:#ef3e35}.cls-3{fill:#fff}
        </style>
    </defs>
    <g id="shield_2_" data-name="shield (2)" transform="translate(-.5 -.001)">
        <path id="Path_53" d="M37.419 30.566a23.092 23.092 0 0 1-5.531 8.616 28.949 28.949 0 0 1-10.809 6.4 3.306 3.306 0 0 1-1.05.185h-.039a3.356 3.356 0 0 1-.645-.064 3.482 3.482 0 0 1-.443-.121 28.948 28.948 0 0 1-10.822-6.4 23.049 23.049 0 0 1-5.53-8.614C.316 24.51.444 17.832.546 12.465v-.082c.021-.443.034-.909.041-1.423a4.851 4.851 0 0 1 4.57-4.752A18.824 18.824 0 0 0 17.969.807L18 .779a2.932 2.932 0 0 1 3.981 0l.03.028a18.827 18.827 0 0 0 12.813 5.4 4.851 4.851 0 0 1 4.566 4.753c.007.518.021.982.041 1.423v.035c.103 5.376.23 12.068-2.012 18.148zm0 0" class="cls-1" data-name="Path 53"/>
        <path id="Path_54" d="M236.339 30.569a23.092 23.092 0 0 1-5.531 8.616A28.949 28.949 0 0 1 220 45.589a3.306 3.306 0 0 1-1.05.185V0a2.937 2.937 0 0 1 1.95.783l.03.028a18.827 18.827 0 0 0 12.813 5.4 4.851 4.851 0 0 1 4.568 4.752c.007.518.021.982.041 1.423v.035c.103 5.379.229 12.068-2.013 18.148zm0 0" class="cls-2" data-name="Path 54" transform="translate(-198.92 -.003)"/>
        <path id="Path_55" d="M113.709 139.806a11.421 11.421 0 0 1-11.367 11.408h-.04a11.407 11.407 0 1 1 0-22.815h.04a11.421 11.421 0 0 1 11.367 11.407zm0 0" class="cls-3" data-name="Path 55" transform="translate(-82.313 -116.92)"/>
        <path id="Path_57" d="M177.524 215.676a1.343 1.343 0 0 1-1.9 1.9l-2.174-2.175-2.175 2.175a1.343 1.343 0 0 1-1.9-1.9l2.174-2.175-2.174-2.175a1.343 1.343 0 0 1 1.9-1.9l2.175 2.175 2.174-2.175a1.343 1.343 0 1 1 1.9 1.9l-2.174 2.174zm0 0" class="cls-2" data-name="Path 57" transform="translate(-153.421 -190.347)"/>
        <path id="Path_58" d="M223.027 215.676a1.343 1.343 0 0 1-1.9 1.9l-2.174-2.175v-3.8l2.174-2.175a1.343 1.343 0 0 1 1.9 1.9l-2.175 2.175zm0 0" class="cls-2" data-name="Path 58" transform="translate(-198.924 -190.347)"/>
    </g>
</svg>
