<svg xmlns="http://www.w3.org/2000/svg" width="39.103" height="45.918" viewBox="0 0 39.103 45.918">
    <defs>
        <style>
            .cls-1{fill:#00dd80}.cls-2{fill:#00aa63}.cls-3{fill:#fff}
        </style>
    </defs>
    <g id="shield_1_" data-name="shield (1)" transform="translate(-.5)">
        <path id="Path_47" d="M37.537 30.664a23.166 23.166 0 0 1-5.548 8.644 29.042 29.042 0 0 1-10.844 6.425 3.317 3.317 0 0 1-1.054.186h-.04a3.367 3.367 0 0 1-.647-.064 3.5 3.5 0 0 1-.445-.121A29.041 29.041 0 0 1 8.1 39.312a23.123 23.123 0 0 1-5.543-8.642C.316 24.589.443 17.889.546 12.505v-.083c.021-.445.034-.912.041-1.427a4.867 4.867 0 0 1 4.585-4.767A18.885 18.885 0 0 0 18.025.81l.03-.028a2.941 2.941 0 0 1 3.993 0l.03.028a18.888 18.888 0 0 0 12.854 5.418A4.867 4.867 0 0 1 39.515 11c.007.519.021.985.041 1.427v.035c.104 5.39.231 12.102-2.019 18.202zm0 0" class="cls-1" data-name="Path 47"/>
        <path id="Path_48" d="M236.4 30.667a23.166 23.166 0 0 1-5.548 8.644A29.042 29.042 0 0 1 220 45.736a3.317 3.317 0 0 1-1.054.186V0a2.946 2.946 0 0 1 1.957.781l.03.028a18.888 18.888 0 0 0 12.857 5.422A4.867 4.867 0 0 1 238.373 11c.007.519.021.985.041 1.427v.035c.103 5.393.23 12.106-2.014 18.205zm0 0" class="cls-2" data-name="Path 48" transform="translate(-198.858 -.003)"/>
        <path id="Path_49" d="M113.782 139.842a11.458 11.458 0 0 1-11.4 11.444h-.04a11.444 11.444 0 1 1 0-22.888h.04a11.458 11.458 0 0 1 11.4 11.444zm0 0" class="cls-3" data-name="Path 49" transform="translate(-82.287 -116.883)"/>
        <path id="Path_51" d="M165.141 214.279l-5.154 5.155-1.114 1.114a1.349 1.349 0 0 1-1.906 0l-2.394-2.4a1.347 1.347 0 1 1 1.905-1.905l1.443 1.443 5.316-5.316a1.347 1.347 0 1 1 1.905 1.905zm0 0" class="cls-2" data-name="Path 51" transform="translate(-139.895 -192.968)"/>
        <path id="Path_52" d="M224.1 214.279l-5.154 5.155v-3.811l3.249-3.249a1.347 1.347 0 0 1 1.905 1.905zm0 0" class="cls-2" data-name="Path 52" transform="translate(-198.858 -192.968)"/>
    </g>
</svg>
