<svg xmlns="http://www.w3.org/2000/svg" width="47.147" height="47.083" viewBox="0 0 47.147 47.083">
    <defs>
        <style>
            .cls-1{fill:#c4e2f2}.cls-2{fill:#2d303b}.cls-3{fill:#3c3f4d}.cls-4{fill:#83b2c6}.cls-5{fill:#1f81a3}.cls-6{fill:#2c92bf}.cls-7{fill:#ff491f}.cls-8{fill:#ffe14d}.cls-9{fill:#fff}
        </style>
    </defs>
    <g id="shopping" transform="translate(0 -.5)">
        <path id="Path_337" d="M47.147 4.548v25.4a4.091 4.091 0 0 1-4.091 4.09H4.09A4.09 4.09 0 0 1 0 29.948v-25.4A4.048 4.048 0 0 1 4.047.5H43.1a4.049 4.049 0 0 1 4.047 4.048zm0 0" class="cls-1" data-name="Path 337"/>
        <path id="Path_338" d="M171.738 341.889l-9.509 2.167-9.51-2.167 1.3-5.457 7.8-2.869 8.611 2.869.422 1.767zm0 0" class="cls-2" data-name="Path 338" transform="translate(-138.656 -302.393)"/>
        <path id="Path_339" d="M47.147 315.066v.481a4.092 4.092 0 0 1-4.091 4.091H4.09A4.091 4.091 0 0 1 0 315.547v-.481zm0 0" class="cls-3" data-name="Path 339" transform="translate(0 -285.6)"/>
        <path id="Path_340" d="M215.854 387.6h-14.545l.881-3.691h12.783zm0 0" class="cls-3" data-name="Path 340" transform="translate(-182.771 -348.101)"/>
        <path id="Path_341" d="M122.095 427.027v1.3H91.867v-1.3a3.038 3.038 0 0 1 3.038-3.038h24.151a3.038 3.038 0 0 1 3.039 3.038zm0 0" class="cls-2" data-name="Path 341" transform="translate(-83.408 -384.492)"/>
        <path id="Path_342" d="M246.756 265.451h-21.35l1.046-10.068h19.258zm0 0" class="cls-4" data-name="Path 342" transform="translate(-204.65 -231.412)"/>
        <path id="Path_343" d="M80 110.86l-.252 1.924-.807 6.148a2.224 2.224 0 0 1-2.205 1.935H67.1a2.224 2.224 0 0 1-2.205-1.935l-1.059-8.072 8.082-2.165zm0 0" class="cls-5" data-name="Path 343" transform="translate(-57.954 -98.232)"/>
        <path id="Path_344" d="M115 153.1l-.807 6.148a2.224 2.224 0 0 1-2.205 1.935h-6.556a2.224 2.224 0 0 1-2.205-1.935l-.547-4.166a1.753 1.753 0 0 1 1.738-1.981zm0 0" class="cls-6" data-name="Path 344" transform="translate(-93.213 -138.549)"/>
        <path id="Path_345" d="M70.194 98.722V99.9a1 1 0 0 1-1 1H52.815a1 1 0 0 1-1-1v-1.178a1 1 0 0 1 1-1H69.2a1 1 0 0 1 .994 1zm0 0" class="cls-5" data-name="Path 345" transform="translate(-47.045 -88.27)"/>
        <path id="Path_346" d="M108.142 98.722V99.9a1 1 0 0 1-1 1h-12.53a1 1 0 0 1-1-1v-1.178a1 1 0 0 1 1-1h12.532a1 1 0 0 1 .998 1zm0 0" class="cls-6" data-name="Path 346" transform="translate(-84.993 -88.27)"/>
        <path id="Path_347" d="M135.476 48.613a1.636 1.636 0 0 0-1.636 1.636v7.794a1.636 1.636 0 1 0 3.271 0v-7.794a1.636 1.636 0 0 0-1.635-1.636zm0 0" class="cls-3" data-name="Path 347" transform="translate(-121.515 -43.683)"/>
        <path id="Path_348" d="M245.709 319.639h-21.35l.474-4.572h20.4zm0 0" class="cls-2" data-name="Path 348" transform="translate(-203.7 -285.6)"/>
        <path id="Path_349" d="M245.414 255.379h-19.257l-2.457 23.613h24.165zm0 0" class="cls-7" data-name="Path 349" transform="translate(-203.104 -231.409)"/>
        <path id="Path_350" d="M188 338.293h-13.388l-1.705 15.978h16.8zm0 0" class="cls-8" data-name="Path 350" transform="translate(-156.984 -306.688)"/>
        <path id="Path_351" d="M301.769 175.885a.722.722 0 0 1-.722-.722V170.4a4.474 4.474 0 1 0-8.948 0v4.762a.722.722 0 1 1-1.443 0V170.4a5.917 5.917 0 0 1 11.834 0v4.762a.721.721 0 0 1-.721.723zm0 0" class="cls-9" data-name="Path 351" transform="translate(-263.892 -148.884)"/>
        <path id="Path_352" d="M226.4 369.747a3.829 3.829 0 0 1-3.825-3.825v-3.1a.722.722 0 0 1 1.443 0v3.1a2.381 2.381 0 0 0 4.762 0v-3.1a.722.722 0 0 1 1.443 0v3.1a3.829 3.829 0 0 1-3.823 3.825zm0 0" class="cls-3" data-name="Path 352" transform="translate(-202.082 -328.3)"/>
        <path id="Path_353" d="M292.605 73.717h-3.079a.722.722 0 0 1 0-1.443h3.079a.722.722 0 0 1 0 1.443zm0 0" class="cls-7" data-name="Path 353" transform="translate(-262.211 -65.164)"/>
        <path id="Path_354" d="M367.451 73.717h-10.007a.722.722 0 0 1 0-1.443h10.007a.722.722 0 1 1 0 1.443zm0 0" class="cls-3" data-name="Path 354" transform="translate(-323.874 -65.164)"/>
        <path id="Path_355" d="M292.605 110.287h-3.079a.722.722 0 0 1 0-1.443h3.079a.722.722 0 0 1 0 1.443zm0 0" class="cls-7" data-name="Path 355" transform="translate(-262.211 -98.367)"/>
        <path id="Path_356" d="M367.451 110.287h-10.007a.722.722 0 0 1 0-1.443h10.007a.722.722 0 1 1 0 1.443zm0 0" class="cls-3" data-name="Path 356" transform="translate(-323.874 -98.367)"/>
    </g>
</svg>
