<svg id="Group_251" data-name="Group 251" xmlns="http://www.w3.org/2000/svg" width="61.881" height="96" viewBox="0 0 61.881 96">
  <path id="Path_62" data-name="Path 62" d="M51.562,0H10.319A10.331,10.331,0,0,0,0,10.319V85.68A10.331,10.331,0,0,0,10.319,96H51.561A10.332,10.332,0,0,0,61.881,85.68V10.319A10.331,10.331,0,0,0,51.562,0ZM21.815,5.626H40.066V8.114a1.261,1.261,0,0,1-1.259,1.259H23.074a1.261,1.261,0,0,1-1.259-1.259ZM56.256,85.68a4.7,4.7,0,0,1-4.693,4.693H10.319A4.7,4.7,0,0,1,5.626,85.68V10.319a4.7,4.7,0,0,1,4.693-4.693h5.87V8.114A6.893,6.893,0,0,0,23.074,15H38.807a6.893,6.893,0,0,0,6.885-6.885V5.626h5.87a4.7,4.7,0,0,1,4.693,4.693Zm0,0" transform="translate(0)" fill="#542ea4"/>
  <path id="Path_63" data-name="Path 63" d="M134.076,431.777H122.825a2.813,2.813,0,1,0,0,5.626h11.251a2.813,2.813,0,1,0,0-5.626Zm0,0" transform="translate(-97.51 -350.82)" fill="#542ea4"/>
</svg>
