<svg xmlns="http://www.w3.org/2000/svg" width="47.296" height="45.321" viewBox="0 0 47.296 45.321">
    <defs>
        <style>
            .cls-1{fill:#ffdc64}.cls-1,.cls-2,.cls-3{stroke:#a55d08}.cls-2{fill:#fff082}.cls-3{fill:#ffc850}
        </style>
    </defs>
    <g id="star_2_" data-name="star (2)" transform="translate(.553 -10.359)">
        <path id="Path_94" d="M85.918 28.524L73.853 27.4 69.06 16.276a.967.967 0 0 0-1.776 0L62.492 27.4l-12.065 1.124a.967.967 0 0 0-.549 1.689l9.1 8-2.661 11.817a.967.967 0 0 0 1.437 1.044l10.419-6.186 10.419 6.186a.967.967 0 0 0 1.437-1.044l-2.665-11.82 9.1-8a.967.967 0 0 0-.546-1.686z" class="cls-1" data-name="Path 94" transform="translate(-45.078 -4.294)"/>
        <g id="Group_46" data-name="Group 46" transform="translate(0 10.971)">
            <path id="Path_95" d="M91.722 11.6c.615.854 2.351 4.523 3.344 6.661a.335.335 0 0 1-.535.385c-1.713-1.619-4.642-4.43-5.257-5.284a1.508 1.508 0 0 1 2.448-1.762z" class="cls-2" data-name="Path 95" transform="translate(-80.962 -10.971)"/>
            <path id="Path_96" d="M358.662 11.6c-.615.854-2.351 4.523-3.344 6.661a.335.335 0 0 0 .535.385c1.713-1.619 4.642-4.43 5.257-5.284a1.508 1.508 0 0 0-2.448-1.762z" class="cls-2" data-name="Path 96" transform="translate(-323.233 -10.971)"/>
            <path id="Path_97" d="M422.387 283.884c-1-.326-5.024-.866-7.362-1.161a.335.335 0 0 0-.2.627c2.063 1.14 5.631 3.076 6.632 3.4a1.508 1.508 0 0 0 .935-2.868z" class="cls-2" data-name="Path 97" transform="translate(-377.239 -258.205)"/>
            <path id="Path_98" d="M1.041 283.884c1-.326 5.024-.866 7.362-1.161a.335.335 0 0 1 .2.627c-2.063 1.14-5.631 3.076-6.632 3.4a1.508 1.508 0 0 1-.935-2.868z" class="cls-2" data-name="Path 98" transform="translate(0 -258.205)"/>
            <path id="Path_99" d="M239.794 407.335c0-1.053.735-5.045 1.179-7.36a.335.335 0 0 1 .659 0c.444 2.315 1.179 6.307 1.179 7.36a1.508 1.508 0 0 1-3.016 0z" class="cls-2" data-name="Path 99" transform="translate(-218.162 -364.634)"/>
        </g>
        <path id="Path_100" d="M70.8 20.323l-1.74-4.047a.967.967 0 0 0-1.776 0L62.492 27.4l-12.065 1.124a.967.967 0 0 0-.549 1.689l9.1 8-2.661 11.817a.967.967 0 0 0 1.437 1.044l1.387-.823A75.057 75.057 0 0 1 70.8 20.323z" class="cls-3" data-name="Path 100" transform="translate(-45.078 -4.294)"/>
    </g>
</svg>
