<svg xmlns="http://www.w3.org/2000/svg" width="100.507" height="101.862" viewBox="0 0 100.507 101.862">
    <defs>
        <style>
            .cls-1{fill:#f3f4f4}.cls-1,.cls-3{fill-rule:evenodd}.cls-2{fill:#a7a9ac}.cls-3{fill:#fff}.cls-4{fill:#b2d235}
        </style>
    </defs>
    <g id="stats-user-stories-a8e2c535">
        <path id="Path_3800" d="M65.279 47.991A20.706 20.706 0 0 1 39.1 28.044c0-5.007 1.434-9.918 4.742-13.177q2.284-2.243 4.587-4.468l16.846 9.725v27.869z" class="cls-1" data-name="Path 3800" transform="translate(22.848 6.077)"/>
        <path id="Path_3801" d="M45.783 101.862c-3.131 0-5.941-1.526-10.262-4.016l-25.144-14.5C.989 77.924.021 76.259.013 65.525L0 36.5c0-10.84.957-12.51 10.251-17.887L35.385 4.088C39.768 1.553 42.613 0 45.737 0S51.679 1.527 56 4.02l25.144 14.5c9.39 5.418 10.356 7.08 10.366 17.824l.013 29.026c0 10.837-.957 12.509-10.251 17.887L56.14 97.779c-4.389 2.53-7.231 4.08-10.357 4.08zm-.047-96.577c-1.679 0-3.739 1.082-7.711 3.375L12.9 23.184c-7.613 4.4-7.613 4.4-7.613 13.312L5.3 65.518c.008 8.793.008 8.793 7.724 13.25l25.141 14.5c4.053 2.337 6.008 3.314 7.621 3.314 1.686 0 3.742-1.084 7.716-3.375l25.124-14.526c7.613-4.4 7.613-4.4 7.61-13.309l-.016-29.025c0-8.793 0-8.793-7.721-13.248L53.355 8.6c-4.05-2.337-6-3.311-7.621-3.311z" class="cls-2" data-name="Path 3801"/>
        <path id="Path_3802" d="M49.631 48.688h-29.84a.908.908 0 0 1 0-1.816h29.84a.91.91 0 0 1 0 1.819zm0-10.742h-29.84a.907.907 0 0 1 0-1.813h29.84a.907.907 0 0 1 0 1.813zm0-11.271h-29.84a.911.911 0 0 1 0-1.82h29.84a.908.908 0 0 1 0 1.816z" class="cls-2" data-name="Path 3802" transform="translate(11.05 14.524)"/>
        <path id="Path_3803" d="M58.11 36.269a13.948 13.948 0 1 0-13.944-13.947A13.974 13.974 0 0 0 58.11 36.269z" class="cls-3" data-name="Path 3803" transform="translate(25.809 4.893)"/>
        <path id="Path_3804" d="M59.086 39.888A16.59 16.59 0 1 1 75.675 23.3a16.613 16.613 0 0 1-16.589 16.588zm0-27.9A11.3 11.3 0 1 0 70.4 23.3 11.317 11.317 0 0 0 59.091 12z" class="cls-4" data-name="Path 3804" transform="translate(24.833 3.92)"/>
        <path id="Path_3805" d="M53.971 21.911a.672.672 0 0 1-.466-.193l-3.355-3.36a.661.661 0 1 1 .935-.932l2.887 2.888 5.387-5.384a.661.661 0 0 1 .935.935l-5.854 5.851a.661.661 0 0 1-.469.195z" class="cls-2" data-name="Path 3805" transform="translate(29.179 8.612)"/>
    </g>
</svg>
