<svg xmlns="http://www.w3.org/2000/svg" width="101.399" height="101.986" viewBox="0 0 101.399 101.986">
    <defs>
        <style>
            .cls-1{fill:#f3f4f4}.cls-1,.cls-3,.cls-5{fill-rule:evenodd}.cls-2{fill:#a7a9ac}.cls-3,.cls-4{fill:#00c0e5}.cls-5{fill:#fff}.cls-6{fill:#b2d235}.cls-7{fill:#f0516f}
        </style>
    </defs>
    <g id="stats-clients-b5bbbd87">
        <path id="Path_3774" d="M11.133 63.25l-2.985-2.811 17.561-19.662 23.705 12.64 12.818-22.3 20.723-12.293 6.673 2.635-2.106 42.847-41.267 24.58-36.174-20.193" class="cls-1" data-name="Path 3774" transform="translate(4.761 11)"/>
        <path id="Path_3775" d="M48.831 101.986c-3.137 0-5.948-1.527-10.275-4.021l-25.175-14.52C3.982 78.019 3.013 76.351 3 65.6V37.027c0-10.853.951-13.014 10.254-18.394L38.417 4.088C42.806 1.553 45.654 0 48.783 0s5.948 1.529 10.275 4.024l25.176 14.518c9.4 5.426 10.37 7.095 10.378 17.845l.016 29.062c0 10.853-.959 12.523-10.267 17.908L59.2 97.9c-4.389 2.535-7.241 4.088-10.367 4.088zm-.048-96.694c-1.684 0-3.744 1.081-7.721 3.375L15.9 23.211c-7.624 4.4-7.624 4.4-7.621 13.325L8.293 65.6c.007 8.8.007 8.8 7.732 13.262L41.2 93.378c4.056 2.34 6.014 3.316 7.632 3.316 1.684 0 3.744-1.082 7.721-3.378l25.16-14.54c7.621-4.408 7.621-4.408 7.621-13.325l-.013-29.061c-.008-8.806-.008-8.806-7.732-13.266L56.417 8.611c-4.056-2.34-6.013-3.318-7.632-3.318z" class="cls-2" data-name="Path 3775" transform="translate(1.753)"/>
        <path id="Path_3776" d="M20.6 41.573a3.907 3.907 0 1 0-3.9-3.909 3.912 3.912 0 0 0 3.9 3.909zm24.048 12.9a3.9 3.9 0 1 0-3.91-3.905 3.914 3.914 0 0 0 3.91 3.905zm12.222-22.3a3.906 3.906 0 1 0-3.9-3.909 3.917 3.917 0 0 0 3.9 3.909z" class="cls-3" data-name="Path 3776" transform="translate(9.757 14.235)"/>
        <path id="Path_3777" d="M6.688 66.3l-1.307-1.184 21.642-23.877 23.886 12.81 11.918-21.737 25.786-15.955.928 1.5-25.393 15.711L51.616 56.43 27.407 43.445" class="cls-4" data-name="Path 3777" transform="translate(3.144 9.558)"/>
        <path id="Path_3778" d="M60.618 25.776a6.536 6.536 0 1 0-6.539-6.536 6.548 6.548 0 0 0 6.539 6.536z" class="cls-5" data-name="Path 3778" transform="translate(31.602 7.424)"/>
        <path id="Path_3779" d="M61.592 29.4a9.178 9.178 0 1 1 9.18-9.177 9.189 9.189 0 0 1-9.18 9.177zm0-13.071a3.89 3.89 0 1 0 3.891 3.89 3.893 3.893 0 0 0-3.891-3.89z" class="cls-6" data-name="Path 3779" transform="translate(30.628 6.451)"/>
        <path id="Path_3780" d="M8.2 56.45a6.535 6.535 0 1 0-6.536-6.532A6.55 6.55 0 0 0 8.2 56.45z" class="cls-5" data-name="Path 3780" transform="translate(.975 25.35)"/>
        <path id="Path_3781" d="M9.18 60.073a9.181 9.181 0 1 1 9.18-9.181 9.193 9.193 0 0 1-9.18 9.181zM9.18 47a3.89 3.89 0 1 0 3.885 3.89A3.894 3.894 0 0 0 9.18 47z" class="cls-7" data-name="Path 3781" transform="translate(0 24.374)"/>
    </g>
</svg>
