<svg xmlns="http://www.w3.org/2000/svg" width="91.822" height="102.199" viewBox="0 0 91.822 102.199">
    <defs>
        <style>
            .cls-1{fill:#f3f4f4}.cls-1,.cls-3,.cls-4,.cls-5{fill-rule:evenodd}.cls-2{fill:#a7a9ac}.cls-3{fill:#f0516f}.cls-4{fill:#00c0e5}.cls-5{fill:#b2d235}
        </style>
    </defs>
    <g id="stats-projects-efbd5c8b">
        <path id="Path_3791" d="M2.355 60.538l.333-33.581 36.923 21.548a10.459 10.459 0 0 0 9.855-.163l38.258-21.885-.5 28.9L79.2 65.884 44.955 84.928z" class="cls-1" data-name="Path 3791" transform="translate(1.376 15.461)"/>
        <path id="Path_3792" d="M44.288 59.407c-2.383 0-4.637-1.149-8.868-3.587L6.921 39.384c-2.475-1.426-4.11-2.37-4.11-3.8 0-1.188 1.134-2.308 4.04-3.989l28.44-16.435c4.29-2.48 6.572-3.647 8.949-3.647s4.636 1.149 8.868 3.587l28.451 16.411c.444.253.887.491 1.309.713 1.61.851 3 1.584 3.047 2.868.036 1.125-.993 2.25-3.446 3.776L53.24 55.76c-4.294 2.481-6.575 3.647-8.952 3.647zm-.051-46.568c-2.057 0-4.2 1.109-8.286 3.47L7.515 32.745c-2.24 1.294-3.375 2.25-3.375 2.839 0 .661 1.6 1.584 3.446 2.649l.079.048 28.416 16.39c4.024 2.318 6.144 3.41 8.207 3.41s4.206-1.112 8.286-3.47L81.79 37.729c2.551-1.584 2.808-2.34 2.8-2.59-.016-.517-1.2-1.141-2.345-1.743-.434-.23-.894-.472-1.351-.737l-28.45-16.41c-4.021-2.318-6.144-3.41-8.207-3.41z" class="cls-2" data-name="Path 3792" transform="translate(1.643 6.728)"/>
        <path id="Path_3793" d="M44.352 63.888c-2.365 0-4.726-1.191-8.857-3.571L2.68 41.388l.661-1.15 32.817 18.933c7.9 4.55 8.514 4.547 16.493-.063L85.13 40.344l.662 1.149-32.479 18.765c-4.2 2.421-6.58 3.631-8.961 3.631z" class="cls-2" data-name="Path 3793" transform="translate(1.566 23.514)"/>
        <path id="Path_3794" d="M44.349 57.357c-2.364 0-4.721-1.191-8.853-3.574L2.68 34.854l.661-1.15 32.817 18.933c7.9 4.547 8.514 4.547 16.493-.063L85.13 33.809l.662 1.147-32.479 18.768c-4.2 2.424-6.58 3.633-8.963 3.633z" class="cls-2" data-name="Path 3794" transform="translate(1.566 19.695)"/>
        <path id="Path_3795" d="M63.779 72.374h-1.323v-30.9L19.813 16.858l.665-1.15 43.3 25" class="cls-2" data-name="Path 3795" transform="translate(11.578 9.179)"/>
        <path id="Path_3796" d="M45.936 102.2c-3.142 0-5.96-1.532-10.3-4.031L10.414 83.623C.993 78.18.019 76.509.011 65.735L0 36.615C0 25.74.959 24.063 10.283 18.67L35.5 4.1C39.9 1.557 42.751 0 45.886 0s5.96 1.532 10.3 4.032L81.408 18.58c9.419 5.438 10.393 7.109 10.4 17.88l.013 29.124c0 10.873-.959 12.553-10.286 17.948L56.324 98.1c-4.401 2.542-7.256 4.1-10.388 4.1zm-.048-96.9c-1.691 0-3.752 1.085-7.738 3.386L12.936 23.258C5.3 27.679 5.3 27.679 5.3 36.615l.013 29.117c.006 8.825.006 8.825 7.748 13.293l25.222 14.549c4.065 2.345 6.027 3.327 7.649 3.327 1.687 0 3.752-1.085 7.738-3.386l25.207-14.57c7.64-4.42 7.64-4.42 7.637-13.356l-.014-29.12c-.008-8.825-.008-8.825-7.748-13.293L53.536 8.625C49.47 6.28 47.507 5.3 45.886 5.3z" class="cls-2" data-name="Path 3796"/>
        <path id="Path_3797" d="M30.429 19.562c2.262 0 4.108-1.093 4.108-2.429S32.692 14.7 30.429 14.7s-4.108 1.09-4.108 2.429 1.849 2.427 4.111 2.427z" class="cls-3" data-name="Path 3797" transform="translate(15.381 8.592)"/>
        <path id="Path_3798" d="M35.281 22.113c2.266 0 4.11-1.09 4.11-2.429s-1.849-2.424-4.113-2.424-4.107 1.088-4.107 2.424 1.844 2.429 4.107 2.429z" class="cls-4" data-name="Path 3798" transform="translate(18.215 10.086)"/>
        <path id="Path_3799" d="M40.219 24.746c2.261 0 4.107-1.09 4.107-2.427s-1.846-2.427-4.108-2.427-4.118 1.09-4.118 2.427 1.851 2.427 4.113 2.427z" class="cls-5" data-name="Path 3799" transform="translate(21.096 11.624)"/>
    </g>
</svg>
