<svg xmlns="http://www.w3.org/2000/svg" id="subscription" width="53.858" height="37.701" viewBox="0 0 53.858 37.701">
    <defs>
        <style>
            .cls-1{fill:#ffc24f}.cls-2{fill:#fab839}.cls-3{fill:#4398d1}.cls-4{fill:#3e8cc7}.cls-5{fill:#88b337}.cls-6{fill:#80ab30}.cls-7{fill:#87ced9}.cls-8{fill:#a7d64f}.cls-9{fill:#ffe7ba}.cls-10{fill:#126099}.cls-11{fill:#70942d}.cls-12{fill:#ed9624}
        </style>
    </defs>
    <path id="Path_271" d="M368 68.724h9.874a1.8 1.8 0 0 0 1.8-1.8V41.8a1.8 1.8 0 0 0-1.8-1.8H368" class="cls-1" data-name="Path 271" transform="translate(-326.709 -35.512)"/>
    <path id="Path_272" d="M368 155.291v3.364h9.874a1.8 1.8 0 0 0 1.8-1.8V141.3A49.388 49.388 0 0 1 368 155.291zm0 0" class="cls-2" data-name="Path 272" transform="translate(-326.709 -125.443)"/>
    <path id="Path_273" d="M137.8 8h19.748a1.8 1.8 0 0 1 1.8 1.8v32.31a1.8 1.8 0 0 1-1.8 1.8H137.8a1.8 1.8 0 0 1-1.8-1.8V9.8a1.8 1.8 0 0 1 1.8-1.8zm0 0" class="cls-3" data-name="Path 273" transform="translate(-120.74 -7.102)"/>
    <path id="Path_274" d="M152.8 108.389h19.658a1.8 1.8 0 0 0 1.8-1.8V80.633c-4.217 15.103-14.879 23.774-21.458 27.756zm0 0" class="cls-4" data-name="Path 274" transform="translate(-135.656 -71.585)"/>
    <path id="Path_275" d="M9.8 40A1.8 1.8 0 0 0 8 41.8v25.129a1.8 1.8 0 0 0 1.8 1.8h9.874V40zm0 0" class="cls-5" data-name="Path 275" transform="translate(-7.102 -35.512)"/>
    <path id="Path_276" d="M58.021 256.739v-4.962a60.176 60.176 0 0 1-6.822 4.962zm0 0" class="cls-6" data-name="Path 276" transform="translate(-45.454 -223.527)"/>
    <path id="Path_277" d="M193.8 240h7.181a1.8 1.8 0 0 1 0 3.591H193.8a1.8 1.8 0 0 1 0-3.591zm0 0" class="cls-7" data-name="Path 277" transform="translate(-170.457 -213.071)"/>
    <path id="Path_278" d="M49.8 224a1.8 1.8 0 0 0 0 3.591h5.386V224zm0 0" class="cls-8" data-name="Path 278" transform="translate(-42.614 -198.866)"/>
    <path id="Path_279" d="M373.386 224H368v3.591h5.386a1.8 1.8 0 1 0 0-3.591zm0 0" class="cls-9" data-name="Path 279" transform="translate(-326.709 -198.866)"/>
    <g id="Group_56" data-name="Group 56" transform="translate(18.85 4.488)">
        <path id="Path_281" d="M192 40h1.8v1.8H192zm0 0" class="cls-10" data-name="Path 281" transform="translate(-189.307 -40)"/>
        <path id="Path_282" d="M224 40h7.181v1.8H224zm0 0" class="cls-10" data-name="Path 282" transform="translate(-217.717 -40)"/>
        <path id="Path_283" d="M168 80h1.8v3.591H168zm0 0" class="cls-10" data-name="Path 283" transform="translate(-168 -75.512)"/>
        <path id="Path_284" d="M200 80h1.8v3.591H200zm0 0" class="cls-10" data-name="Path 284" transform="translate(-196.409 -75.512)"/>
        <path id="Path_285" d="M232 80h1.8v3.591H232zm0 0" class="cls-10" data-name="Path 285" transform="translate(-224.819 -75.512)"/>
        <path id="Path_286" d="M264 80h1.8v3.591H264zm0 0" class="cls-10" data-name="Path 286" transform="translate(-253.228 -75.512)"/>
        <path id="Path_287" d="M296 80h1.8v3.591H296zm0 0" class="cls-10" data-name="Path 287" transform="translate(-281.638 -75.512)"/>
        <path id="Path_288" d="M232 136h6.284v1.8H232zm0 0" class="cls-10" data-name="Path 288" transform="translate(-224.819 -125.228)"/>
        <path id="Path_289" d="M192 136h2.693v1.8H192zm0 0" class="cls-10" data-name="Path 289" transform="translate(-189.307 -125.228)"/>
        <path id="Path_290" d="M192 168h10.772v1.8H192zm0 0" class="cls-10" data-name="Path 290" transform="translate(-189.307 -153.638)"/>
        <path id="Path_291" d="M208 200h7.181v1.8H208zm0 0" class="cls-10" data-name="Path 291" transform="translate(-203.512 -182.047)"/>
    </g>
    <path id="Path_292" d="M88 64h2.693v1.8H88zm0 0" class="cls-11" data-name="Path 292" transform="translate(-78.126 -56.819)"/>
    <path id="Path_293" d="M32 104h1.8v2.693H32zm0 0" class="cls-11" data-name="Path 293" transform="translate(-28.409 -92.331)"/>
    <path id="Path_294" d="M64 104h1.8v2.693H64zm0 0" class="cls-11" data-name="Path 294" transform="translate(-56.819 -92.331)"/>
    <path id="Path_295" d="M96 104h1.8v2.693H96zm0 0" class="cls-11" data-name="Path 295" transform="translate(-85.228 -92.331)"/>
    <path id="Path_296" d="M56 64h1.8v1.8H56zm0 0" class="cls-11" data-name="Path 296" transform="translate(-49.717 -56.819)"/>
    <path id="Path_297" d="M64 152h5.386v1.8H64zm0 0" class="cls-11" data-name="Path 297" transform="translate(-56.819 -134.945)"/>
    <path id="Path_298" d="M80 184h3.591v1.8H80zm0 0" class="cls-11" data-name="Path 298" transform="translate(-71.024 -163.354)"/>
    <path id="Path_299" d="M368 64h6.283v1.8H368zm0 0" class="cls-12" data-name="Path 299" transform="translate(-326.709 -56.819)"/>
    <path id="Path_300" d="M432 104h1.8v2.693H432zm0 0" class="cls-12" data-name="Path 300" transform="translate(-383.527 -92.331)"/>
    <path id="Path_301" d="M400 104h1.8v2.693H400zm0 0" class="cls-12" data-name="Path 301" transform="translate(-355.118 -92.331)"/>
    <path id="Path_302" d="M368 104h1.8v2.693H368zm0 0" class="cls-12" data-name="Path 302" transform="translate(-326.709 -92.331)"/>
    <path id="Path_303" d="M368 152h4.488v1.8H368zm0 0" class="cls-12" data-name="Path 303" transform="translate(-326.709 -134.945)"/>
    <path id="Path_304" d="M368 184h2.693v1.8H368zm0 0" class="cls-12" data-name="Path 304" transform="translate(-326.709 -163.354)"/>
    <path id="Path_306" d="M150.441 0h-19.748A2.693 2.693 0 0 0 128 2.693v32.315a2.693 2.693 0 0 0 2.693 2.693h5.386v-1.8h-5.386a.9.9 0 0 1-.9-.9V2.693a.9.9 0 0 1 .9-.9h19.748a.9.9 0 0 1 .9.9v32.315a.9.9 0 0 1-.9.9h-5.386v1.8h5.386a2.693 2.693 0 0 0 2.693-2.693V2.693A2.693 2.693 0 0 0 150.441 0zm0 0" data-name="Path 306" transform="translate(-113.638)"/>
    <path id="Path_307" d="M2.693 62.52h9.874v-1.8H2.693a.9.9 0 0 1-.9-.9V34.693a.9.9 0 0 1 .9-.9h9.874V32H2.693A2.693 2.693 0 0 0 0 34.693v25.134a2.693 2.693 0 0 0 2.693 2.693zm0 0" data-name="Path 307" transform="translate(0 -28.409)"/>
    <path id="Path_308" d="M192 40h1.8v1.8H192zm0 0" data-name="Path 308" transform="translate(-170.457 -35.512)"/>
    <path id="Path_309" d="M224 40h7.181v1.8H224zm0 0" data-name="Path 309" transform="translate(-198.866 -35.512)"/>
    <path id="Path_310" d="M168 80h1.8v3.591H168zm0 0" data-name="Path 310" transform="translate(-149.15 -71.024)"/>
    <path id="Path_311" d="M200 80h1.8v3.591H200zm0 0" data-name="Path 311" transform="translate(-177.559 -71.024)"/>
    <path id="Path_312" d="M232 80h1.8v3.591H232zm0 0" data-name="Path 312" transform="translate(-205.968 -71.024)"/>
    <path id="Path_313" d="M264 80h1.8v3.591H264zm0 0" data-name="Path 313" transform="translate(-234.378 -71.024)"/>
    <path id="Path_314" d="M296 80h1.8v3.591H296zm0 0" data-name="Path 314" transform="translate(-262.787 -71.024)"/>
    <path id="Path_315" d="M232 136h6.284v1.8H232zm0 0" data-name="Path 315" transform="translate(-205.968 -120.74)"/>
    <path id="Path_316" d="M194.693 237.386h5.386a2.693 2.693 0 0 0 0-5.386h-5.386a2.693 2.693 0 0 0 0 5.386zm0-3.591h5.386a.9.9 0 1 1 0 1.8h-5.386a.9.9 0 1 1 0-1.8zm0 0" data-name="Path 316" transform="translate(-170.457 -205.968)"/>
    <path id="Path_317" d="M88 64h2.693v1.8H88zm0 0" data-name="Path 317" transform="translate(-78.126 -56.819)"/>
    <path id="Path_318" d="M32 104h1.8v2.693H32zm0 0" data-name="Path 318" transform="translate(-28.409 -92.331)"/>
    <path id="Path_319" d="M64 104h1.8v2.693H64zm0 0" data-name="Path 319" transform="translate(-56.819 -92.331)"/>
    <path id="Path_320" d="M96 104h1.8v2.693H96zm0 0" data-name="Path 320" transform="translate(-85.228 -92.331)"/>
    <path id="Path_321" d="M56 64h1.8v1.8H56zm0 0" data-name="Path 321" transform="translate(-49.717 -56.819)"/>
    <path id="Path_322" d="M42.693 221.386h5.386v-1.8h-5.386a.9.9 0 1 1 0-1.8h5.386V216h-5.386a2.693 2.693 0 0 0 0 5.386zm0 0" data-name="Path 322" transform="translate(-35.512 -191.764)"/>
    <path id="Path_323" d="M377.874 32H368v1.8h9.874a.9.9 0 0 1 .9.9v25.127a.9.9 0 0 1-.9.9H368v1.8h9.874a2.693 2.693 0 0 0 2.693-2.693V34.693A2.693 2.693 0 0 0 377.874 32zm0 0" data-name="Path 323" transform="translate(-326.709 -28.409)"/>
    <path id="Path_324" d="M368 64h6.283v1.8H368zm0 0" data-name="Path 324" transform="translate(-326.709 -56.819)"/>
    <path id="Path_325" d="M432 104h1.8v2.693H432zm0 0" data-name="Path 325" transform="translate(-383.527 -92.331)"/>
    <path id="Path_326" d="M400 104h1.8v2.693H400zm0 0" data-name="Path 326" transform="translate(-355.118 -92.331)"/>
    <path id="Path_327" d="M368 104h1.8v2.693H368zm0 0" data-name="Path 327" transform="translate(-326.709 -92.331)"/>
    <path id="Path_328" d="M368 216v1.8h5.386a.9.9 0 1 1 0 1.8H368v1.8h5.386a2.693 2.693 0 1 0 0-5.386zm0 0" data-name="Path 328" transform="translate(-326.709 -191.764)"/>
    <path id="Path_330" d="M192 136h2.693v1.8H192zm0 0" data-name="Path 330" transform="translate(-170.457 -120.74)"/>
    <path id="Path_331" d="M192 168h10.772v1.8H192zm0 0" data-name="Path 331" transform="translate(-170.457 -149.15)"/>
    <path id="Path_332" d="M208 200h7.181v1.8H208zm0 0" data-name="Path 332" transform="translate(-184.661 -177.559)"/>
    <path id="Path_333" d="M64 152h5.386v1.8H64zm0 0" data-name="Path 333" transform="translate(-56.819 -134.945)"/>
    <path id="Path_334" d="M80 184h3.591v1.8H80zm0 0" data-name="Path 334" transform="translate(-71.024 -163.354)"/>
    <path id="Path_335" d="M368 152h4.488v1.8H368zm0 0" data-name="Path 335" transform="translate(-326.709 -134.945)"/>
    <path id="Path_336" d="M368 184h2.693v1.8H368zm0 0" data-name="Path 336" transform="translate(-326.709 -163.354)"/>
</svg>
