<svg xmlns="http://www.w3.org/2000/svg" id="support_2_" width="48.521" height="48.521" data-name="support (2)" viewBox="0 0 48.521 48.521">
    <defs>
        <style>
            .cls-1{fill:#44c4fc}.cls-2{fill:#29ace5}.cls-3{fill:#ffc776}.cls-4{fill:#ffbb61}.cls-5{fill:#fed080}.cls-6{fill:#283592}.cls-7{fill:#1a237e}.cls-8{fill:#303f9e}.cls-9{fill:#fec007}.cls-10{fill:#37474f}.cls-11{fill:#263238}.cls-12{fill:#3f51b4}.cls-13{fill:#dc2c00}.cls-14{fill:#b21f02}
        </style>
    </defs>
    <circle id="Ellipse_34" cx="24.261" cy="24.261" r="24.261" class="cls-1" data-name="Ellipse 34"/>
    <path id="Path_531" d="M143.138 79.75L123.8 95.376l22.977 22.977a24.264 24.264 0 0 0 13.8-21.164z" class="cls-2" data-name="Path 531" transform="translate(-112.068 -72.192)"/>
    <path id="Path_532" d="M108.989 289.961l-7.907-1.011a1.945 1.945 0 0 1-1.7-1.929v-3.586h-5.71v3.586a1.945 1.945 0 0 1-1.7 1.929l-7.907 1.011a4.849 4.849 0 0 0-4.234 4.81v3.665a24.259 24.259 0 0 0 33.39 0v-3.665a4.849 4.849 0 0 0-4.232-4.81z" class="cls-3" data-name="Path 532" transform="translate(-72.267 -256.573)"/>
    <path id="Path_533" d="M268.418 289.961l-7.907-1.011a1.945 1.945 0 0 1-1.7-1.929v-3.586h-2.861v21.661a24.177 24.177 0 0 0 16.695-6.659v-3.665a4.849 4.849 0 0 0-4.227-4.811z" class="cls-4" data-name="Path 533" transform="translate(-231.696 -256.573)"/>
    <path id="Path_534" d="M177.968 155.7l-1.342.723a6.968 6.968 0 0 1-6.607 0l-1.342-.723a7.652 7.652 0 0 1-4.024-6.737v-8.279h17.34v8.279a7.652 7.652 0 0 1-4.025 6.737z" class="cls-5" data-name="Path 534" transform="translate(-149.048 -127.351)"/>
    <path id="Path_535" d="M264.64 140.683h-8.688v16.572a6.964 6.964 0 0 0 3.321-.833l1.342-.723a7.652 7.652 0 0 0 4.024-6.737v-8.279z" class="cls-3" data-name="Path 535" transform="translate(-231.696 -127.351)"/>
    <path id="Path_536" d="M108.99 344.129l-6.692-.856a7.9 7.9 0 0 1-11.538 0l-6.692.856a4.849 4.849 0 0 0-4.234 4.81v3.661a24.258 24.258 0 0 0 33.39 0v-3.665a4.849 4.849 0 0 0-4.234-4.806z" class="cls-6" data-name="Path 536" transform="translate(-72.268 -310.742)"/>
    <path id="Path_537" d="M256 359.263a24.177 24.177 0 0 0 16.695-6.659v-3.665a4.849 4.849 0 0 0-4.234-4.81l-6.692-.856a7.884 7.884 0 0 1-5.769 2.5v13.488z" class="cls-7" data-name="Path 537" transform="translate(-231.739 -310.742)"/>
    <path id="Path_538" d="M172.9 345.763a7.884 7.884 0 0 1-5.357-2.491l-2.888.369 4.573 5.9 4.084-3.767q-.212.002-.412-.011z" class="cls-8" data-name="Path 538" transform="translate(-149.047 -310.741)"/>
    <path id="Path_539" d="M256 345.777l4.084 3.767 4.573-5.9-2.888-.369a7.885 7.885 0 0 1-5.357 2.491 9.358 9.358 0 0 1-.412.011z" class="cls-6" data-name="Path 539" transform="translate(-231.739 -310.742)"/>
    <path id="Path_540" d="M171.509 73.38a9.88 9.88 0 1 0-19.759 0v7.287h1.768v-4.841a10.4 10.4 0 0 1 16.222 0v4.841h1.768z" class="cls-9" data-name="Path 540" transform="translate(-137.369 -57.482)"/>
    <path id="Path_541" d="M166.375 69.528h-2.033v-5.895a8.447 8.447 0 1 0-16.894 0v5.895h-2.033v-5.895a10.48 10.48 0 1 1 20.96 0v5.895z" class="cls-10" data-name="Path 541" transform="translate(-131.634 -48.116)"/>
    <g id="Group_83" data-name="Group 83" transform="translate(23.064 5.037)">
        <path id="Path_542" d="M255.957 53.153v2.033a8.457 8.457 0 0 1 8.447 8.447v5.895h2.033v-5.895a10.492 10.492 0 0 0-10.48-10.48z" class="cls-11" data-name="Path 542" transform="translate(-254.76 -53.153)"/>
        <path id="Path_543" d="M249.152 237.554h-5.782v-2.033h5.782a3.776 3.776 0 0 0 3.772-3.772h2.033a5.811 5.811 0 0 1-5.805 5.805z" class="cls-11" data-name="Path 543" transform="translate(-243.37 -214.824)"/>
    </g>
    <path id="Path_544" d="M117.993 162.375h-2.223a2.972 2.972 0 0 1-2.97-2.975v-3.455a2.972 2.972 0 0 1 2.972-2.972h2.223v9.4z" class="cls-12" data-name="Path 544" transform="translate(-102.108 -138.479)"/>
    <path id="Path_545" d="M346.61 162.376h-2.223v-9.4h2.223a2.972 2.972 0 0 1 2.972 2.972v3.452a2.972 2.972 0 0 1-2.972 2.976z" class="cls-8" data-name="Path 545" transform="translate(-311.75 -138.48)"/>
    <path id="Path_546" d="M206.916 264.164h-2.394a2.146 2.146 0 0 1-2.146-2.146 2.146 2.146 0 0 1 2.146-2.146h2.394a2.146 2.146 0 0 1 2.146 2.146 2.146 2.146 0 0 1-2.146 2.146z" class="cls-13" data-name="Path 546" transform="translate(-183.197 -235.245)"/>
    <path id="Path_547" d="M255.952 260.589v4.155a2.147 2.147 0 0 0 1.608-2.078 2.146 2.146 0 0 0-1.608-2.077z" class="cls-14" data-name="Path 547" transform="translate(-231.696 -235.893)"/>
</svg>
