<svg xmlns="http://www.w3.org/2000/svg" width="38.211" height="38.211" viewBox="0 0 38.211 38.211">
    <defs>
        <style>
            .cls-1{fill:#55acee}.cls-2{fill:#fff}
        </style>
    </defs>
    <g id="twitter">
        <ellipse id="Ellipse_71" cx="19.106" cy="19.106" class="cls-1" data-name="Ellipse 71" rx="19.106" ry="19.106"/>
        <g id="Group_255" data-name="Group 255" transform="translate(8.549 11.589)">
            <path id="Path_408" d="M47.362 36.17a9.112 9.112 0 0 1-2.623.718 4.579 4.579 0 0 0 2.008-2.526 9.142 9.142 0 0 1-2.9 1.108 4.571 4.571 0 0 0-7.782 4.166 12.964 12.964 0 0 1-9.413-4.772 4.572 4.572 0 0 0 1.413 6.1A4.535 4.535 0 0 1 26 40.389v.058a4.569 4.569 0 0 0 3.664 4.478A4.585 4.585 0 0 1 27.6 45a4.572 4.572 0 0 0 4.266 3.171 9.219 9.219 0 0 1-6.766 1.895 12.987 12.987 0 0 0 20-10.942c0-.2 0-.4-.013-.591a9.261 9.261 0 0 0 2.279-2.364z" class="cls-2" data-name="Path 408" transform="translate(-25.103 -34.028)"/>
        </g>
    </g>
</svg>
