<svg xmlns="http://www.w3.org/2000/svg" width="41.089" height="39" viewBox="0 0 41.089 39">
    <defs>
        <style>
            .cls-1{fill:#8697cb}.cls-2{fill:#556080}.cls-3{fill:#71c386}.cls-4{fill:#fff}
        </style>
    </defs>
    <g id="user" transform="translate(0 -1.5)">
        <path id="Path_132" d="M41.555 31.3L34.9 27.969a2.538 2.538 0 0 1-1.4-2.27v-2.61a9.945 9.945 0 0 0 .63-.809 15.3 15.3 0 0 0 2.07-4.167 2.088 2.088 0 0 0 1.481-1.988v-2.786a2.077 2.077 0 0 0-.7-1.544V7.768s.828-6.268-7.66-6.268-7.661 6.268-7.661 6.268V11.8a2.077 2.077 0 0 0-.7 1.544v2.786a2.089 2.089 0 0 0 .963 1.753 13.813 13.813 0 0 0 2.519 5.211v2.545a2.536 2.536 0 0 1-1.323 2.227l-6.213 3.39A5.585 5.585 0 0 0 14 36.155v2.256h30.643v-2.12a5.587 5.587 0 0 0-3.088-4.991z" class="cls-1" data-name="Path 132" transform="translate(-4.25)"/>
        <path id="Path_133" d="M12.661 33.376l4.139-2.258c-.024-.023 0-.03.045-.025l2.027-1.105A2.537 2.537 0 0 0 20.2 27.76v-2.546a13.254 13.254 0 0 1-1.46-2.314 14.13 14.13 0 0 1-.278-.588l-.038-.084a13.004 13.004 0 0 1-.269-.657l-.016-.045c-.075-.2-.146-.41-.213-.624l-.054-.175c-.07-.235-.136-.475-.194-.723a2.084 2.084 0 0 1-.964-1.752v-2.788a2.077 2.077 0 0 1 .7-1.544V9.987A7.665 7.665 0 0 0 12.536 8.5c-6.66 0-6.964 5.571-6.964 5.571v3.479a1.888 1.888 0 0 0-.7 1.333v2.406a1.805 1.805 0 0 0 .835 1.511 9.995 9.995 0 0 0 2.619 4.5v2.2a2.191 2.191 0 0 1-1.142 1.924l-4.67 2.929A4.825 4.825 0 0 0 0 38.588v1.948h9.75V38.28a5.585 5.585 0 0 1 2.911-4.904z" class="cls-2" data-name="Path 133" transform="translate(0 -2.125)"/>
        <g id="Group_47" data-name="Group 47" transform="translate(24.375 23.786)">
            <circle id="Ellipse_7" cx="8.357" cy="8.357" r="8.357" class="cls-3" data-name="Ellipse 7"/>
            <path id="Path_134" d="M49.054 42.679h-3.483V39.2a.7.7 0 1 0-1.393 0v3.482H40.7a.7.7 0 1 0 0 1.393h3.482v3.482a.7.7 0 0 0 1.393 0v-3.486h3.482a.7.7 0 0 0 0-1.393z" class="cls-4" data-name="Path 134" transform="translate(-36.518 -35.018)"/>
        </g>
    </g>
</svg>
