<svg xmlns="http://www.w3.org/2000/svg" xmlns:xlink="http://www.w3.org/1999/xlink" width="767.865" height="789.893" viewBox="0 0 767.865 789.893">
  <defs>
    <linearGradient id="linear-gradient" x1="1" y1="0.5" x2="0.141" y2="0.5" gradientUnits="objectBoundingBox">
      <stop offset="0" stop-color="#d3d6db"/>
      <stop offset="1" stop-color="#7a869b"/>
    </linearGradient>
    <linearGradient id="linear-gradient-2" x1="0.142" y1="-0.706" x2="0.423" y2="0.221" xlink:href="#linear-gradient"/>
    <linearGradient id="linear-gradient-3" y1="0.501" x2="1" y2="0.501" gradientUnits="objectBoundingBox">
      <stop offset="0" stop-color="#ffac00"/>
      <stop offset="1" stop-color="#ff5e00"/>
    </linearGradient>
    <linearGradient id="linear-gradient-4" x1="0.548" y1="0.433" x2="-0.134" y2="0.973" xlink:href="#linear-gradient"/>
    <linearGradient id="linear-gradient-5" x1="0.008" y1="0.5" x2="1.264" y2="0.5" xlink:href="#linear-gradient"/>
    <linearGradient id="linear-gradient-6" x1="0.163" y1="0.407" x2="1.371" y2="0.69" xlink:href="#linear-gradient-3"/>
    <linearGradient id="linear-gradient-7" x1="0.027" y1="0.139" x2="0.652" y2="0.587" gradientUnits="objectBoundingBox">
      <stop offset="0" stop-color="#4ee2ff"/>
      <stop offset="1" stop-color="#1c80ff"/>
    </linearGradient>
    <linearGradient id="linear-gradient-8" x1="-241.163" y1="81.639" x2="-241.163" y2="47.856" gradientUnits="objectBoundingBox">
      <stop offset="0" stop-color="#4e9cff"/>
      <stop offset="1" stop-color="#176ad4"/>
    </linearGradient>
    <linearGradient id="linear-gradient-9" x1="-545.358" y1="1.047" x2="-545.358" y2="0.195" xlink:href="#linear-gradient-8"/>
    <linearGradient id="linear-gradient-10" x1="-241.163" y1="36.837" x2="-241.163" y2="3.054" xlink:href="#linear-gradient-8"/>
    <linearGradient id="linear-gradient-11" x1="-132.491" y1="78.55" x2="-119.561" y2="78.55" xlink:href="#linear-gradient-8"/>
    <linearGradient id="linear-gradient-12" x1="-6.442" y1="4.269" x2="-6.152" y2="4.269" xlink:href="#linear-gradient-8"/>
    <linearGradient id="linear-gradient-13" x1="-181.956" y1="78.55" x2="-169.026" y2="78.55" xlink:href="#linear-gradient-8"/>
    <linearGradient id="linear-gradient-14" x1="0.5" y1="47.462" x2="0.5" y2="13.68" xlink:href="#linear-gradient-8"/>
    <linearGradient id="linear-gradient-15" x1="0.488" y1="1.12" x2="0.488" y2="0.267" xlink:href="#linear-gradient-8"/>
    <linearGradient id="linear-gradient-16" x1="0.5" y1="2.662" x2="0.5" y2="-31.12" xlink:href="#linear-gradient-8"/>
    <linearGradient id="linear-gradient-17" x1="-51.353" y1="0.504" x2="-38.421" y2="0.504" xlink:href="#linear-gradient-8"/>
    <linearGradient id="linear-gradient-18" x1="-0.108" y1="0.5" x2="0.182" y2="0.5" xlink:href="#linear-gradient-8"/>
    <linearGradient id="linear-gradient-19" x1="-1.889" y1="0.504" x2="11.043" y2="0.504" xlink:href="#linear-gradient-8"/>
    <linearGradient id="linear-gradient-20" x1="0.834" y1="0.5" x2="-0.788" y2="0.498" xlink:href="#linear-gradient"/>
    <linearGradient id="linear-gradient-21" x1="0.258" y1="0.415" x2="4.992" y2="1.274" xlink:href="#linear-gradient"/>
    <linearGradient id="linear-gradient-22" x1="0.185" y1="0.477" x2="1.954" y2="0.815" xlink:href="#linear-gradient-3"/>
    <linearGradient id="linear-gradient-23" x1="0.242" y1="0.477" x2="1.512" y2="0.624" xlink:href="#linear-gradient-3"/>
    <linearGradient id="linear-gradient-24" x1="0.499" y1="0.64" x2="1.077" y2="-1.425" xlink:href="#linear-gradient"/>
    <linearGradient id="linear-gradient-25" x1="0.108" y1="0.332" x2="1.468" y2="0.903" xlink:href="#linear-gradient-3"/>
    <linearGradient id="linear-gradient-26" x1="0.956" y1="0.804" x2="-0.869" y2="-0.409" gradientUnits="objectBoundingBox">
      <stop offset="0" stop-color="#f2dad4"/>
      <stop offset="0.23" stop-color="#f1d0c8"/>
      <stop offset="0.65" stop-color="#eeb6a7"/>
      <stop offset="1" stop-color="#eb9c88"/>
    </linearGradient>
    <linearGradient id="linear-gradient-27" x1="0.38" y1="0.12" x2="0.802" y2="1.454" gradientUnits="objectBoundingBox">
      <stop offset="0" stop-color="#003d92"/>
      <stop offset="1" stop-color="#001738"/>
    </linearGradient>
  </defs>
  <g id="Group_2228" data-name="Group 2228" transform="translate(-1129 -217.634)">
    <g id="xc" transform="translate(1129 245.8)">
      <path id="Path_3629" data-name="Path 3629" d="M1283.47,235.21" transform="translate(-665.109 -172.547)" fill="#ede4f9"/>
      <path id="Path_3630" data-name="Path 3630" d="M841.863,716.282c-12.756,1.751-33.479,4.949-33.6,9.57-.124,4.169,16.564,7.582,22.394,8.779,66.776,13.672,146.885-11.491,235.219-1.593,46.325,5.186,39.343,13.8,80.437,15.954,56.234,2.96,76.335-12.779,146.636-11.966,29.987.339,30.507,3.254,71.273,5.582,16.033.915,128.332,7.186,130.332-2.4.361-1.729-2.339-6.553-50.913-18.349C1443.594,721.864,1211.73,665.607,841.863,716.282Z" transform="translate(-726.831 -112.812)" opacity="0.3" fill="url(#linear-gradient)"/>
      <path id="Path_3631" data-name="Path 3631" d="M940.31,581.331s34.36-23.784,57.172-11.92,122.818,47.365,126.208,51.059-17.6,19.208-17.6,19.208L970.1,603.183Z" transform="translate(-709.68 -129.57)" fill="url(#linear-gradient-2)"/>
      <path id="Path_3632" data-name="Path 3632" d="M814.683,658.286s-5.164-8.757-11.559-7.841-6.384,4.519-10.033,4.519-19.208,0-24.643-1.831-19.208-8.214-25.558-8.214-8.214,8.214-5.469,15.513,10.949,23.728,25.547,31.942,40.156,27.388,43.806,30.123,12.779,7.3,20.993,6.384,9.129-4.52,9.129-6.384,1.831-4.52,2.734-5.48,5.48-7.3,6.4-11.864,2.734-5.469,3.649-6.384,2.734-2.734.915-5.48-2.983-.859-4.226-1.8-19.5-21.931-19.5-21.931Z" transform="translate(-736.192 -119.332)" fill="url(#linear-gradient-3)"/>
      <path id="Path_3633" data-name="Path 3633" d="M814.728,658.451a47.724,47.724,0,0,0-12.971-2.181c-6.384,0-11.864,1.83-12.779,9.129s7.3,21.9,17.344,27.377,14.6,7.3,20.078,5.48,11.864-5.48,11.864-10.045S814.728,658.451,814.728,658.451Z" transform="translate(-729.344 -117.858)" fill="url(#linear-gradient-4)"/>
      <path id="Path_3634" data-name="Path 3634" d="M793.536,658.324a17.74,17.74,0,0,1,7.683-1.424,20.213,20.213,0,0,1,2.746.124l.768-.124s-3.514-5.48-7.163-5.48-4.52.915-4.52,1.83.135,4.666.531,5.073Z" transform="translate(-728.807 -118.488)" fill="#a05708"/>
      <path id="Path_3635" data-name="Path 3635" d="M825.7,655.46s-6.384,2.746-9.118,2.746-6.4,0-7.3,2.734-2.746,19.208,3.65,24.643,12.768,7.3,17.332,6.384,16.429-6.384,16.429-6.384Z" transform="translate(-726.823 -117.963)" fill="#f2dad4"/>
      <path id="Path_3636" data-name="Path 3636" d="M822.092,663.909c-.52,4.621,12.429,33.9,23.728,36.507,15.513,3.649,53.85-14.6,65.714-21.909,11.559-7.107,73.013-30.111,74.832-31.027s3.661-3.649,4.52-1.83,0,10.96,6.4,16.428,49.286,32.857,54.754,38.337,30.168,25.637,38.382,30.157,48.37,10.045,71.183,7.31,38.337-23.728,38.337-23.728l-46.551-82.143s-15.977-12.892-22.135-15.57-15.276.96-16.191,3.706-2.746,6.384-6.4,3.649-83.962-47.455-109.52-53.85-59.319,21.908-66.663,26.473-81.227,56.585-86.707,57.488S823.007,655.74,822.092,663.909Z" transform="translate(-725.037 -129.191)" fill="url(#linear-gradient-5)"/>
      <path id="Path_3637" data-name="Path 3637" d="M1076.537,427.96s1.83,19.208,3.649,20.993,4.52.915,4.52,7.3.915,20.993,2.734,21.908,8.214-2.734,9.13-2.734,10.045,7.3,11.864,10.949,8.214,13.683,13.694,14.6,12.779-10.033,16.429-7.3,5.469,8.214,5.469,10.949,43.817-10.033,43.817-26.462c0-4.655-11.864-29.207-14.609-34.687s-6.384-29.2-7.3-35.591-11.864-24.643-30.123-31.027S1074.717,406.989,1076.537,427.96Z" transform="translate(-691.994 -154.245)" fill="#f2dad4"/>
      <path id="Path_3638" data-name="Path 3638" d="M1136.93,371.247c12.045,3.017,30.123,21.908,32.857,31.038s9.547,32.767,9.13,37.422c-.915,10.033-18.248,23.728-20.993,19.208s-11.3-20.033-11.864-25.558c-.915-9.129-5.48-18.248-11.864-18.248-1.819,0-7.3,8.214-8.214,12.768-1.13,5.446,4.52,16.429,8.214,19.208s13.084,8.113,14.6,13.683c2.746,10.045-2.734,31.038-5.469,33.772s-11.3,8.587-16.428,7.3c-7.3-1.819-11.864-12.779-16.3-17.976-1.864-2.181-5.649-3.921-7.491-6.542s19.694-12.847,19.208-18.372c-1.83-21.908-8.192-48.167-21.908-46.551-15.513,1.83-17.332,16.429-27.377,18.259-5.457.994-28.247,4.52-32.857-23.728-1.446-9.039,22.823.9,43.806-12.779C1089.509,390.478,1111.384,364.863,1136.93,371.247Z" transform="translate(-696.718 -155.01)" fill="#1c2b6b"/>
      <path id="Path_3639" data-name="Path 3639" d="M1092.716,455.443c-1.344,1.2-5.649-1.491-9.706-6.011s-6.169-9.152-4.813-10.35,5.649,1.492,9.706,6.011S1094.015,454.246,1092.716,455.443Z" transform="translate(-691.824 -146.104)" fill="#4ee2ff"/>
      <path id="Path_3640" data-name="Path 3640" d="M1079.45,445.031a32.3,32.3,0,0,0,2.339,3.231l1.017-7.661a13.39,13.39,0,0,0-2.553-1.491Z" transform="translate(-691.608 -146.063)" fill="#6ceeff"/>
      <path id="Path_3641" data-name="Path 3641" d="M1084.03,441.61l-1.13,8.158q.814.859,1.627,1.627l1.13-8.271C1085.115,442.582,1084.561,442.051,1084.03,441.61Z" transform="translate(-691.16 -145.739)" fill="#6ceeff"/>
      <path id="Path_3642" data-name="Path 3642" d="M1137.319,500.632c0-4.655,7.3-10.045,11.864-14.609s35.591-25.547,36.507-29.2,31.026,10.033,41.975,37.41,23.728,115-8.214,173.415-57.488,73.917-58.4,68.448,0-10.045-10.045-15.513-29.207-28.247-33.761-36.507-25.558-47.455-23.728-51.975,20.078-66.663,29.208-84.877,17.344-31.027,17.344-36.507S1137.319,504.282,1137.319,500.632Z" transform="translate(-689.796 -143.838)" fill="url(#linear-gradient-6)"/>
      <path id="Path_3643" data-name="Path 3643" d="M266.03,402.974l13.694-13.694,93.091,23.728,16.429,19.174Z" transform="translate(34.54 50.561)" fill="url(#linear-gradient-7)"/>
      <path id="Path_3644" data-name="Path 3644" d="M1046.259,561.76s-9.129,8.214-10.948,15.513l6.384-1.819,11.864-5.48,8.214-4.52-3.65-3.649Z" transform="translate(-697.341 -130.133)" fill="#c6b3af"/>
      <path id="Path_3645" data-name="Path 3645" d="M1096.837,560.833s-9.446-.746-14.01-2.576-9.129-2.734-13.694-1.819-13.683-3.65-18.248-2.734-20.078,0-20.993.9a5.366,5.366,0,0,0-1.819,4.519c0,2.746,3.649,3.649,4.52,3.649s18.259.915,22.823,2.746c0,0-8.214.9-12.779,5.469s-11.864,10.96-11.864,11.864,0,4.52.915,4.52h1.819s.915,1.83,1.83,1.83c0,0,4.52-2.746,5.469-2.746s-2.734,1.83-1.819,3.661a5.028,5.028,0,0,0,4.52,2.734c1.819,0,12.779-5.48,16.428-4.52s10.033,1.83,12.779,3.649,11.864,3.649,13.683,2.734S1096.837,560.833,1096.837,560.833Z" transform="translate(-698.284 -131.195)" fill="#f2dad4"/>
      <path id="Path_3646" data-name="Path 3646" d="M1190.543,485.035c-18.474,2.26-23.728,34.676-21.909,47.455,0,0,17.344,62.968,10.96,62.968s-45.636-15.513-51.974-17.333-28.247-11.864-31.953-11.864-11.864,10.949-14.6,18.248-6.384,24.643-1.83,24.643,21.908,0,25.558,2.734,28.247,22.824,41.987,28.247,62.969,19.208,71.183,16.428,19.208-16.428,19.208-21.9-.915-73.013-6.4-90.391S1227.05,480.516,1190.543,485.035Z" transform="translate(-691.916 -140.138)" fill="#ffac00"/>
      <path id="Path_3647" data-name="Path 3647" d="M1013.424,593.638,944.06,485H963.2a1.819,1.819,0,0,1,1.525.825l60.686,92.956a1.819,1.819,0,0,1-.192,2.26Z" transform="translate(-709.193 -140.103)" fill="#4ee2ff"/>
      <path id="Path_3648" data-name="Path 3648" d="M1010.049,593.6,942.606,488.1a2,2,0,0,1,1.684-3.073h0l69.364,108.6h0a2.158,2.158,0,0,1-3.6-.034Z" transform="translate(-709.422 -140.099)" fill="#1c80ff"/>
      <path id="Path_3649" data-name="Path 3649" d="M237.12,354.7l4.44,6.96-6.373-41.794-4.418-6.757Z" transform="translate(29.96 40.668)" fill="#6ceeff"/>
      <path id="Path_3650" data-name="Path 3650" d="M243.816,365.211l7.152,11.22-6.452-42.292-7.107-10.87Z" transform="translate(30.823 41.988)" fill="#6ceeff"/>
      <path id="Path_3651" data-name="Path 3651" d="M1122.553,614.735l-118.841-26.97a1.819,1.819,0,0,1-1.491-1.785v-4.87l122.152,28.53a1.83,1.83,0,0,1,.983,2.949l-1.13,1.469a1.831,1.831,0,0,1-1.672.678Z" transform="translate(-701.639 -127.62)" fill="#1c80ff"/>
      <rect id="Rectangle_1783" data-name="Rectangle 1783" width="185.267" height="145.111" rx="8" transform="translate(122.444 173.347)" fill="#f0f2f5"/>
      <rect id="Rectangle_1784" data-name="Rectangle 1784" width="55.669" height="8.214" transform="translate(135.223 183.391)" fill="#d3d6db"/>
      <rect id="Rectangle_1785" data-name="Rectangle 1785" width="162.455" height="82.143" rx="6" transform="translate(135.223 201.639)" fill="#fff"/>
      <rect id="Rectangle_1786" data-name="Rectangle 1786" width="82.143" height="3.65" transform="translate(144.352 229.027)" fill="#d3d6db"/>
      <rect id="Rectangle_1787" data-name="Rectangle 1787" width="82.143" height="3.65" transform="translate(144.352 240.891)" fill="#d3d6db"/>
      <rect id="Rectangle_1788" data-name="Rectangle 1788" width="54.765" height="3.65" transform="translate(144.352 252.755)" fill="#d3d6db"/>
      <rect id="Rectangle_1789" data-name="Rectangle 1789" width="29.208" height="29.207" rx="9" transform="translate(256.606 245.456)" fill="#d3d6db"/>
      <rect id="Rectangle_1790" data-name="Rectangle 1790" width="45.636" height="11.864" rx="4.2" transform="translate(144.352 207.119)" fill="#40cd8a"/>
      <rect id="Rectangle_1791" data-name="Rectangle 1791" width="185.267" height="145.111" rx="8" transform="translate(431.84 13.638)" fill="#f0f2f5"/>
      <rect id="Rectangle_1792" data-name="Rectangle 1792" width="55.669" height="8.214" transform="translate(444.619 23.671)" fill="#d3d6db"/>
      <rect id="Rectangle_1793" data-name="Rectangle 1793" width="162.455" height="82.143" rx="6" transform="translate(444.619 41.93)" fill="#fff"/>
      <rect id="Rectangle_1794" data-name="Rectangle 1794" width="82.143" height="3.65" transform="translate(453.737 69.307)" fill="#d3d6db"/>
      <rect id="Rectangle_1795" data-name="Rectangle 1795" width="82.143" height="3.65" transform="translate(453.737 81.171)" fill="#d3d6db"/>
      <rect id="Rectangle_1796" data-name="Rectangle 1796" width="54.765" height="3.65" transform="translate(453.737 93.035)" fill="#d3d6db"/>
      <rect id="Rectangle_1797" data-name="Rectangle 1797" width="45.636" height="11.864" rx="4.2" transform="translate(453.737 47.399)" fill="#ffac00"/>
      <rect id="Rectangle_1798" data-name="Rectangle 1798" width="45.636" height="11.864" rx="4.2" transform="translate(503.938 47.399)" fill="#1c80ff"/>
      <g id="Group_2169" data-name="Group 2169" transform="translate(645.863)">
        <rect id="Rectangle_1799" data-name="Rectangle 1799" width="2.734" height="5.48" fill="url(#linear-gradient-8)"/>
      </g>
      <g id="Group_2170" data-name="Group 2170" transform="translate(645.862 16.903)">
        <path id="Path_3652" data-name="Path 3652" d="M1310.544,411.885h-2.734V400.451h2.734Zm0-22.858h-2.734V377.593h2.734Zm0-22.858h-2.734V354.735h2.734Zm0-22.869h-2.734V331.878h2.734Zm0-22.858h-2.734V309.02h2.734Zm0-22.858h-2.734V286.152h2.734Zm0-22.858h-2.734V263.294h2.734Zm0-22.858h-2.734V240.436h2.734Zm0-22.869h-2.734V217.635h2.734Zm0-22.858h-2.734V194.71h2.734Z" transform="translate(-1307.81 -194.71)" fill="url(#linear-gradient-9)"/>
      </g>
      <g id="Group_2171" data-name="Group 2171" transform="translate(645.863 245.512)">
        <rect id="Rectangle_1800" data-name="Rectangle 1800" width="2.734" height="5.48" fill="url(#linear-gradient-10)"/>
      </g>
      <g id="Group_2172" data-name="Group 2172" transform="translate(424.541 185.267)">
        <rect id="Rectangle_1801" data-name="Rectangle 1801" width="5.48" height="2.734" fill="url(#linear-gradient-11)"/>
      </g>
      <g id="Group_2173" data-name="Group 2173" transform="translate(440.642 185.278)">
        <path id="Path_3653" data-name="Path 3653" d="M1126.18,343.73H1136.8v2.734H1126.18Zm21.242,0h10.632v2.734h-10.61Zm21.253,0H1179.3v2.734h-10.621Zm21.242,0h10.632v2.734h-10.632Zm21.253,0h10.621v2.734H1211.17Zm21.242,0h10.621v2.734h-10.621Zm21.253,0h10.621v2.734h-10.633Zm21.242,0h10.621v2.734h-10.621Zm21.253,0h10.621v2.734H1296.16Zm21.242,0h10.621v2.734H1317.4Zm21.242,0h10.632v2.734h-10.632Zm21.253,0h10.621v2.734h-10.656Z" transform="translate(-1126.18 -343.73)" fill="url(#linear-gradient-12)"/>
      </g>
      <g id="Group_2174" data-name="Group 2174" transform="translate(695.6 185.267)">
        <rect id="Rectangle_1802" data-name="Rectangle 1802" width="5.48" height="2.734" fill="url(#linear-gradient-13)"/>
      </g>
      <g id="Group_2175" data-name="Group 2175" transform="translate(99.168 125.948)">
        <rect id="Rectangle_1803" data-name="Rectangle 1803" width="2.734" height="5.48" fill="url(#linear-gradient-14)"/>
      </g>
      <g id="Group_2176" data-name="Group 2176" transform="translate(99.213 142.851)">
        <path id="Path_3654" data-name="Path 3654" d="M826.7,523.355H824V511.92h2.734Zm0-22.858H824v-11.48h2.734Zm0-22.858H824V466.205h2.734Zm0-22.869H824V443.348h2.734Zm0-22.858H824V420.49h2.734Zm0-22.858H824V397.621h2.734Zm0-22.858H824V374.764h2.734Zm0-22.858H824V351.906h2.734Zm0-22.869H824V329.049h2.734Zm0-22.858H824V306.18h2.734Z" transform="translate(-824 -306.18)" fill="url(#linear-gradient-15)"/>
      </g>
      <g id="Group_2177" data-name="Group 2177" transform="translate(99.168 371.449)">
        <rect id="Rectangle_1804" data-name="Rectangle 1804" width="2.734" height="5.48" fill="url(#linear-gradient-16)"/>
      </g>
      <g id="Group_2178" data-name="Group 2178" transform="translate(317.755 148.761)">
        <rect id="Rectangle_1805" data-name="Rectangle 1805" width="5.48" height="2.734" fill="url(#linear-gradient-17)"/>
      </g>
      <g id="Group_2179" data-name="Group 2179" transform="translate(62.775 148.772)">
        <path id="Path_3655" data-name="Path 3655" d="M1036.087,314.154h-10.621V311.42h10.621Zm-21.242,0h-10.621V311.42h10.621Zm-21.253,0h-10.61V311.42H993.6Zm-21.242,0H961.73V311.42h10.621Zm-21.253,0H940.477V311.42H951.1Zm-21.242,0H919.235V311.42h10.643Zm-21.242,0H897.982V311.42h10.632Zm-21.253,0H876.774V311.42h10.621Zm-21.242,0H855.487V311.42h10.632Zm-21.253,0H834.245V311.42h10.621Zm-21.242,0H812.992V311.42h10.677Zm-21.253,0H791.75V311.42h10.621Z" transform="translate(-791.75 -311.42)" fill="url(#linear-gradient-18)"/>
      </g>
      <g id="Group_2180" data-name="Group 2180" transform="translate(46.696 148.761)">
        <rect id="Rectangle_1806" data-name="Rectangle 1806" width="5.48" height="2.734" fill="url(#linear-gradient-19)"/>
      </g>
      <path id="_Path_" data-name="&lt;Path&gt;" d="M1340.272,730.85h-69a4.519,4.519,0,0,1-4.52-4.022L1255.87,631.07h99.78l-10.881,95.758A4.519,4.519,0,0,1,1340.272,730.85Z" transform="translate(-668.694 -121.131)" fill="url(#linear-gradient-20)"/>
      <ellipse id="Ellipse_139" data-name="Ellipse 139" cx="49.896" cy="5.672" rx="49.896" ry="5.672" transform="translate(587.176 505.397)" fill="#1c2b6b"/>
      <path id="Path_3656" data-name="Path 3656" d="M1298.252,468.5c-27.208,2.26-18.146,83.917-18.146,83.917,6.779,70.3,15.818,102.051,22.688,104.311S1323.2,556.944,1323.2,532C1323.223,532,1325.494,466.237,1298.252,468.5Z" transform="translate(-665.734 -142.254)" fill="#1e3286"/>
      <path id="Path_3657" data-name="Path 3657" d="M1299.389,644.6h-.136a1.13,1.13,0,0,1-.983-1.266c8.949-73.838-2.158-166.613-2.26-167.539a1.138,1.138,0,0,1,2.26-.271c.113.926,11.3,93.972,2.26,168.081A1.13,1.13,0,0,1,1299.389,644.6Z" transform="translate(-663.481 -141.464)" fill="#fff"/>
      <path id="Path_3658" data-name="Path 3658" d="M1223.8,434.814c-2.26,11.3,11.3,13.615,13.559,29.49s-4.52,20.406-2.26,29.479,15.818,11.3,18.146,34.009-6.779,20.417-4.52,34.021,15.875,13.559,18.146,24.948,2.26,27.208,6.779,40.823,18.146,34.009,24.948,34.009,24.948-38.552,20.406-49.884-11.3-13.559-11.3-22.677,9.039-31.75,6.779-47.625-22.632-22.677-24.891-34.021,4.519-40.823-11.3-54.427S1226.059,423.482,1223.8,434.814Z" transform="translate(-672.892 -147.123)" fill="#ffac00"/>
      <path id="Path_3659" data-name="Path 3659" d="M1429.482,457.112c8.022,8.022-18.146,11.3-20.406,27.219s-2.26,22.677-11.3,31.75-22.677,11.3-20.406,24.937,6.779,27.219,0,34.021-22.677,6.779-27.219,18.146-2.26,24.937-11.3,36.281-22.677,34.021-34.021,29.479-4.52-56.686,0-65.759,9.039-15.818,9.039-22.677-2.26-18.146,2.26-29.49,29.479-15.875,31.738-22.677,4.52-43.082,18.146-52.155S1415.878,443.508,1429.482,457.112Z" transform="translate(-663.14 -144.473)" fill="#40cd8a"/>
      <path id="Path_3660" data-name="Path 3660" d="M1307.29,653.613a1.2,1.2,0,0,1-.576-.158,1.13,1.13,0,0,1-.4-1.559c.09-.158,9.174-15.332,11.1-23.016.5-1.977,1.13-4.971,1.785-8.44,2.508-12.587,6.293-31.637,12.124-37.444,8.463-8.463,21.987-34.371,31.456-67.544,11.671-40.857,50.268-52.811,50.664-52.935a1.137,1.137,0,1,1,.644,2.181c-.372.113-37.794,11.74-49.127,51.376-9.582,33.535-23.366,59.884-32.032,68.527-5.344,5.344-9.2,24.711-11.5,36.281-.7,3.5-1.3,6.519-1.808,8.553-2,8-10.971,22.993-11.3,23.626A1.13,1.13,0,0,1,1307.29,653.613Z" transform="translate(-662.162 -143.029)" fill="#fff"/>
      <path id="Path_3661" data-name="Path 3661" d="M1297.069,651.831a1.13,1.13,0,0,1-1.13-1.13c0-.305-.192-29.772-8.825-38.416s-13.762-35.569-16.2-86.922c-2.26-46.664-35.67-85.092-36.009-85.476a1.137,1.137,0,0,1,1.706-1.5c.339.384,34.3,39.4,36.563,86.865,2.384,50.065,7.322,77.216,15.547,85.43,9.288,9.3,9.491,38.744,9.491,40a1.13,1.13,0,0,1-1.13,1.13Z" transform="translate(-671.454 -146.208)" fill="#fff"/>
    </g>
    <g id="Group_2184" data-name="Group 2184" transform="translate(1641.994 217.634)">
      <path id="Path_3698" data-name="Path 3698" d="M1283.47,235.21" transform="translate(-1073.698 -211.381)" fill="#ede4f9"/>
      <path id="Path_3700" data-name="Path 3700" d="M1181.249,470.43s-4.138,37.048,13.034,85.158,46.514,109.938,49.707,116.944,14.337,28.039,14.337,28.039-2.493,60.981-7.885,74.275,5.213,6.517,9.775,7.755,15.836,8.146,19.713,7.755,6.745-1.857,6.517-7.25,1.189-17.921,2.7-20.886,5.213-12.626,6.061-12.3,16,23.412,18.182,25.106,29.488-4.725,32.584-9.938-2.868-17.009-7.918-24.438-15.917-36.2-17.921-42.913-10.264-14.663-10.264-17.921,3.356-68.622,7.69-83.089,21.9-80.645,22.809-87.977.994-40.616-1.629-54.431S1181.249,470.43,1181.249,470.43Z" transform="translate(-1138.291 -75.811)" fill="url(#linear-gradient-21)"/>
      <path id="Path_3701" data-name="Path 3701" d="M1228.123,652.24s-4.2,21.913-5.7,35.712-4.171,39.1-3.454,42.2.229,9.6,17.921,8.635,29.146-3.112,25.611-21.342-9.889-30.466-8.765-38.368,2.46-16.6,2.085-19.795Z" transform="translate(-1114.359 51.014)" fill="url(#linear-gradient-22)"/>
      <path id="Path_3702" data-name="Path 3702" d="M1273.069,654.469s7.9,14.353,7.543,22.255-11.861,33.024-24.78,42.718-11.127,18.3-7.527,20.463,23.689,6.81,41.985-2.525,6.826-24.047,26.214-34.816,12.2-24.6,7.185-29.537-12.48-11.665-13.653-18.557-3.91-14.923-6.517-14.989S1273.069,654.469,1273.069,654.469Z" transform="translate(-1097.477 42.985)" fill="url(#linear-gradient-23)"/>
      <path id="Path_3703" data-name="Path 3703" d="M1232.032,604.06s-2.493,60.981-7.885,74.275,5.213,6.517,9.775,7.755,15.836,8.146,19.713,7.755,6.745-1.857,6.517-7.25,1.189-17.921,2.7-20.886,5.213-12.626,6.061-12.3S1257.9,640.1,1249.66,627.96C1242.768,617.745,1232.032,604.06,1232.032,604.06Z" transform="translate(-1111.963 20.699)" fill="url(#linear-gradient-24)"/>
      <path id="Path_3704" data-name="Path 3704" d="M1181.249,467.33s-4.138,37.048,13.034,85.158,46.514,109.938,49.707,116.944,14.337,28.038,14.337,28.038,36.071,49.023,36.918,49.348,16,23.412,18.182,25.106,29.488-4.725,32.584-9.938-2.867-17.009-7.918-24.438-15.917-36.2-17.921-42.913-10.264-17.921-10.264-17.921c-12.789-16.764-19.55-27.973-27.061-51.206-6.7-20.528-6.826-90.127-33.268-169.909Z" transform="translate(-1138.291 -72.712)" fill="#d3d6db"/>
      <path id="Path_3705" data-name="Path 3705" d="M1212.969,304.17s-22.483,13.864-28.723,16.667-16.813,9.971-20.87,31.167-9.971,42.978-8.407,42.978,9.547-2.7,10.133-4.888,11.535-5.279,22.89-2.346,16.292,7.022,16.895,8.781-8.146,87.1-10.492,97.3-3.258,74.943.114,77.126,21.75-7.283,37.39-7.69,60.476-2.053,75.285-3.258,53.91-2.476,53.91-6.175-1.238-48.957-9.058-60.069c-3.258-4.659-11.4-18.719-24.129-29.651-5.816-4.985,12.513-49.674,14.663-54.692,3.715-8.635,24.7-36.2,23.037-43.988s-7.885-38.661-14.256-45.781-10.182-14.777-43.027-11.209S1212.969,304.17,1212.969,304.17Z" transform="translate(-1154.712 -167.991)" fill="url(#linear-gradient-25)"/>
      <path id="Path_3706" data-name="Path 3706" d="M1242.382,346.336c8.57.326,34.669-6.061,29.163-20.088s-14.093-11.828-14.207-29.994-34.572-13.995-34.572-13.995,4.2,23.346-2.949,27.208-33.838,7.967-22.809,19.811S1221.463,345.5,1242.382,346.336Z" transform="translate(-1129.758 -182.037)" fill="url(#linear-gradient-26)"/>
      <path id="Path_3707" data-name="Path 3707" d="M1255.832,221.148c-5.637.244-24.568-4.252-38.335,8.667-26.931,25.253-23.4,40.127-23.4,49.625s-5.116,21.18-8.651,29.081c-11.062,24.845-3.421,39.427,3.258,53.112s-5.36,16.015-3.356,28.755c.912,5.865,9.254,31.313,36.869,16.211,25.937-14.19-12.382-40.648,9.466-58.537,10.769-8.83,1.124-15.4,2.721-23.526,4.122-21.18,31.639,8.244,31.639,8.244s-.994,13.034,6.517,19.86-7.95,19.762-6.517,29.684c1.629,11.127,13.392,23.77,25.041,15.477,10.329-7.348,6.957-19.893,3.682-28.706-4.774-12.887,8.879-29.423,9.009-36.934.2-11.763-13.034-10.883-11.6-24.438.7-6.6,13.848-21.489,11.16-34.6C1301.759,265.25,1285.207,219.893,1255.832,221.148Z" transform="translate(-1138.891 -220.584)" fill="#1c2b6b"/>
      <path id="Path_3708" data-name="Path 3708" d="M1256.4,240.809c-8-5.148-35.614,1.466-43.565,18.231s-5.034,43.369,3.764,53.764,23.249,15.917,29.114,12.154,19.7-32.893,20.544-38.97-1.466-12.773,0-15.51S1271.7,250.666,1256.4,240.809Z" transform="translate(-1121.064 -208.932)" fill="#f2dad4"/>
      <path id="Path_3709" data-name="Path 3709" d="M1161.09,360.235s6.142,48.664,11.583,62.056,13.93,29.733,19,29.733,22.076-10.443,29.114-13.164,31.541-25.644,39.7-36.755,10.28-14.549,11.535-14.923,30.955-26.947,30.955-26.947l-3.747-6.68a4.742,4.742,0,0,0-2.737-.831c-1.629,0-4.562,1.189-5.507,1.189s-2.167-2.753-3.959-2.151-4.676,4.431-5.637,4.676a84.744,84.744,0,0,0-8.146,5.637,32.585,32.585,0,0,0-5.637,4.545,14.555,14.555,0,0,1-5.034,3.731,26.938,26.938,0,0,0-7.2,6.109c-2.639,3-22.662,15.461-27.061,17.807s-21.538,11.144-22.125,9.238-2.688-29.684-5.376-36.836S1170.165,352.2,1161.09,360.235Z" transform="translate(-1150.699 -138.1)" fill="#f2dad4"/>
      <path id="Path_3710" data-name="Path 3710" d="M1263.607,406.472s-2.721-5.295-3.144-30.857c-.456-27.582,24.6-1.369,24.6-1.369l5.881,6.94-6,9.563-8.146,12.089-5.458,3.633Z" transform="translate(-1088.178 -130.981)" fill="#d1ada6"/>
      <path id="Path_3711" data-name="Path 3711" d="M1317.838,393.341l-85.777,8.716a3.063,3.063,0,0,1-2.753-4.888l42.929-56.729a3.047,3.047,0,0,1,2.3-1.222l82.519-4.138a3.063,3.063,0,0,1,2.59,4.888L1319.972,392.1A3.1,3.1,0,0,1,1317.838,393.341Z" transform="translate(-1108.163 -148.544)" fill="url(#linear-gradient-27)"/>
      <path id="Path_3712" data-name="Path 3712" d="M1277.813,362.607c2.395-2.346,5.653.1,6.908,1.434s14.353,16.422,14.533,17.921-1.336,2.607-1.336,2.965a26.059,26.059,0,0,1-.994,7.266,12.4,12.4,0,0,0-1.255,7.006c.261,3.258,2.672,19.55-3.258,26.067s-14.06,12.577-18.068,11.209-10.052-8.993-10.264-11.844-1.629-11.73,0-14.484,6.028-3.177,6.028-4.236a14.875,14.875,0,0,0-1.059-4.888c-.635-1.369-6.338-7.185-8.342-9.3s-5.849-5.067-6-5.881-.424-1.368,0-1.955-.7-1.988-.7-1.988a5.49,5.49,0,0,1,.8-4.383c1.483-1.906,4.334-1.759,6.631-.391s17.921,12.089,19.55,12.561,2.411.847,2.15.13-11.4-12.854-12.643-14.158-6.957-4.415-3.714-8.146,12.17,5.116,13.62,6.631,9.563,8.977,10.508,9.27-12.463-13.995-12.805-14.891S1275.026,365.312,1277.813,362.607Z" transform="translate(-1092.331 -131.837)" fill="#f2dad4"/>
    </g>
  </g>
</svg>
