<svg xmlns="http://www.w3.org/2000/svg" width="53.377" height="53.377" viewBox="0 0 53.377 53.377">
    <defs>
        <style>
            .cls-1{fill:#e6e6e6}.cls-2{fill:#b3b3b3}.cls-3{fill:#f5cf68}.cls-4{fill:#fdb62f}.cls-5{fill:#6cbbc7}.cls-6{fill:gray}
        </style>
    </defs>
    <g id="web" transform="translate(-2 -2)">
        <path id="Rectangle_149" d="M0 0h8.896v16.013H0z" class="cls-1" data-name="Rectangle 149" transform="translate(24.24 2.89)"/>
        <path id="Rectangle_150" d="M0 0h8.896v3.558H0z" class="cls-2" data-name="Rectangle 150" transform="translate(24.24 15.344)"/>
        <path id="Path_548" d="M23.9 37c-4.913 0-8.9 1.195-8.9 2.669v16.013c0 1.474 3.983 2.669 8.9 2.669s8.9-1.195 8.9-2.669V39.669C32.792 38.195 28.809 37 23.9 37z" class="cls-3" data-name="Path 548" transform="translate(-1.435 -3.863)"/>
        <ellipse id="Ellipse_35" cx="8.896" cy="2.669" class="cls-3" data-name="Ellipse 35" rx="8.896" ry="2.669" transform="translate(13.565 33.137)"/>
        <path id="Path_549" d="M15 57.338c0 1.474 3.983 2.669 8.9 2.669s8.9-1.195 8.9-2.669V52c0 1.474-3.983 2.669-8.9 2.669S15 53.474 15 52z" class="cls-4" data-name="Path 549" transform="translate(-1.435 -5.519)"/>
        <path id="Path_550" d="M32.792 40c0 1.474-3.983 2.669-8.9 2.669S15 41.474 15 40v5.338c0 1.474 3.983 2.669 8.9 2.669s8.9-1.195 8.9-2.669z" class="cls-4" data-name="Path 550" transform="translate(-1.435 -4.195)"/>
        <path id="Path_551" d="M46.257 51.007a6.2 6.2 0 0 0-.178-1.44l1.77-1.022-1.779-3.083-1.77 1.023a6.2 6.2 0 0 0-2.491-1.444V43H38.25v2.041a6.2 6.2 0 0 0-2.491 1.444l-1.771-1.022-1.779 3.082 1.77 1.022a6.036 6.036 0 0 0 0 2.881l-1.77 1.022 1.779 3.082 1.771-1.022a6.2 6.2 0 0 0 2.491 1.444v2.041h3.558v-2.043a6.2 6.2 0 0 0 2.492-1.444l1.771 1.022 1.779-3.082-1.771-1.022a6.2 6.2 0 0 0 .178-1.439zm-6.227 2.668a2.669 2.669 0 1 1 2.67-2.668 2.669 2.669 0 0 1-2.67 2.668z" class="cls-5" data-name="Path 551" transform="translate(-3.335 -4.526)"/>
        <path id="Rectangle_151" d="M0 0h16.013v12.455H0z" class="cls-1" data-name="Rectangle 151" transform="translate(2.89 2.89)"/>
        <path id="Rectangle_152" d="M0 0h16.013v3.558H0z" class="cls-2" data-name="Rectangle 152" transform="translate(2.89 11.786)"/>
        <path id="Rectangle_153" d="M0 0h5.338v3.558H0z" class="cls-6" data-name="Rectangle 153" transform="translate(8.227 15.344)"/>
        <path id="Rectangle_154" d="M0 0h16.013v16.013H0z" class="cls-1" data-name="Rectangle 154" transform="translate(38.474 2.89)"/>
        <path id="Rectangle_155" d="M0 0h16.013v5.338H0z" class="cls-2" data-name="Rectangle 155" transform="translate(38.474 2.89)"/>
        <path id="Path_552" d="M44.389 43.473l-2 1.156a7.117 7.117 0 0 0-1.7-.99v-2.3h-5.338v2.3a7.117 7.117 0 0 0-1.7.987l-.075-.043v-5.025C33.572 37.114 28.5 36 23.786 36S14 37.114 14 39.558v16.014c0 2.445 5.071 3.558 9.786 3.558 4.488 0 9.292-1.012 9.741-3.22l.119-.069a7.117 7.117 0 0 0 1.7.987v2.3h5.338v-2.3a7.117 7.117 0 0 0 1.7-.987l2 1.156 2.669-4.626-1.989-1.151a6.765 6.765 0 0 0 0-1.97l1.994-1.15zm-12.739 0l-1.318 2.282a20.567 20.567 0 0 1-6.547.921c-5.205 0-7.873-1.3-8.007-1.779v-3.174l.04.017q.321.158.688.3c.065.025.136.047.2.072.189.068.383.133.584.193l.292.082q.289.08.593.15c.1.023.193.046.292.067q.381.082.778.149l.149.028q.475.077.97.137l.285.03c.241.027.483.051.729.07l.345.027c.239.016.48.03.721.041l.316.014a29.12 29.12 0 0 0 2.044 0l.316-.014c.241-.011.481-.025.721-.041l.345-.027c.246-.02.488-.044.729-.07l.285-.03q.494-.06.97-.137l.149-.028q.4-.068.778-.149c.1-.02.195-.044.292-.067q.3-.07.593-.15c.1-.027.2-.053.292-.082.2-.06.4-.125.584-.193.068-.025.139-.047.2-.072q.366-.139.688-.3l.04-.017v1.833zm-7.864-5.694c.324 0 .638.005.943.014.108 0 .207.011.313.015.191.008.384.015.568.027.15.01.291.023.436.035.129.011.267.02.387.031.178.017.34.037.506.057.085.011.178.019.255.029.219.028.426.06.629.089l.071.01c2.47.41 3.767 1.119 3.894 1.465a.3.3 0 0 1-.023.044.385.385 0 0 1-.034.055c-.013.016-.033.033-.049.05a.883.883 0 0 1-.07.069c-.028.024-.045.034-.068.051s-.068.052-.109.079c-.026.017-.059.035-.089.052-.047.028-.089.057-.148.089-.033.018-.073.036-.108.053-.06.031-.119.061-.188.089l-.125.053a9.049 9.049 0 0 0-.228.1c-.045.018-.1.036-.146.053-.089.032-.172.064-.267.1-.055.019-.117.036-.178.055-.1.03-.191.061-.3.089-.067.02-.141.037-.21.056-.1.028-.208.057-.32.085-.079.02-.166.037-.249.056-.111.026-.22.052-.337.076-.1.02-.2.036-.3.055-.116.021-.229.044-.35.064s-.233.035-.35.052-.231.036-.356.052-.267.031-.4.046c-.121.013-.238.028-.362.041-.151.014-.312.025-.47.037-.118.009-.231.02-.356.028-.2.012-.407.02-.615.028-.089 0-.178.01-.267.013-.305.009-.623.014-.943.014-.65 0-1.261-.02-1.833-.057-3.985-.254-6.041-1.294-6.171-1.718.173-.495 2.838-1.781 8.017-1.781zm-8.007 9.276a19.583 19.583 0 0 0 8.007 1.4 26.183 26.183 0 0 0 5.279-.5l-.084.145 1.994 1.151a6.884 6.884 0 0 0-.072.985c0 .2.026.406.044.609a18.186 18.186 0 0 1-7.161 1.17c-5.205 0-7.873-1.3-8.007-1.779zm0 8.516V52.4a19.7 19.7 0 0 0 8.007 1.394 25.293 25.293 0 0 0 5.672-.6l1.671 2.9a17.207 17.207 0 0 1-7.343 1.26c-5.205-.003-7.873-1.302-8.007-1.782zM43.207 49a5.154 5.154 0 0 1 0 2.471l-.152.644 1.573.908-.89 1.541-1.574-.908-.482.454a5.35 5.35 0 0 1-2.135 1.239l-.638.189v1.815H37.13v-1.817l-.636-.189a5.35 5.35 0 0 1-2.135-1.239l-.482-.454-1.574.908-.89-1.541 1.573-.908-.152-.644a5.154 5.154 0 0 1 0-2.471l.152-.644-1.573-.908.887-1.546 1.574.908.482-.454a5.35 5.35 0 0 1 2.135-1.239l.636-.189v-1.809h1.779v1.815l.636.189a5.35 5.35 0 0 1 2.138 1.239l.482.454 1.574-.908.89 1.541-1.571.908z" data-name="Path 552" transform="translate(-1.325 -3.753)"/>
        <path id="Path_553" d="M40.558 48a3.558 3.558 0 1 0 3.558 3.558A3.558 3.558 0 0 0 40.558 48zm0 5.338a1.779 1.779 0 1 1 1.779-1.779 1.779 1.779 0 0 1-1.779 1.779z" data-name="Path 553" transform="translate(-3.863 -5.078)"/>
        <path id="Path_554" d="M36.675 2H26v17.792h10.675zM34.9 3.779v10.676h-7.121V3.779zm-3.562 14.234h-3.559v-1.779H34.9v1.779z" data-name="Path 554" transform="translate(-2.649)"/>
        <path id="Path_555" d="M32.779 18.89a.934.934 0 0 0-.258-.632.906.906 0 0 0-.81-.24.566.566 0 0 0-.16.053.7.7 0 0 0-.161.08 1.512 1.512 0 0 0-.133.107.93.93 0 0 0-.257.632.89.89 0 1 0 1.779 0z" data-name="Path 555" transform="translate(-3.201 -1.766)"/>
        <path id="Path_556" d="M12.779 24H11v5.338h17.792V32.9h1.779v-3.562h17.793V24h-1.779v3.558H30.572V24h-1.78v3.558H12.779z" data-name="Path 556" transform="translate(-.993 -2.428)"/>
        <path id="Path_557" d="M7.338 18.013h-1.78v1.779h10.676v-1.779h-1.779v-1.779h5.338V2H2v14.234h5.338zm5.338 0H9.117v-1.779h3.558zM3.779 3.779h14.234V10.9H3.779zm0 10.675v-1.779h14.234v1.779z" data-name="Path 557"/>
        <path id="Path_558" d="M42 19.792h17.792V2H42zm16.013-1.779H43.779v-8.9h14.234zM43.779 3.779h14.234v3.559H43.779z" data-name="Path 558" transform="translate(-4.415)"/>
        <path id="Path_559" d="M46.379 5.151a.505.505 0 0 0-.151-.08.542.542 0 0 0-.17-.053.89.89 0 0 0-.8.24.918.918 0 0 0-.187.294.881.881 0 0 0 .187.97 1.028 1.028 0 0 0 .294.187.838.838 0 0 0 .676 0 1.04 1.04 0 0 0 .294-.187.884.884 0 0 0 .259-.632.934.934 0 0 0-.258-.632.889.889 0 0 0-.142-.107z" data-name="Path 559" transform="translate(-4.746 -.331)"/>
        <path id="Path_560" d="M49.521 5.259a.931.931 0 0 0-1.263 0 .918.918 0 0 0-.187.294.89.89 0 0 0-.071.338.745.745 0 0 0 .071.338 1.04 1.04 0 0 0 .187.294.881.881 0 0 0 .97.187 1.04 1.04 0 0 0 .294-.187 1.04 1.04 0 0 0 .187-.294.838.838 0 0 0 0-.676 1.028 1.028 0 0 0-.187-.294z" data-name="Path 560" transform="translate(-5.078 -.333)"/>
        <path id="Path_561" d="M52.521 5.258a1.04 1.04 0 0 0-.294-.187.844.844 0 0 0-.516-.053.566.566 0 0 0-.16.053.7.7 0 0 0-.161.08 1.512 1.512 0 0 0-.133.107.83.83 0 0 0-.187.294.839.839 0 0 0 0 .676 1.04 1.04 0 0 0 .187.294 1.027 1.027 0 0 0 .294.187.89.89 0 0 0 .338.071.919.919 0 0 0 .632-.258 1.04 1.04 0 0 0 .187-.294.92.92 0 0 0-.187-.97z" data-name="Path 561" transform="translate(-5.409 -.331)"/>
    </g>
</svg>
